<svg width="25" height="24" viewBox="0 0 25 24" fill="none" xmlns="http://www.w3.org/2000/svg">
<g id="vuesax/bold/color-swatch">
<g id="color-swatch">
<path id="Vector" d="M22.5575 16.5V19.5C22.5575 20.88 21.4375 22 20.0575 22H12.9175C12.0275 22 11.5875 20.93 12.2075 20.3L18.0775 14.3C18.2675 14.11 18.5275 14 18.7875 14H20.0575C21.4375 14 22.5575 15.12 22.5575 16.5Z" fill="#00B144"/>
<path id="Vector_2" d="M18.9269 11.2895L16.2169 13.9995L13.7569 16.4495C13.1269 17.0795 12.0469 16.6395 12.0469 15.7495C12.0469 12.5395 12.0469 7.25953 12.0469 7.25953C12.0469 6.98953 12.1569 6.73953 12.3369 6.54953L13.2569 5.62953C14.2369 4.64953 15.8169 4.64953 16.7969 5.62953L18.9169 7.74953C19.9069 8.72953 19.9069 10.3095 18.9269 11.2895Z" fill="#00B144"/>
<path id="Vector_3" d="M8.05859 2H5.05859C3.55859 2 2.55859 3 2.55859 4.5V18C2.55859 18.27 2.58859 18.54 2.63859 18.8C2.66859 18.93 2.69859 19.06 2.73859 19.19C2.78859 19.34 2.83859 19.49 2.89859 19.63C2.90859 19.64 2.90859 19.65 2.90859 19.65C2.91859 19.65 2.91859 19.65 2.90859 19.66C3.04859 19.94 3.20859 20.21 3.39859 20.46C3.50859 20.59 3.61859 20.71 3.72859 20.83C3.83859 20.95 3.95859 21.05 4.08859 21.15L4.09859 21.16C4.34859 21.35 4.61859 21.51 4.89859 21.65C4.90859 21.64 4.90859 21.64 4.90859 21.65C5.05859 21.72 5.20859 21.77 5.36859 21.82C5.49859 21.86 5.62859 21.89 5.75859 21.92C6.01859 21.97 6.28859 22 6.55859 22C6.96859 22 7.38859 21.94 7.77859 21.81C7.88859 21.77 7.99859 21.73 8.10859 21.68C8.45859 21.54 8.79859 21.34 9.09859 21.08C9.18859 21.01 9.28859 20.92 9.37859 20.83L9.41859 20.79C10.1186 20.07 10.5586 19.08 10.5586 18V4.5C10.5586 3 9.55859 2 8.05859 2ZM6.55859 19.5C5.72859 19.5 5.05859 18.83 5.05859 18C5.05859 17.17 5.72859 16.5 6.55859 16.5C7.38859 16.5 8.05859 17.17 8.05859 18C8.05859 18.83 7.38859 19.5 6.55859 19.5Z" fill="#00B144"/>
</g>
</g>
</svg>
