<svg id="apple" xmlns="http://www.w3.org/2000/svg" width="20.18" height="24.604" viewBox="0 0 20.18 24.604">
  <path id="Path_4290" data-name="Path 4290" d="M52.713,136.893c-3.662-.021-6.691-7.5-6.691-11.3,0-6.218,4.665-7.58,6.463-7.58a7.436,7.436,0,0,1,2.438.6,5.45,5.45,0,0,0,1.392.4,4.333,4.333,0,0,0,1-.324,8.005,8.005,0,0,1,3.011-.728h.007a6.171,6.171,0,0,1,5.164,2.608l.377.566-.542.409a4.561,4.561,0,0,0-2.187,3.761,4.245,4.245,0,0,0,2.369,3.924c.339.2.691.415.691.875,0,.3-2.4,6.755-5.883,6.755a4.731,4.731,0,0,1-1.986-.482,4.028,4.028,0,0,0-1.768-.426,4.549,4.549,0,0,0-1.4.379,6.857,6.857,0,0,1-2.428.567Z" transform="translate(-46.022 -112.29)" fill="#fff"/>
  <path id="Path_4291" data-name="Path 4291" d="M259.777,0c.091,3.271-2.249,5.541-4.585,5.4C254.806,2.788,257.528,0,259.777,0Z" transform="translate(-245.105)" fill="#fff"/>
</svg>
