<svg width="29" height="29" viewBox="0 0 29 29" fill="none" xmlns="http://www.w3.org/2000/svg">
<path d="M20.1544 4.28344V2.40635C20.1544 1.91302 19.7453 1.50391 19.2519 1.50391C18.7586 1.50391 18.3495 1.91302 18.3495 2.40635V4.21124H10.5283V2.40635C10.5283 1.91302 10.1192 1.50391 9.62583 1.50391C9.13249 1.50391 8.72338 1.91302 8.72338 2.40635V4.28344C5.47458 4.58425 3.89831 6.5215 3.65765 9.3973C3.63359 9.74624 3.92237 10.035 4.25928 10.035H24.6185C24.9674 10.035 25.2562 9.73421 25.2201 9.3973C24.9794 6.5215 23.4032 4.58425 20.1544 4.28344Z" fill="#33CCFF"/>
<path opacity="0.3" d="M24.0648 11.8398C24.7266 11.8398 25.2681 12.3813 25.2681 13.0431V20.4552C25.2681 24.065 23.4632 26.4715 19.2518 26.4715H9.62568C5.41427 26.4715 3.60938 24.065 3.60938 20.4552V13.0431C3.60938 12.3813 4.15084 11.8398 4.81264 11.8398H24.0648Z" fill="#33CCFF"/>
<path d="M10.2267 18.0487C9.91385 18.0487 9.601 17.9164 9.37238 17.6998C9.1558 17.4712 9.02344 17.1583 9.02344 16.8455C9.02344 16.5326 9.1558 16.2198 9.37238 15.9912C9.7093 15.6543 10.2387 15.5459 10.6839 15.7385C10.8404 15.7986 10.9727 15.8829 11.081 15.9912C11.2976 16.2198 11.43 16.5326 11.43 16.8455C11.43 17.1583 11.2976 17.4712 11.081 17.6998C10.8524 17.9164 10.5395 18.0487 10.2267 18.0487Z" fill="#33CCFF"/>
<path d="M14.4396 18.0487C14.1267 18.0487 13.8139 17.9164 13.5853 17.6998C13.3687 17.4712 13.2363 17.1583 13.2363 16.8455C13.2363 16.5326 13.3687 16.2198 13.5853 15.9912C13.6936 15.8829 13.8259 15.7986 13.9823 15.7385C14.4276 15.5459 14.957 15.6543 15.2939 15.9912C15.5105 16.2198 15.6429 16.5326 15.6429 16.8455C15.6429 17.1583 15.5105 17.4712 15.2939 17.6998C15.2337 17.7479 15.1736 17.796 15.1134 17.8442C15.0412 17.8923 14.969 17.9284 14.8968 17.9525C14.8246 17.9886 14.7524 18.0127 14.6802 18.0247C14.596 18.0367 14.5238 18.0487 14.4396 18.0487Z" fill="#33CCFF"/>
<path d="M18.6505 18.0491C18.3377 18.0491 18.0248 17.9167 17.7962 17.7002C17.5796 17.4715 17.4473 17.1587 17.4473 16.8459C17.4473 16.533 17.5796 16.2202 17.7962 15.9915C17.9165 15.8833 18.0369 15.799 18.1933 15.7388C18.4099 15.6426 18.6505 15.6185 18.8912 15.6666C18.9634 15.6787 19.0356 15.7027 19.1078 15.7388C19.18 15.7629 19.2522 15.799 19.3244 15.8472C19.3845 15.8953 19.4447 15.9434 19.5048 15.9915C19.7214 16.2202 19.8538 16.533 19.8538 16.8459C19.8538 17.1587 19.7214 17.4715 19.5048 17.7002C19.4447 17.7483 19.3845 17.7964 19.3244 17.8445C19.2522 17.8927 19.18 17.9288 19.1078 17.9529C19.0356 17.989 18.9634 18.013 18.8912 18.0251C18.807 18.0371 18.7227 18.0491 18.6505 18.0491Z" fill="#33CCFF"/>
<path d="M10.2267 22.2601C10.0703 22.2601 9.91385 22.224 9.76946 22.1638C9.61303 22.1036 9.49271 22.0194 9.37238 21.9111C9.1558 21.6825 9.02344 21.3696 9.02344 21.0568C9.02344 20.7439 9.1558 20.4311 9.37238 20.2025C9.49271 20.0942 9.61303 20.0099 9.76946 19.9498C9.98605 19.8535 10.2267 19.8295 10.4674 19.8776C10.5395 19.8896 10.6117 19.9137 10.6839 19.9498C10.7561 19.9738 10.8283 20.01 10.9005 20.0581C10.9607 20.1062 11.0209 20.1544 11.081 20.2025C11.2976 20.4311 11.43 20.7439 11.43 21.0568C11.43 21.3696 11.2976 21.6825 11.081 21.9111C11.0209 21.9592 10.9607 22.0194 10.9005 22.0555C10.8283 22.1036 10.7561 22.1397 10.6839 22.1638C10.6117 22.1999 10.5395 22.224 10.4674 22.236C10.3831 22.248 10.3109 22.2601 10.2267 22.2601Z" fill="#33CCFF"/>
<path d="M14.4396 22.2606C14.1267 22.2606 13.8139 22.1282 13.5853 21.9117C13.3687 21.683 13.2363 21.3702 13.2363 21.0574C13.2363 20.7445 13.3687 20.4317 13.5853 20.203C14.0305 19.7578 14.8487 19.7578 15.2939 20.203C15.5105 20.4317 15.6429 20.7445 15.6429 21.0574C15.6429 21.3702 15.5105 21.683 15.2939 21.9117C15.0653 22.1282 14.7524 22.2606 14.4396 22.2606Z" fill="#33CCFF"/>
<path d="M18.6505 22.2606C18.3377 22.2606 18.0248 22.1282 17.7962 21.9117C17.5796 21.683 17.4473 21.3702 17.4473 21.0574C17.4473 20.7445 17.5796 20.4317 17.7962 20.203C18.2414 19.7578 19.0596 19.7578 19.5048 20.203C19.7214 20.4317 19.8538 20.7445 19.8538 21.0574C19.8538 21.3702 19.7214 21.683 19.5048 21.9117C19.2762 22.1282 18.9634 22.2606 18.6505 22.2606Z" fill="#33CCFF"/>
</svg>
