<svg width="29" height="29" viewBox="0 0 29 29" fill="none" xmlns="http://www.w3.org/2000/svg">
<path opacity="0.4" d="M14.4389 26.472C21.0843 26.472 26.4715 21.0848 26.4715 14.4394C26.4715 7.79392 21.0843 2.40674 14.4389 2.40674C7.79343 2.40674 2.40625 7.79392 2.40625 14.4394C2.40625 21.0848 7.79343 26.472 14.4389 26.472Z" fill="#33CCFF"/>
<path d="M18.9032 19.1677C18.7468 19.1677 18.5904 19.1316 18.446 19.0353L14.7159 16.8093C13.7894 16.2558 13.1035 15.0405 13.1035 13.9696V9.03624C13.1035 8.5429 13.5126 8.13379 14.006 8.13379C14.4993 8.13379 14.9084 8.5429 14.9084 9.03624V13.9696C14.9084 14.4028 15.2694 15.0405 15.6424 15.2571L19.3725 17.4831C19.8057 17.7358 19.938 18.2893 19.6854 18.7225C19.5049 19.0113 19.2041 19.1677 18.9032 19.1677Z" fill="#33CCFF"/>
</svg>
