<svg width="21" height="20" viewBox="0 0 21 20" fill="none" xmlns="http://www.w3.org/2000/svg">
<path d="M14.94 0H6.56C2.92 0 0.75 2.17 0.75 5.81V14.18C0.75 17.83 2.92 20 6.56 20H14.93C18.57 20 20.74 17.83 20.74 14.19V5.81C20.75 2.17 18.58 0 14.94 0ZM12.08 15H9.41C9.21109 15 9.02032 14.921 8.87967 14.7803C8.73902 14.6397 8.66 14.4489 8.66 14.25C8.66 14.0511 8.73902 13.8603 8.87967 13.7197C9.02032 13.579 9.21109 13.5 9.41 13.5H12.08C12.2789 13.5 12.4697 13.579 12.6103 13.7197C12.751 13.8603 12.83 14.0511 12.83 14.25C12.83 14.4489 12.751 14.6397 12.6103 14.7803C12.4697 14.921 12.2789 15 12.08 15ZM14.75 10.75H6.75C6.55109 10.75 6.36032 10.671 6.21967 10.5303C6.07902 10.3897 6 10.1989 6 10C6 9.80109 6.07902 9.61032 6.21967 9.46967C6.36032 9.32902 6.55109 9.25 6.75 9.25H14.75C14.9489 9.25 15.1397 9.32902 15.2803 9.46967C15.421 9.61032 15.5 9.80109 15.5 10C15.5 10.1989 15.421 10.3897 15.2803 10.5303C15.1397 10.671 14.9489 10.75 14.75 10.75ZM16.75 6.5H4.75C4.55109 6.5 4.36032 6.42098 4.21967 6.28033C4.07902 6.13968 4 5.94891 4 5.75C4 5.55109 4.07902 5.36032 4.21967 5.21967C4.36032 5.07902 4.55109 5 4.75 5H16.75C16.9489 5 17.1397 5.07902 17.2803 5.21967C17.421 5.36032 17.5 5.55109 17.5 5.75C17.5 5.94891 17.421 6.13968 17.2803 6.28033C17.1397 6.42098 16.9489 6.5 16.75 6.5Z" fill="#00B144"/>
</svg>
