<svg width="21" height="19" viewBox="0 0 21 19" fill="none" xmlns="http://www.w3.org/2000/svg">
<path d="M13.9466 0.00506166H1.21176C1.08777 -0.00117218 0.963809 0.0178669 0.847406 0.0610221C0.731003 0.104177 0.624591 0.170548 0.534636 0.256099C0.444681 0.341651 0.373062 0.444598 0.324131 0.558684C0.2752 0.67277 0.249979 0.795612 0.25 0.919747V13.7413C0.25 13.8628 0.298241 13.9792 0.384112 14.0651C0.469982 14.1509 0.586447 14.1992 0.707886 14.1992C0.841723 14.1956 0.970529 14.1474 1.0738 14.0622L5.28675 10.0786H13.9466C14.0707 10.0848 14.1947 10.0658 14.3112 10.0225C14.4277 9.97933 14.5341 9.91287 14.6241 9.82722C14.7141 9.74156 14.7857 9.63849 14.8345 9.52429C14.8834 9.41008 14.9085 9.28713 14.9084 9.16291V0.919747C14.9084 0.795612 14.8832 0.67277 14.8342 0.558684C14.7853 0.444598 14.7137 0.341651 14.6237 0.256099C14.5338 0.170548 14.4274 0.104177 14.311 0.0610221C14.1946 0.0178669 14.0706 -0.00117218 13.9466 0.00506166Z" fill="#00B144"/>
<path d="M19.4427 4.12592H16.7434V11.9102H5.74609V13.2828C5.74594 13.407 5.77106 13.5299 5.81993 13.6441C5.8688 13.7583 5.9404 13.8614 6.03037 13.9471C6.12034 14.0327 6.2268 14.0992 6.34327 14.1424C6.45974 14.1856 6.58378 14.2047 6.70786 14.1985H15.3627L19.5757 18.1821C19.6789 18.2673 19.8077 18.3155 19.9416 18.319C20.063 18.319 20.1795 18.2708 20.2653 18.1849C20.3512 18.0991 20.3995 17.9826 20.3995 17.8612V5.0406C20.3994 4.91691 20.3744 4.7945 20.3258 4.68076C20.2771 4.56703 20.206 4.46432 20.1165 4.37884C20.0271 4.29336 19.9213 4.22688 19.8055 4.18341C19.6897 4.13994 19.5663 4.12038 19.4427 4.12592Z" fill="#00B144"/>
</svg>
