<svg xmlns="http://www.w3.org/2000/svg" width="186.584" height="85.318" viewBox="0 0 186.584 85.318">
  <g id="Mask_Group_17249" data-name="Mask Group 17249" transform="translate(0)">
    <path id="Path_19690" data-name="Path 19690" d="M30.514,78.358A30.529,30.529,0,1,1,52.1,26.243L41.875,36.469a16.067,16.067,0,1,0,0,22.722L52.1,69.416a30.328,30.328,0,0,1-21.587,8.942" transform="translate(0 2.338)" fill="#fff"/>
    <path id="Path_19691" data-name="Path 19691" d="M96.628,30.257a18.684,18.684,0,0,0-5.445-6.827q-6.748-5.2-13.9-5.2H52.658V76.434A9.23,9.23,0,0,1,67.044,68.78V61.548L77.2,61.386q7.233,0,13.98-5.2A18.752,18.752,0,0,0,96.628,49.4a21.24,21.24,0,0,0,2.113-9.55,21.5,21.5,0,0,0-2.113-9.59M82.08,45.212A7.873,7.873,0,0,1,77.285,47H67.044V32.613H77.2a7.874,7.874,0,0,1,4.877,1.829,6.423,6.423,0,0,1,2.358,5.4,6.309,6.309,0,0,1-2.358,5.365" transform="translate(7.119 2.464)" fill="#fff"/>
    <path id="Path_19692" data-name="Path 19692" d="M144.978,17.3H90a26.828,26.828,0,0,1,10.533,14.852h13.094V78.357h14.852V32.152h16.5Z" transform="translate(12.166 2.338)" fill="#fff"/>
    <path id="Path_19704" data-name="Path 19704" d="M68.085,70.114a6.622,6.622,0,1,1-6.622-6.622,6.622,6.622,0,0,1,6.622,6.622" transform="translate(7.414 8.583)" fill="#00b144"/>
    <path id="Path_19705" data-name="Path 19705" d="M148.3,14.962l-9.214-3.419a3.711,3.711,0,0,1,.629-7.13l8.5-1.539L163.732.062a3.71,3.71,0,0,1,4.153,4.9L162.56,19.81l-2.918,8.135a3.709,3.709,0,0,1-7.135-.552l-1.856-9.654a3.707,3.707,0,0,0-2.352-2.778" transform="translate(18.475 0)" fill="#3cf"/>
  </g>
</svg>
