<svg xmlns="http://www.w3.org/2000/svg" xmlns:xlink="http://www.w3.org/1999/xlink" width="96.897" height="72.338" viewBox="0 0 96.897 72.338">
  <defs>
    <linearGradient id="linear-gradient" x1="0.5" y1="0.5" x2="1.15" y2="-0.522" gradientUnits="objectBoundingBox">
      <stop offset="0" stop-color="#00b144" stop-opacity="0.098"/>
      <stop offset="1" stop-color="#00b144"/>
    </linearGradient>
  </defs>
  <g id="Group_29112" data-name="Group 29112" transform="translate(-1332.375 -901.166)">
    <ellipse id="椭圆_600" data-name="椭圆 600" cx="29.09" cy="29.09" rx="29.09" ry="29.09" transform="translate(1371.092 901.166)" fill="url(#linear-gradient)"/>
    <path id="Path_57641" data-name="Path 57641" d="M385.423,186.971a.631.631,0,0,0-.955.119l-5.488,6.323-5.488-6.323a.68.68,0,1,0-1.074.835l5.011,5.727h-3.7a.893.893,0,0,0-.716.835.688.688,0,0,0,.716.716h4.534v2.744h-4.534a.716.716,0,1,0,0,1.431h4.534v5.727a.716.716,0,1,0,1.432,0v-5.727h4.534a.716.716,0,1,0,0-1.431H379.7V195.2h4.534a.716.716,0,1,0,0-1.432h-3.7l5.011-5.846A.631.631,0,0,0,385.423,186.971Z" transform="translate(1021.201 733.943)" fill="#00b144"/>
    <path id="路径_57641_-_轮廓" data-name="路径 57641 - 轮廓" d="M372.961,186.3a1.137,1.137,0,0,1,.927.478l5.093,5.867,5.092-5.867A1.137,1.137,0,0,1,385,186.3h0a1.108,1.108,0,0,1,.739.277,1.133,1.133,0,0,1,.463.807,1.115,1.115,0,0,1-.291.874l-4.293,5.008h2.612a1.216,1.216,0,1,1,0,2.432H380.2v1.744h4.034a1.216,1.216,0,1,1,0,2.431H380.2v5.227a1.216,1.216,0,1,1-2.432,0v-5.227h-4.034a1.216,1.216,0,1,1,0-2.431h4.034V195.7h-4.034a1.189,1.189,0,0,1-1.216-1.216,1.376,1.376,0,0,1,1.058-1.31l.077-.026h2.678l-4.276-4.887a1.114,1.114,0,0,1-.293-.876,1.133,1.133,0,0,1,.464-.807A1.108,1.108,0,0,1,372.961,186.3Zm6.02,7.871-5.886-6.782-.018-.026a.132.132,0,0,0-.116-.063.111.111,0,0,0-.069.02l-.035.035-.041.027a.132.132,0,0,0-.062.1.119.119,0,0,0,.019.085l.023.024,5.736,6.556h-4.713c-.3.12-.3.264-.3.335a.191.191,0,0,0,.216.216h5.034v3.744h-5.034a.216.216,0,1,0,0,.431h5.034v6.227a.216.216,0,1,0,.432,0v-6.227h5.034a.216.216,0,1,0,0-.431H379.2V194.7h5.034a.216.216,0,1,0,0-.432h-4.786l5.744-6.7a.122.122,0,0,0,.019-.085.132.132,0,0,0-.062-.1l-.041-.027-.035-.035a.112.112,0,0,0-.07-.02.132.132,0,0,0-.116.063l-.018.026-.021.024Z" transform="translate(1021.201 733.943)" fill="#00b144"/>
    <path id="椭圆_1758" data-name="椭圆 1758" d="M28.116-1A29.123,29.123,0,0,1,39.449,54.943,29.123,29.123,0,0,1,16.782,1.289,28.935,28.935,0,0,1,28.116-1Zm0,55.378A26.262,26.262,0,1,0,1.854,28.116,26.292,26.292,0,0,0,28.116,54.378Z" transform="translate(1333.375 916.272)" fill="#00b144"/>
    <path id="Path_57605" data-name="Path 57605" d="M33.108-26.259A1.209,1.209,0,0,1,31.9-27.466v-1.875l-.517-.147a5.679,5.679,0,0,1-4.12-5.42,1.209,1.209,0,0,1,1.207-1.207,1.21,1.21,0,0,1,1.209,1.207,3.25,3.25,0,0,0,3.246,3.246,3.25,3.25,0,0,0,3.245-3.246,3.249,3.249,0,0,0-3.245-3.245c.026-.01-.043-.026-.114-.033A5.846,5.846,0,0,1,27.263-44,5.834,5.834,0,0,1,31.234-49.5l.482-.164v-1.528A1.209,1.209,0,0,1,32.925-52.4a1.209,1.209,0,0,1,1.207,1.207v1.447l.522.146A5.849,5.849,0,0,1,38.951-44a1.208,1.208,0,0,1-1.207,1.207A1.208,1.208,0,0,1,36.537-44a3.434,3.434,0,0,0-3.429-3.429A3.434,3.434,0,0,0,29.679-44a3.433,3.433,0,0,0,3.429,3.429c-.026.011.043.027.114.034a5.662,5.662,0,0,1,5.364,5.626,5.663,5.663,0,0,1-3.794,5.317l-.477.168v1.956A1.208,1.208,0,0,1,33.108-26.259Z" transform="translate(1328.383 985.312)" fill="#00b144"/>
  </g>
</svg>
