<svg xmlns="http://www.w3.org/2000/svg" width="21.565" height="24.138" viewBox="0 0 21.565 24.138">
  <g id="google-play" transform="translate(0 0)">
    <g id="Group_165" data-name="Group 165" transform="translate(1.451)">
      <g id="Group_164" data-name="Group 164">
        <path id="Path_4292" data-name="Path 4292" d="M51.153.386A2.8,2.8,0,0,0,48.3.394L58.783,10.539,62.3,6.844Z" transform="translate(-48.302 0)" fill="#fff"/>
      </g>
    </g>
    <g id="Group_167" data-name="Group 167" transform="translate(0 1.431)">
      <g id="Group_166" data-name="Group 166">
        <path id="Path_4293" data-name="Path 4293" d="M16.417,30.365a2.916,2.916,0,0,0-.4,1.474V50.161a2.929,2.929,0,0,0,.375,1.438L26.929,40.54Z" transform="translate(-16.014 -30.365)" fill="#fff"/>
      </g>
    </g>
    <g id="Group_169" data-name="Group 169" transform="translate(12.988 7.603)">
      <g id="Group_168" data-name="Group 168">
        <path id="Path_4294" data-name="Path 4294" d="M312.234,163.221l-3.358-1.944-3.774,3.958,4.625,4.476,2.509-1.453a2.918,2.918,0,0,0,0-5.037Z" transform="translate(-305.102 -161.277)" fill="#fff"/>
      </g>
    </g>
    <g id="Group_171" data-name="Group 171" transform="translate(1.403 12.629)">
      <g id="Group_170" data-name="Group 170">
        <path id="Path_4295" data-name="Path 4295" d="M57.814,267.9,47.246,278.99a2.8,2.8,0,0,0,2.9.029l11.986-6.941Z" transform="translate(-47.246 -267.901)" fill="#fff"/>
      </g>
    </g>
  </g>
</svg>
