<svg width="27" height="30" viewBox="0 0 27 30" fill="none" xmlns="http://www.w3.org/2000/svg">
<path d="M5.63436 0.735788C5.11703 0.431451 4.5274 0.271768 3.9272 0.273451C3.32699 0.275134 2.73827 0.438121 2.22266 0.745355L14.7585 12.877L18.9643 8.45846L5.63436 0.735788Z" fill="black"/>
<path d="M0.974429 1.98047C0.661213 2.51509 0.496106 3.12351 0.496097 3.74312V25.6531C0.495259 26.2553 0.649709 26.8476 0.944533 27.3727L13.545 14.148L0.974429 1.98047Z" fill="black"/>
<path d="M24.5521 11.6958L20.5365 9.37109L16.0234 14.1042L21.5541 19.4567L24.5545 17.7192C25.0802 17.4116 25.5162 16.9717 25.8192 16.4434C26.1222 15.915 26.2816 15.3166 26.2816 14.7075C26.2816 14.0984 26.1222 13.5 25.8192 12.9716C25.5162 12.4433 25.0802 12.0034 24.5545 11.6958H24.5521Z" fill="black"/>
<path d="M14.8094 15.3789L2.17188 28.6407C2.69167 28.9625 3.28966 29.1359 3.90099 29.142C4.51232 29.1481 5.11365 28.9867 5.63978 28.6754L19.973 20.3751L14.8094 15.3789Z" fill="black"/>
</svg>
