<svg width="17" height="18" viewBox="0 0 17 18" fill="none" xmlns="http://www.w3.org/2000/svg">
<g id="instagram.svg" clip-path="url(#clip0_53_14512)">
<path id="Path 21763" d="M8.50147 2.0314C10.7713 2.0314 11.0397 2.04076 11.9359 2.08111C12.4748 2.08751 13.0087 2.18655 13.5142 2.37388C13.8835 2.51021 14.2176 2.72761 14.4919 3.01009C14.7746 3.28422 14.992 3.61837 15.1281 3.98784C15.3156 4.49321 15.4147 5.02713 15.4209 5.56614C15.4621 6.46226 15.4706 6.73155 15.4706 9.0014C15.4706 11.2713 15.4621 11.5396 15.4209 12.4358C15.4147 12.9748 15.3156 13.5087 15.1281 14.0141C14.992 14.3835 14.7746 14.7177 14.4919 14.9918C14.2177 15.2741 13.8835 15.4912 13.5142 15.6271C13.0088 15.8146 12.4749 15.9136 11.9359 15.9198C11.0397 15.9602 10.7713 15.9696 8.50147 15.9696C6.23162 15.9696 5.96324 15.9611 5.06618 15.9198C4.52717 15.9136 3.99337 15.8146 3.48799 15.6271C3.1187 15.491 2.78448 15.274 2.51013 14.9918C2.22785 14.7174 2.0105 14.3833 1.87395 14.0141C1.68707 13.5085 1.58804 12.9747 1.58118 12.4358C1.53989 11.5396 1.53147 11.2703 1.53147 9.0014C1.53147 6.73249 1.53989 6.4632 1.58118 5.56614C1.58799 5.02719 1.68702 4.49338 1.87395 3.98784C2.01045 3.61855 2.2278 3.28448 2.51013 3.01009C2.78442 2.72764 3.11864 2.51023 3.48799 2.37388C3.99344 2.18662 4.5272 2.08758 5.06618 2.08111C5.96324 2.03982 6.23162 2.0314 8.50147 2.0314ZM8.50147 0.5C6.19314 0.5 5.90415 0.509399 4.99677 0.550686C4.29124 0.564461 3.59322 0.698034 2.93246 0.94572C2.36672 1.15921 1.85439 1.49353 1.43113 1.92536C0.99912 2.34866 0.664465 2.861 0.450514 3.42672C0.202951 4.08752 0.069353 4.78554 0.0554511 5.49106C0.0141639 6.3975 0.00390625 6.68746 0.00390625 8.99579C0.00390625 11.3041 0.0132256 11.5931 0.0554511 12.5005C0.0692804 13.206 0.202881 13.9041 0.450514 14.5649C0.664384 15.1306 0.99905 15.643 1.43113 16.0662C1.85431 16.4984 2.36665 16.833 2.93246 17.0468C3.59328 17.2943 4.29126 17.4278 4.99677 17.4418C5.90415 17.4831 6.19314 17.4925 8.50147 17.4925C10.8098 17.4925 11.0989 17.4822 12.0063 17.4418C12.7118 17.4278 13.4098 17.2942 14.0706 17.0468C14.6363 16.8328 15.1486 16.4982 15.5719 16.0662C16.0039 15.6429 16.3386 15.1306 16.5525 14.5649C16.8002 13.9041 16.9338 13.206 16.9476 12.5005C16.9889 11.5941 16.9992 11.3041 16.9992 8.99579C16.9992 6.68746 16.9898 6.3975 16.9476 5.49106C16.9337 4.78554 16.8001 4.08751 16.5525 3.42672C16.3385 2.86104 16.0039 2.34872 15.5719 1.92536C15.1485 1.49369 14.6362 1.1594 14.0706 0.94572C13.4098 0.698087 12.7118 0.564515 12.0063 0.550686C11.0989 0.509399 10.8098 0.5 8.50147 0.5ZM8.50147 4.6353C7.34392 4.63555 6.23385 5.09555 5.41543 5.91416C4.597 6.73276 4.13723 7.84293 4.13723 9.00049C4.13723 10.158 4.597 11.2682 5.41543 12.0868C6.23385 12.9054 7.34392 13.3654 8.50147 13.3656C9.65919 13.3656 10.7696 12.9058 11.5882 12.0871C12.4068 11.2685 12.8667 10.1582 12.8667 9.00049C12.8667 7.84277 12.4068 6.73247 11.5882 5.91384C10.7696 5.09521 9.65919 4.6353 8.50147 4.6353ZM8.50147 11.8333C7.75007 11.8331 7.02957 11.5344 6.49833 11.003C5.96709 10.4716 5.66868 9.75095 5.66868 8.99954C5.66868 8.24822 5.96706 7.52766 6.49833 6.9964C7.02959 6.46513 7.75015 6.16667 8.50147 6.16667C9.2528 6.16667 9.97336 6.46513 10.5046 6.9964C11.0359 7.52766 11.3344 8.24822 11.3344 8.99954C11.3344 9.75095 11.036 10.4716 10.5047 11.003C9.9735 11.5344 9.25288 11.8331 8.50147 11.8333ZM14.0594 4.46265C14.0594 4.19214 13.9518 3.93268 13.7605 3.7414C13.5693 3.55011 13.3099 3.44267 13.0394 3.44267C12.7689 3.44267 12.5094 3.55011 12.3181 3.7414C12.1268 3.93268 12.0194 4.19214 12.0194 4.46265C12.0194 4.73317 12.1268 4.9926 12.3181 5.18388C12.5094 5.37516 12.7689 5.48261 13.0394 5.48261C13.3099 5.48261 13.5693 5.37516 13.7605 5.18388C13.9518 4.9926 14.0594 4.73317 14.0594 4.46265Z" fill="#00B144"/>
</g>
<defs>
<clipPath id="clip0_53_14512">
<rect width="17" height="17" fill="white" transform="translate(0 0.5)"/>
</clipPath>
</defs>
</svg>
