<svg width="18" height="22" viewBox="0 0 18 22" fill="none" xmlns="http://www.w3.org/2000/svg">
<path d="M9.69141 12.2891L12.2885 10.7893L16.5364 18.1486C16.7352 18.493 16.7891 18.9023 16.6862 19.2865C16.5832 19.6707 16.3319 19.9983 15.9875 20.1971C15.6431 20.396 15.2339 20.4499 14.8497 20.347C14.4656 20.2441 14.1381 19.9928 13.9393 19.6483L9.69141 12.2891Z" fill="#00B144"/>
<path d="M10.0196 2.8645L3.96094 6.36328L7.45894 12.4233L13.5176 8.92456L10.0196 2.8645Z" fill="#00B144"/>
<path d="M13.7335 1.29892C13.3194 0.581674 12.4024 0.335964 11.6853 0.750115C10.9681 1.16426 10.7223 2.08145 11.1364 2.79869L14.1349 7.99347C14.5489 8.71072 15.4659 8.95643 16.1831 8.54228C16.9002 8.12813 17.146 7.21095 16.732 6.4937L13.7335 1.29892Z" fill="#00B144"/>
<path d="M3.347 7.2952C2.93292 6.57799 2.01583 6.33225 1.29862 6.74633C0.581413 7.16041 0.335679 8.07751 0.74976 8.79472L3.7488 13.9892C4.16288 14.7064 5.07997 14.9521 5.79718 14.5381C6.51439 14.124 6.76012 13.2069 6.34604 12.4897L3.347 7.2952Z" fill="#00B144"/>
<path d="M1.54992 18.1417C0.72197 18.1417 0.0507812 18.813 0.0507812 19.6411C0.0507812 20.4693 0.72197 21.1406 1.54992 21.1406H8.54592C9.37387 21.1406 10.0451 20.4693 10.0451 19.6411C10.0451 18.813 9.37387 18.1417 8.54592 18.1417H1.54992Z" fill="#00B144"/>
</svg>
