<svg xmlns="http://www.w3.org/2000/svg" width="17.226" height="17.809" viewBox="0 0 17.226 17.809">
  <g id="Group_19711" data-name="Group 19711" transform="translate(-172 -241.833)">
    <path id="Path_104" data-name="Path 104" d="M795.307-91.309h-3.828v-8.283c0-.97-.277-1.65-1.469-1.65a2.3,2.3,0,0,0-2.359,1.65v8.283h-3.828v-13.4h3.828v1.28a6.412,6.412,0,0,1,3.828-1.279c1.241,0,3.828.743,3.828,5.23Z" transform="translate(-606.081 350.951)" fill="#00b144" fillRule="evenodd"/>
    <path id="Path_105" data-name="Path 105" d="M776.527-108.4h0a1.792,1.792,0,0,1-1.793-1.794,1.794,1.794,0,0,1,1.793-1.8,1.8,1.8,0,0,1,1.8,1.8A1.8,1.8,0,0,1,776.527-108.4Z" transform="translate(-602.494 353.826)" fill="#00b144" fillRule="evenodd"/>
    <path id="Path_106" data-name="Path 106" d="M778.167-91.309h-3.828v-13.4h3.828Z" transform="translate(-602.339 350.951)" fill="#00b144" fillRule="evenodd"/>
  </g>
</svg>
