<svg width="31" height="31" viewBox="0 0 31 31" fill="none" xmlns="http://www.w3.org/2000/svg">
<path opacity="0.4" d="M26.2713 10.7659C24.9335 4.87961 19.7989 2.22949 15.2886 2.22949C15.2886 2.22949 15.2886 2.22949 15.2758 2.22949C10.7783 2.22949 5.63091 4.86687 4.29311 10.7532C2.80241 17.3275 6.82856 22.8953 10.4725 26.3991C11.823 27.6987 13.5558 28.3485 15.2886 28.3485C17.0213 28.3485 18.7541 27.6987 20.0919 26.3991C23.7358 22.8953 27.762 17.3403 26.2713 10.7659Z" fill="#33CCFF"/>
<path d="M15.2888 17.1494C17.5053 17.1494 19.3022 15.3525 19.3022 13.136C19.3022 10.9194 17.5053 9.12256 15.2888 9.12256C13.0723 9.12256 11.2754 10.9194 11.2754 13.136C11.2754 15.3525 13.0723 17.1494 15.2888 17.1494Z" fill="#33CCFF"/>
</svg>
