<svg xmlns="http://www.w3.org/2000/svg" xmlns:xlink="http://www.w3.org/1999/xlink" width="16.784" height="24.03" viewBox="0 0 16.784 24.03">
  <defs>
    <clipPath id="clipPath">
      <rect id="Rectangle_19508" data-name="Rectangle 19508" width="16.784" height="24.03" transform="translate(0 0)" fill="none"/>
    </clipPath>
  </defs>
  <g id="Group_19582" data-name="Group 19582" transform="translate(0 -0.004)">
    <g id="Group_19581" data-name="Group 19581" transform="translate(0 0.004)" clipPath="url(#clipPath)">
      <path id="Path_47138" data-name="Path 47138" d="M5.714,255.092l-4.623-5.538A8.354,8.354,0,0,0,0,253.7q0,.321.024.637a11.028,11.028,0,0,0,2.669,6.314c1.1,1.4,2.237,2.762,3.218,4.248a12.233,12.233,0,0,1,1.517,3.253,4.15,4.15,0,0,0,.291.766.746.746,0,0,0,1.341,0,3.5,3.5,0,0,0,.276-.717,12.769,12.769,0,0,1,2.1-4.135c.231-.313.456-.63.684-.945l.142-.181-5.726-6.859a3.033,3.033,0,0,1-.824-.987" transform="translate(0 -245.303)" fill="#34a853"/>
      <path id="Path_47139" data-name="Path 47139" d="M68.358,35.6a3.019,3.019,0,0,1,4.868-2.388L68.6,27.682a8.419,8.419,0,0,0-4.521,3.779L68.7,37a3.006,3.006,0,0,1-.342-1.4" transform="translate(-62.986 -27.211)" fill="#4285f4"/>
      <path id="Path_47140" data-name="Path 47140" d="M334.119,6.017l-4.509-5.4,4.509,5.4a3.037,3.037,0,0,1,.442.425l4.114-3.455a8.4,8.4,0,0,0-9.2-2.511l4.628,5.533.011.009" transform="translate(-323.867 -0.004)" fill="#1a73e8"/>
      <path id="Path_47141" data-name="Path 47141" d="M388.388,410.691a3.02,3.02,0,0,1-4.531,3.78l5.726,6.859a31.317,31.317,0,0,0,3.464-4.809c.027-.053.052-.106.077-.161l-3.541-4.241Z" transform="translate(-377.319 -403.696)" fill="#fbbc04"/>
      <path id="Path_47142" data-name="Path 47142" d="M631.927,175.108l-4.114,3.455a3.025,3.025,0,0,1,.372.55l1.2,1.436h0l3.541,4.241c.044-.1.084-.2.128-.3a7.884,7.884,0,0,0,.719-2.39q.051-.332.081-.661a8.49,8.49,0,0,0,.051-.927,8.358,8.358,0,0,0-1.976-5.409" transform="translate(-617.119 -172.125)" fill="#c1272d"/>
    </g>
  </g>
</svg>
