<?xml version="1.0" encoding="utf-8"?>
<!-- Generator: Adobe Illustrator 24.0.1, SVG Export Plug-In . SVG Version: 6.00 Build 0)  -->
<svg version="1.1" id="图层_1" xmlns="http://www.w3.org/2000/svg" xmlns:xlink="http://www.w3.org/1999/xlink" x="0px" y="0px"
	 viewBox="0 0 77.5 63" style="enableBackground:new 0 0 77.5 63;" xml:space="preserve">
<style type="text/css">
	.st0{fill:url(#椭圆_600_1_);}
	.st1{fill:#00b144;}
</style>
<g id="组_29154" transform="translate(-1212.501 13133.045)">
	<g id="组_29108" transform="translate(17.518 -14030.818)">
		
			<linearGradient id="椭圆_600_1_" gradientUnits="userSpaceOnUse" x1="703.9841" y1="1461.7992" x2="704.7432" y2="1463.0251" gradientTransform="matrix(59.202 0 0 -59.202 -40431.0781 87463.5)">
			<stop  offset="0" style="stop-color:#00b144;stop-opacity:9.800000e-02"/>
			<stop  offset="1" style="stop-color:#00b144"/>
		</linearGradient>
		<circle id="椭圆_600" class="st0" cx="1242.9" cy="927.4" r="29.6"/>
		<g id="组_29107" transform="translate(18398.68 16650.518)">
			<path id="路径_57642" class="st1" d="M-17192.7-15689.7c-6.1,0-11-4.9-11-11c0-6.1,4.9-11,11-11c6.1,0,11,4.9,11,11
				c0,2.9-1.2,5.7-3.2,7.8C-17186.9-15690.9-17189.7-15689.7-17192.7-15689.7z M-17192.7-15709.3c-4.7,0-8.5,3.8-8.5,8.5
				c0,4.7,3.8,8.5,8.5,8.5c4.7,0,8.5-3.8,8.5-8.5l0,0C-17184.1-15705.5-17187.9-15709.3-17192.7-15709.3L-17192.7-15709.3z"/>
			<path id="路径_57641" class="st1" d="M-17169.2-15689.7c-1.5,0-3-0.5-4.2-1.4c-1.3-1-2.2-2.5-2.5-4.1l-2.7-14.3
				c-0.3-1.5-1.3-2.7-2.7-3.2l-13.6-5.1c-1.5-0.5-2.7-1.5-3.5-2.9c-1.4-2.5-1.2-5.6,0.7-7.9c1-1.2,2.4-2,3.9-2.2l35.5-6.4
				c0.4-0.1,0.8-0.1,1.2-0.1c2.2,0,4.2,1.1,5.5,2.9c1.3,1.8,1.6,4.1,0.8,6.1l-12.2,34
				C-17163.8-15691.5-17166.4-15689.7-17169.2-15689.7L-17169.2-15689.7z M-17157-15734.7c-0.3,0-0.5,0-0.8,0.1l-35.5,6.4
				c-2.3,0.4-3.8,2.6-3.4,4.9c0.3,1.5,1.3,2.7,2.7,3.2l13.6,5.1c2.2,0.8,3.8,2.7,4.3,5l2.7,14.3c0.4,2,2.1,3.5,4.2,3.4
				c1.8,0,3.4-1.1,4-2.8l12.2-34c0.5-1.3,0.3-2.7-0.5-3.9C-17154.4-15734-17155.7-15734.7-17157-15734.7L-17157-15734.7z"/>
		</g>
	</g>
</g>
</svg>
