<svg xmlns="http://www.w3.org/2000/svg" xmlns:xlink="http://www.w3.org/1999/xlink" width="41.677" height="77.145" viewBox="0 0 41.677 77.145">
  <defs>
    <linearGradient id="linear-gradient" x1="0.5" y1="0.354" x2="0.5" y2="2.364" gradientUnits="objectBoundingBox">
      <stop offset="0" stop-color="#00b144" stop-opacity="0.098"/>
      <stop offset="1" stop-color="#00b144"/>
    </linearGradient>
  </defs>
  <g id="Group_29090" data-name="Group 29090" transform="translate(-640.118 -484.749)">
    <path id="Path_57533" data-name="Path 57533" d="M228.188,159.144a1.625,1.625,0,0,1,1.6-1.6h7.727a1.63,1.63,0,0,1,0,3.261h-7.751a1.631,1.631,0,0,1-1.574-1.625Z" transform="translate(427.291 394.859)" fill="#00b144"/>
    <path id="Union_31" data-name="Union 31" d="M19308.406,16524.352a2.735,2.735,0,0,1-1.916-.7,2.305,2.305,0,0,1-.756-1.77V16503.6a2.419,2.419,0,0,1,.926-1.936,3.166,3.166,0,0,1,2.119-.781h2.508a3.6,3.6,0,0,1,2.283.758,2.382,2.382,0,0,1,.971,1.959v18.115a2.571,2.571,0,0,1-.762,1.852,2.477,2.477,0,0,1-1.834.781Zm-10.729,0a2.712,2.712,0,0,1-1.916-.7,2.291,2.291,0,0,1-.762-1.77v-11.5a2.422,2.422,0,0,1,.928-1.934,3.167,3.167,0,0,1,2.119-.781h2.508a3.57,3.57,0,0,1,2.283.762,2.376,2.376,0,0,1,.971,1.953v11.336a2.571,2.571,0,0,1-.762,1.852,2.48,2.48,0,0,1-1.834.781Zm21.354-.02a2.9,2.9,0,0,1-2.1-.8,2.627,2.627,0,0,1-.818-1.953v-28.111a2.262,2.262,0,0,1,.285-1.174,2.345,2.345,0,0,1,.742-.762,3.194,3.194,0,0,1,1.027-.406,5.506,5.506,0,0,1,1.15-.127h2.881a2.75,2.75,0,0,1,1.877.719,2.617,2.617,0,0,1,.8,2.041v28.145a2.477,2.477,0,0,1-.66,1.668,2.218,2.218,0,0,1-1.77.762Z" transform="translate(-18648.969 -15985.801)" stroke="rgba(0,0,0,0)" strokeWidth="1" fill="url(#linear-gradient)"/>
    <path id="Path_57537" data-name="Path 57537" d="M226.477,187.278a9.065,9.065,0,0,1-9.054-9.055V119.188a9.065,9.065,0,0,1,9.054-9.055h23.567a9.066,9.066,0,0,1,9.055,9.055v59.035a9.066,9.066,0,0,1-9.055,9.055Zm0-73.813a5.729,5.729,0,0,0-5.722,5.723v59.026a5.73,5.73,0,0,0,5.722,5.725h23.576a5.731,5.731,0,0,0,5.718-5.468V119.18a5.73,5.73,0,0,0-5.725-5.722h-4.4v.723a1.828,1.828,0,0,1-1.825,1.827H232.7a1.829,1.829,0,0,1-1.825-1.827v-.716Z" transform="translate(422.695 374.616)" fill="#00b144"/>
  </g>
</svg>
