<svg xmlns="http://www.w3.org/2000/svg" width="24" height="24" viewBox="0 0 24 24">
  <defs>
    <style>
      .cls-1 {
        fill: none;
        opacity: 0;
      }

      .cls-2 {
        fill: #6d7987;
      }
    </style>
  </defs>
  <g id="vuesax_bold_ticket-star" data-name="vuesax/bold/ticket-star" transform="translate(-556 -572)">
    <g id="ticket-star">
      <path id="Vector" class="cls-1" d="M0,0H24V24H0Z" transform="translate(556 572)"/>
      <g id="vuesax_bold_ticket-discount" data-name="vuesax/bold/ticket-discount" transform="translate(-192)">
        <g id="ticket-discount">
          <path id="Vector-2" data-name="Vector" class="cls-2" d="M19.3,6.98a.7.7,0,0,0,.7-.7V5.35C20,1.25,18.75,0,14.65,0H5.35C1.25,0,0,1.25,0,5.35v.47a.7.7,0,0,0,.7.7A1.63,1.63,0,0,1,2.33,8.15,1.622,1.622,0,0,1,.7,9.77a.7.7,0,0,0-.7.7v.47c0,4.1,1.25,5.35,5.35,5.35h9.3c4.1,0,5.35-1.25,5.35-5.35a.7.7,0,0,0-.7-.7,1.63,1.63,0,0,1,0-3.26ZM7,5.02a1,1,0,1,1-1,1A1,1,0,0,1,7,5.02Zm6,7a1,1,0,1,1,.99-1A.988.988,0,0,1,13,12.02Zm.9-6.4L7.17,12.35a.748.748,0,0,1-1.06,0,.754.754,0,0,1,0-1.06l6.73-6.73A.75.75,0,0,1,13.9,5.62Z" transform="translate(750 575.86)"/>
          <path id="Vector-3" data-name="Vector" class="cls-1" d="M0,0H24V24H0Z" transform="translate(748 572)"/>
        </g>
      </g>
    </g>
  </g>
</svg>
