<svg xmlns="http://www.w3.org/2000/svg" xmlns:xlink="http://www.w3.org/1999/xlink" width="41.678" height="77.145" viewBox="0 0 41.678 77.145">   
  <defs>     
    <linearGradient id="linear-gradient" x1="0.201" y1="0.5" x2="1.65" y2="0.5" gradientUnits="objectBoundingBox">       
      <stop offset="0" stop-color="#00b144" stop-opacity="0.098"/>       
      <stop offset="1" stop-color="#00b144"/>     
    </linearGradient>     
    <linearGradient id="linear-gradient-2" x1="0.67" y1="-0.384" x2="-0.835" y2="-0.317" xlink:href="#linear-gradient"/>     
    <linearGradient id="linear-gradient-3" x1="0.5" y1="0.405" x2="0.5" y2="2.248" xlink:href="#linear-gradient"/>   
  </defs>   
  <g id="Group_29089" data-name="Group 29089" transform="translate(-0.001 0)">     
    <path id="Path_57576" data-name="Path 57576" d="M52.561,409.823,47.694,406.4a.959.959,0,0,0-1.511.785v1.348h-12.2a.978.978,0,0,0-.977.977v2.2a.977.977,0,0,0,.977.977h12.2v1.35a.959.959,0,0,0,1.511.783l4.867-3.426A.959.959,0,0,0,52.561,409.823Z" transform="translate(-22.146 -393.195)" fill="url(#linear-gradient)"/>     
    <path id="Path_57577" data-name="Path 57577" d="M33.411,443.567l4.867,3.426a.958.958,0,0,0,1.51-.785V444.86h12.2a.977.977,0,0,0,.977-.977v-2.2a.978.978,0,0,0-.977-.977h-12.2v-1.348a.958.958,0,0,0-1.51-.785L33.411,442A.958.958,0,0,0,33.411,443.567Z" transform="translate(-22.147 -379.457)" fill="url(#linear-gradient-2)"/>     
    <path id="Path_57578" data-name="Path 57578" d="M34.451,474.237a9.065,9.065,0,0,1-9.055-9.057V406.147a9.064,9.064,0,0,1,9.055-9.055H58.017a9.065,9.065,0,0,1,9.057,9.055v59.033a9.067,9.067,0,0,1-9.057,9.057Zm0-73.813a5.729,5.729,0,0,0-5.723,5.724v59.026a5.73,5.73,0,0,0,5.723,5.724H58.026a5.731,5.731,0,0,0,5.718-5.467V406.139a5.731,5.731,0,0,0-5.725-5.723h-4.4v.725a1.828,1.828,0,0,1-1.825,1.825H40.671a1.827,1.827,0,0,1-1.825-1.825v-.716Z" transform="translate(-25.395 -397.092)" fill="#00b144"/>     
    <ellipse id="椭圆_600" data-name="椭圆 600" cx="11.935" cy="11.935" rx="11.935" ry="11.935" transform="translate(8.906 27.941)" fill="url(#linear-gradient-3)"/>     
    <path id="Path_57612" data-name="Path 57612" d="M30.291-38.856a.626.626,0,0,1-.626-.625v-.972L29.4-40.53a2.942,2.942,0,0,1-2.135-2.808.627.627,0,0,1,.626-.625.627.627,0,0,1,.626.625A1.684,1.684,0,0,0,30.2-41.656a1.684,1.684,0,0,0,1.681-1.682A1.684,1.684,0,0,0,30.2-45.019c.013-.005-.022-.013-.059-.017a3.029,3.029,0,0,1-2.875-3.011A3.023,3.023,0,0,1,29.321-50.9l.25-.085v-.792A.626.626,0,0,1,30.2-52.4a.626.626,0,0,1,.626.625v.75l.271.075a3.03,3.03,0,0,1,2.226,2.9.626.626,0,0,1-.626.625.626.626,0,0,1-.626-.625,1.779,1.779,0,0,0-1.777-1.777,1.779,1.779,0,0,0-1.777,1.777,1.779,1.779,0,0,0,1.777,1.777c-.013.006.022.014.059.018a2.934,2.934,0,0,1,2.779,2.915,2.934,2.934,0,0,1-1.966,2.755l-.247.087v1.014A.626.626,0,0,1,30.291-38.856Z" transform="translate(-9.453 85.505)" fill="#00b144"/>   
  </g> 
</svg>
