<svg xmlns="http://www.w3.org/2000/svg" xmlns:xlink="http://www.w3.org/1999/xlink" width="74.6" height="56.072" viewBox="0 0 74.6 56.072">
  <defs>
    <linearGradient id="linear-gradient" x1="1.007" y1="0.5" x2="-0.789" y2="0.5" gradientUnits="objectBoundingBox">
      <stop offset="0" stop-color="#00b144" stop-opacity="0.098"/>
      <stop offset="1" stop-color="#00b144"/>
    </linearGradient>
    <linearGradient id="linear-gradient-3" x1="0.875" y1="0.5" x2="-0.918" y2="0.5" xlink:href="#linear-gradient"/>
  </defs>
  <g id="Group_29058" data-name="Group 29058" transform="translate(-0.001 0)">
    <path id="Path_57481" data-name="Path 57481" d="M919.739,41a2.979,2.979,0,0,1,1.577.387,3.113,3.113,0,0,1,1.025,1,4.212,4.212,0,0,1,.554,1.384,7.44,7.44,0,0,1,.165,1.55v3.873a3.646,3.646,0,0,1-.969,2.517,3.488,3.488,0,0,1-2.738,1.079H881.5a3.347,3.347,0,0,1-2.24-.885,2.983,2.983,0,0,1-1.025-2.379V44.928a3.877,3.877,0,0,1,1.079-2.823A3.531,3.531,0,0,1,881.946,41Z" transform="translate(-878.238 -11.888)" fill="url(#linear-gradient)"/>
    <path id="Path_57482" data-name="Path 57482" d="M919.352,31.422a3.63,3.63,0,0,1,1.688.36,3.806,3.806,0,0,1,1.161.913,3.22,3.22,0,0,1,.664,1.273,5.282,5.282,0,0,1,.194,1.383v3.1a4.173,4.173,0,0,1-.858,2.683,3.578,3.578,0,0,1-2.961,1.079h-37.46a3.333,3.333,0,0,1-2.517-1.079,3.412,3.412,0,0,1-1.025-2.406V34.852a3.357,3.357,0,0,1,.969-2.434,3.221,3.221,0,0,1,2.407-1Z" transform="translate(-878.238 -15.977)" fill="url(#linear-gradient)"/>
    <path id="Path_57483" data-name="Path 57483" d="M923.573,21.107a3.27,3.27,0,0,1,2.6,1.246,4.283,4.283,0,0,1,1.052,2.85v3.375a4.817,4.817,0,0,1-1.023,3.071,3.2,3.2,0,0,1-2.629,1.3H885.89a3.452,3.452,0,0,1-2.49-1.023,3.312,3.312,0,0,1-1.05-2.463V24.7a3.656,3.656,0,0,1,.94-2.573,3.091,3.091,0,0,1,2.379-1.023Z" transform="translate(-876.483 -20.381)" fill="url(#linear-gradient-3)"/>
    <path id="椭圆_1761" data-name="椭圆 1761" d="M21.362-1A22.362,22.362,0,0,1,37.175,37.175,22.362,22.362,0,0,1,5.55,5.55,22.216,22.216,0,0,1,21.362-1Zm0,41.871A19.508,19.508,0,1,0,1.854,21.362,19.53,19.53,0,0,0,21.362,40.871Z" transform="translate(30.876 12.346)" fill="#00b144"/>
    <path id="Path_57511" data-name="Path 57511" d="M911.832,20.6" transform="translate(-863.896 -20.598)"/>
    <path id="Path_57608" data-name="Path 57608" d="M32.358-29.611A1.054,1.054,0,0,1,31.3-30.663V-32.3l-.45-.128a4.95,4.95,0,0,1-3.591-4.725A1.054,1.054,0,0,1,28.315-38.2a1.055,1.055,0,0,1,1.054,1.052,2.833,2.833,0,0,0,2.83,2.83,2.833,2.833,0,0,0,2.829-2.83A2.833,2.833,0,0,0,32.2-39.979c.022-.009-.037-.022-.1-.029a5.1,5.1,0,0,1-4.837-5.067,5.086,5.086,0,0,1,3.462-4.8l.42-.143V-51.35A1.054,1.054,0,0,1,32.2-52.4a1.054,1.054,0,0,1,1.052,1.052v1.261l.455.127a5.1,5.1,0,0,1,3.746,4.886A1.053,1.053,0,0,1,36.4-44.022a1.053,1.053,0,0,1-1.052-1.052,2.994,2.994,0,0,0-2.989-2.989,2.994,2.994,0,0,0-2.989,2.989,2.993,2.993,0,0,0,2.989,2.989c-.022.01.037.024.1.03a4.936,4.936,0,0,1,4.676,4.905,4.937,4.937,0,0,1-3.308,4.635l-.416.147v1.706A1.053,1.053,0,0,1,32.358-29.611Z" transform="translate(20.307 75.259)" fill="#00b144"/>
  </g>
</svg>
