<?xml version="1.0" encoding="utf-8"?>
<!-- Generator: Adobe Illustrator 24.0.1, SVG Export Plug-In . SVG Version: 6.00 Build 0)  -->
<svg version="1.1" id="图层_1" xmlns="http://www.w3.org/2000/svg" xmlns:xlink="http://www.w3.org/1999/xlink" x="0px" y="0px"
	 viewBox="0 0 94.2 118" style="enableBackground:new 0 0 94.2 118;" xml:space="preserve">
<style type="text/css">
	.st0{fill:none;stroke:#FFFFFF;strokeWidth:3;strokeMiterlimit:10;}
	.st1{fill:#FFFFFF;}
	.st2{fill:none;stroke:#FFFFFF;strokeWidth:2;strokeMiterlimit:10;}
	.st3{fontFamily:'AdobeArabic-Regular';}
	.st4{fontSize:22px;}
</style>
<g id="组_29153" transform="translate(-1827.5 12908.5)">
	<g id="组_28993" transform="translate(-1020 -14826)">
		<path id="路径_57063" class="st0" d="M2916.8,2013.2v14.1c0,3.7-3,6.7-6.7,6.7h-54.4c-3.7,0-6.7-3-6.7-6.7v-101.6
			c0-3.7,3-6.7,6.7-6.7h54.4c3.7,0,6.7,3,6.7,6.7v23.8"/>
		<path id="矩形_21261" class="st1" d="M2865,1919h39l0,0v2.5c0,1.9-1.6,3.5-3.5,3.5l0,0h-32.1c-1.9,0-3.5-1.6-3.5-3.5V1919
			L2865,1919z"/>
		<path id="路径_57064" class="st0" d="M2903.3,2003.2c3,2.5,6.5,4.4,10.2,5.8l1.3,0.4l1.3-0.4c8-2.8,18.5-10.6,21.6-23.5
			c3.5-14.3,2.2-22.3,2.2-22.6l-0.4-2.4l-2.4-0.7c-0.3-0.1-3-0.9-10-2.7c-7.8-2-11.5-2.8-11.5-2.8l-0.8-0.2l-0.8,0.2
			c0,0-3.7,0.7-11.5,2.8c-7.1,1.8-9.7,2.6-10,2.7l-2.4,0.7l-0.4,2.4c-0.1,0.3-1.3,8.3,2.2,22.6"/>
		<path id="路径_57065" class="st1" d="M2935.1,1967.3c0-1.8-1.2-3.4-3-3.9c-1.5-0.4-3.5-1-6.3-1.7c-5.3-1.4-8.6-2.1-10.2-2.5
			c-0.6-0.1-1.2-0.1-1.8,0c-1.6,0.3-4.9,1.1-10.2,2.5c-2.8,0.7-4.9,1.3-6.4,1.7c-1.8,0.5-3,2.1-3,4c0.1,5.7,0.9,11.4,2.3,17
			c2.4,9.9,9.8,16.3,16.3,19.2c1.2,0.6,2.6,0.6,3.8,0c6.5-2.9,13.9-9.3,16.3-19.2C2934.4,1978.8,2935.1,1973,2935.1,1967.3z
			 M2915.2,1989.4c-5.9,0-10.7-4.8-10.7-10.7c0-5.9,4.8-10.7,10.7-10.7c5.9,0,10.7,4.8,10.7,10.7l0,0
			C2925.9,1984.6,2921.1,1989.4,2915.2,1989.4z"/>
		<path id="路径_57066" class="st2" d="M2908.4,1977.8l4.8,4.2l8.1-9.4"/>
		<text transform="matrix(1 0 0 1 2862.936 1988.827)" class="st1 st3 st4">*</text>
		<text transform="matrix(1 0 0 1 2871.335 1988.827)" class="st1 st3 st4">*</text>
		<text transform="matrix(1 0 0 1 2879.7339 1988.827)" class="st1 st3 st4">*</text>
		<path id="路径_57067" class="st0" d="M2898.4,1990.4h-42v-16.8h15.8"/>
	</g>
</g>
</svg>
