<svg xmlns="http://www.w3.org/2000/svg" xmlns:xlink="http://www.w3.org/1999/xlink" width="70.121" height="69.504" viewBox="0 0 70.121 69.504">
  <defs>
    <linearGradient id="linear-gradient" x1="0.5" y1="0.376" x2="1.259" y2="-0.85" gradientUnits="objectBoundingBox">
      <stop offset="0" stop-color="#00b144" stop-opacity="0.098"/>
      <stop offset="1" stop-color="#00b144"/>
    </linearGradient>
  </defs>
  <g id="Group_29102" data-name="Group 29102" transform="translate(-789 -894.226)">
    <circle id="椭圆_600" data-name="椭圆 600" cx="29.601" cy="29.601" r="29.601" transform="translate(799.918 894.226)" fill="url(#linear-gradient)"/>
    <path id="Path_57626" data-name="Path 57626" d="M48.533,73.374a5.013,5.013,0,0,1-2.353-.582A5.067,5.067,0,0,1,43.761,70l-.184-.515H29.918c-4.2,0-7.283-1.095-9.15-3.251a7.82,7.82,0,0,1-1.856-4.947V47.254a3.9,3.9,0,0,1,3.9-3.9h.683l.206-.673a22.613,22.613,0,0,1,45-.026l.069.7h.7a3.92,3.92,0,0,1,4.017,3.9V61.288a3.9,3.9,0,0,1-3.9,3.9H64.906a3.906,3.906,0,0,1-3.9-3.9V47.256a3.889,3.889,0,0,1,3.781-3.9l.853-.026-.106-.846a19.488,19.488,0,0,0-38.671,0l-.1.848.85.025a3.88,3.88,0,0,1,3.78,3.9V58.334a1.563,1.563,0,0,1-3.125,0v-9.9a1.945,1.945,0,0,0-1.942-1.944l-2.345,0a1.948,1.948,0,0,0-1.946,1.948l.005,12.86a4.655,4.655,0,0,0,1.09,2.9c1.269,1.461,3.49,2.17,6.789,2.17H43.831l.219-.414a5.063,5.063,0,0,1,4.494-2.714,5.071,5.071,0,0,1,4.484,7.428A5.063,5.063,0,0,1,48.533,73.374Zm.006-8.185a3.113,3.113,0,1,0,2.2.912,3.118,3.118,0,0,0-2.2-.912Zm15.593-5.075a1.944,1.944,0,0,0,1.942,1.95h2.347a1.949,1.949,0,0,0,1.945-1.949l-.005-11.688a1.942,1.942,0,0,0-1.941-1.948H66.076a1.948,1.948,0,0,0-1.945,1.948l0,11.688Z" transform="translate(770.088 890.355)" fill="#00b144"/>
  </g>
</svg>
