<svg width="17" height="18" viewBox="0 0 17 18" fill="none" xmlns="http://www.w3.org/2000/svg">
<g id="tiktok.svg">
<g id="Group">
<g id="Group_2">
<path id="Vector" d="M13.9394 1.85938H3.05938C2.122 1.85938 1.35938 2.622 1.35938 3.55938V14.4394C1.35938 15.3768 2.122 16.1394 3.05938 16.1394H13.9394C14.8768 16.1394 15.6394 15.3768 15.6394 14.4394V3.55938C15.6394 2.622 14.8768 1.85938 13.9394 1.85938ZM12.5814 8.0892C12.5042 8.09633 12.426 8.1011 12.3468 8.1011C11.455 8.1011 10.6713 7.64244 10.2154 6.94917C10.2154 8.76783 10.2154 10.8371 10.2154 10.8718C10.2154 12.4728 8.91724 13.7709 7.31617 13.7709C5.71512 13.7709 4.417 12.4728 4.417 10.8718C4.417 9.2707 5.71512 7.97257 7.31617 7.97257C7.3767 7.97257 7.43586 7.97801 7.49536 7.98176V9.41043C7.43586 9.4033 7.37738 9.39242 7.31617 9.39242C6.49882 9.39242 5.83649 10.0547 5.83649 10.8721C5.83649 11.6895 6.49882 12.3518 7.31617 12.3518C8.13354 12.3518 8.85536 11.7078 8.85536 10.8905C8.85536 10.8582 8.86964 4.2285 8.86964 4.2285H10.2351C10.3636 5.44944 11.3493 6.41299 12.5814 6.5014V8.0892Z" fill="#00B144"/>
</g>
</g>
</g>
</svg>
