<svg xmlns="http://www.w3.org/2000/svg" width="19.186" height="15.593" viewBox="0 0 19.186 15.593">
  <path id="Path_21762" data-name="Path 21762" d="M1030.8-265.28a11.124,11.124,0,0,0,11.2-11.2c0-.171,0-.34-.012-.509a7.992,7.992,0,0,0,1.964-2.038,7.875,7.875,0,0,1-2.26.62,3.951,3.951,0,0,0,1.731-2.177,7.876,7.876,0,0,1-2.5.955,3.935,3.935,0,0,0-2.874-1.244,3.937,3.937,0,0,0-3.937,3.936,3.931,3.931,0,0,0,.1.9,11.173,11.173,0,0,1-8.113-4.113,3.923,3.923,0,0,0-.533,1.979,3.933,3.933,0,0,0,1.752,3.276,3.9,3.9,0,0,1-1.783-.493c0,.017,0,.034,0,.05a3.939,3.939,0,0,0,3.159,3.859,3.95,3.95,0,0,1-1.037.138,3.931,3.931,0,0,1-.741-.071,3.942,3.942,0,0,0,3.677,2.734,7.9,7.9,0,0,1-4.889,1.685,8.071,8.071,0,0,1-.939-.054,11.145,11.145,0,0,0,6.034,1.768" transform="translate(-1024.768 280.873)" fill="#00b144"/>
</svg>
