<?xml version="1.0" encoding="utf-8"?>
<!-- Generator: Adobe Illustrator 24.0.1, SVG Export Plug-In . SVG Version: 6.00 Build 0)  -->
<svg version="1.1" id="图层_1" xmlns="http://www.w3.org/2000/svg" xmlns:xlink="http://www.w3.org/1999/xlink" x="0px" y="0px"
	 viewBox="0 0 74.1 69.8" style="enableBackground:new 0 0 74.1 69.8;" xml:space="preserve">
<style type="text/css">
	.st0{fill:url(#椭圆_600_1_);}
	.st1{fill:#00b144;}
</style>
<g id="组_29155" transform="translate(-1776.368 13133.045)">
	<g id="组_29107" transform="translate(712.844 -14030.818)">
		
			<linearGradient id="椭圆_600_1_" gradientUnits="userSpaceOnUse" x1="570.559" y1="1464.8499" x2="571.318" y2="1466.0758" gradientTransform="matrix(59.202 0 0 -59.202 -32666.8926 87644.1094)">
			<stop  offset="0" style="stop-color:#00b144;stop-opacity:9.800000e-02"/>
			<stop  offset="1" style="stop-color:#00b144"/>
		</linearGradient>
		<circle id="椭圆_600" class="st0" cx="1108.1" cy="927.4" r="29.6"/>
		<g id="组_29105" transform="translate(1063.523 907.933)">
			<path id="路径_57636" class="st1" d="M26,59.7c-0.8,0-1.5-0.7-1.5-1.5v-10c0-0.8,0.7-1.5,1.5-1.5s1.5,0.7,1.5,1.5v10
				C27.4,59,26.8,59.7,26,59.7z"/>
			<path id="路径_57637" class="st1" d="M16.1,55.7c-0.8,0-1.5-0.7-1.5-1.5v-4.1c0-0.8,0.7-1.5,1.5-1.5c0.8,0,1.5,0.7,1.5,1.5
				c0,0,0,0,0,0v4.1C17.6,55.1,16.9,55.7,16.1,55.7z"/>
			<path id="路径_57638" class="st1" d="M35.8,55.7c-0.8,0-1.5-0.7-1.5-1.5v-4.1c0-0.8,0.7-1.5,1.5-1.5s1.5,0.7,1.5,1.5l0,0v4.1
				C37.3,55.1,36.6,55.7,35.8,55.7z"/>
			<path id="路径_57639" class="st1" d="M3.8,43.3c-2.1,0-3.8-1.7-3.8-3.8v-4.7c0-1.3,0.6-2.4,1.7-3.1l9-6V24
				c0-10.9,9-19.8,12.8-23.1c1.4-1.2,3.4-1.2,4.8,0c3.9,3.3,12.9,12,12.9,23.1v1.9l9,5.9c1.1,0.7,1.7,1.9,1.7,3.1v4.7
				c0,1-0.4,1.9-1,2.6c-0.7,0.7-1.7,1.1-2.7,1.1L3.8,43.3z M41.2,40.4h7.7v-6l-7.7-5.1V40.4z M25.3,3.2c-3.5,3-11.7,11.1-11.7,20.7
				v16.5h24.8V22.7C37.6,13.4,29.9,6,26.6,3.2l-0.7-0.6L25.3,3.2z M2.9,34.5v6h7.7V29.3L2.9,34.5z"/>
			<path id="路径_57640" class="st1" d="M26,27.4c-3.4,0-6.1-2.7-6.1-6.1c0-3.4,2.7-6.1,6.1-6.1c3.4,0,6.1,2.7,6.1,6.1
				c0,0,0,0,0,0C32.1,24.7,29.4,27.4,26,27.4z M26,18.2c-1.7,0-3.2,1.4-3.2,3.2c0,1.7,1.4,3.2,3.2,3.2s3.2-1.4,3.2-3.2
				C29.2,19.6,27.8,18.2,26,18.2z"/>
		</g>
	</g>
</g>
</svg>
