<svg width="29" height="30" viewBox="0 0 29 30" fill="none" xmlns="http://www.w3.org/2000/svg">
<path d="M9.21151 25.4181C9.17564 25.4181 9.12781 25.442 9.09193 25.442C6.76669 24.2826 4.88199 22.398 3.72266 20.0727C3.72266 20.0368 3.74657 19.989 3.74657 19.9531C5.21196 20.3769 6.70145 20.7123 8.20702 20.9576C8.45678 22.4623 8.79216 23.9516 9.21151 25.4181Z" fill="black"/>
<path d="M25.1036 20.0847C23.9056 22.4713 21.95 24.3933 19.543 25.5496C20.0042 24.044 20.3677 22.5101 20.6312 20.9576C22.1331 20.7136 23.6186 20.3781 25.0797 19.9531C25.0677 20.001 25.1036 20.0488 25.1036 20.0847Z" fill="black"/>
<path d="M25.1992 9.62502C23.7006 9.16806 22.1749 8.80463 20.6312 8.53682C20.3761 6.99047 20.0125 5.46401 19.543 3.96875C22.0188 5.15315 24.0148 7.14915 25.1992 9.62502Z" fill="black"/>
<path d="M9.20952 4.11009C8.78847 5.57134 8.45701 7.05694 8.21699 8.55858C6.66358 8.81223 5.12934 9.17182 3.625 9.63483C4.78134 7.22776 6.70331 5.27215 9.08994 4.07422C9.12582 4.07422 9.17365 4.11009 9.20952 4.11009Z" fill="black"/>
<path d="M18.5852 8.28964C15.8116 7.97872 13.0119 7.97872 10.2383 8.28964C10.5248 6.64346 10.9325 5.02068 11.458 3.43457C11.4719 3.34752 11.4799 3.25962 11.4819 3.17149C12.4404 2.93206 13.4239 2.80762 14.4117 2.80078C15.3956 2.80761 16.3752 2.93207 17.3296 3.17149C17.3356 3.25988 17.3476 3.34778 17.3654 3.43457C17.8896 5.02109 18.2973 6.64376 18.5852 8.28964Z" fill="black"/>
<path d="M7.94198 18.9328C6.2955 18.6478 4.67262 18.2401 3.08691 17.7131C2.99986 17.6992 2.91197 17.6912 2.82383 17.6892C2.58441 16.7307 2.45996 15.7472 2.45312 14.7594C2.45996 13.7755 2.58441 12.7959 2.82383 11.8416C2.91223 11.8355 3.00012 11.8235 3.08691 11.8057C4.67464 11.2857 6.29701 10.8781 7.94198 10.5859C7.64302 13.3602 7.64302 16.1586 7.94198 18.9328Z" fill="black"/>
<path d="M26.3717 14.7594C26.3648 15.7472 26.2404 16.7307 26.001 17.6892C25.9128 17.6912 25.8249 17.6992 25.7379 17.7131C24.1497 18.2317 22.5275 18.6392 20.8828 18.9328C21.1937 16.1592 21.1937 13.3595 20.8828 10.5859C22.529 10.8724 24.1518 11.2801 25.7379 11.8057C25.8236 11.8293 25.9121 11.8414 26.001 11.8416C26.2396 12.7961 26.3641 13.7755 26.3717 14.7594Z" fill="black"/>
<path d="M18.5852 21.2266C18.3001 22.873 17.8924 24.4959 17.3654 26.0816C17.3476 26.1684 17.3356 26.2563 17.3296 26.3447C16.3752 26.5841 15.3956 26.7086 14.4117 26.7154C13.4239 26.7086 12.4404 26.5841 11.4819 26.3447C11.4799 26.2566 11.4719 26.1687 11.458 26.0816C10.938 24.4939 10.5304 22.8715 10.2383 21.2266C11.6234 21.392 13.0168 21.4798 14.4117 21.4896C15.8067 21.4802 17.2 21.3924 18.5852 21.2266Z" fill="black"/>
<path d="M18.913 19.2606C15.9245 19.638 12.9004 19.638 9.91195 19.2606C9.53456 16.2721 9.53456 13.2481 9.91195 10.2596C12.9004 9.88221 15.9245 9.88221 18.913 10.2596C19.2903 13.2481 19.2903 16.2721 18.913 19.2606Z" fill="black"/>
</svg>
