<svg width="240" height="240" viewBox="0 0 240 240" fill="none" xmlns="http://www.w3.org/2000/svg">
<path d="M76.5 209.1C76.2 209.1 75.8 209.3 75.5 209.3C56.0554 199.605 40.2948 183.844 30.6 164.4C30.6 164.1 30.8 163.7 30.8 163.4C43.0541 166.943 55.5098 169.748 68.1 171.8C70.1886 184.383 72.9932 196.836 76.5 209.1Z" fill="white"/>
<path d="M209.4 164.5C199.382 184.458 183.029 200.53 162.9 210.2C166.757 197.609 169.797 184.783 172 171.8C184.559 169.759 196.982 166.954 209.2 163.4C209.1 163.8 209.4 164.2 209.4 164.5Z" fill="white"/>
<path d="M210.2 77.0998C197.667 73.2785 184.909 70.2394 172 67.9998C169.867 55.0686 166.826 42.3037 162.9 29.7998C183.604 39.7042 200.296 56.3956 210.2 77.0998Z" fill="white"/>
<path d="M76.5 30.9001C72.9789 43.1197 70.2071 55.5428 68.2 68.1001C55.2098 70.2212 42.3798 73.2283 29.8 77.1001C39.4697 56.9713 55.542 40.6177 75.5 30.6001C75.8 30.6001 76.2 30.9001 76.5 30.9001Z" fill="white"/>
<path d="M154.9 65.9C131.706 63.3 108.294 63.3 85.0999 65.9C87.4956 52.134 90.9049 38.5637 95.2999 25.3C95.4161 24.572 95.483 23.837 95.4999 23.1C103.515 21.0978 111.739 20.0572 120 20C128.228 20.0571 136.419 21.0979 144.4 23.1C144.451 23.8392 144.551 24.5742 144.7 25.3C149.083 38.5671 152.492 52.1365 154.9 65.9Z" fill="white"/>
<path d="M65.9 154.9C52.1314 152.516 38.5603 149.107 25.3 144.7C24.572 144.584 23.837 144.517 23.1 144.5C21.0978 136.485 20.0572 128.261 20 120C20.0571 111.772 21.0979 103.581 23.1 95.6001C23.8392 95.5493 24.5742 95.4491 25.3 95.3001C38.5772 90.9516 52.1441 87.5432 65.9 85.1001C63.4 108.3 63.4 131.701 65.9 154.9Z" fill="white"/>
<path d="M220 120C219.943 128.261 218.902 136.485 216.9 144.5C216.163 144.517 215.428 144.584 214.7 144.7C201.419 149.037 187.853 152.445 174.1 154.9C176.7 131.706 176.7 108.294 174.1 85.1001C187.866 87.4957 201.436 90.905 214.7 95.3001C215.417 95.4978 216.157 95.5987 216.9 95.6001C218.896 103.582 219.937 111.773 220 120Z" fill="white"/>
<path d="M154.9 174.1C152.516 187.869 149.107 201.44 144.7 214.7C144.551 215.426 144.451 216.161 144.4 216.9C136.419 218.902 128.228 219.943 120 220C111.739 219.943 103.515 218.902 95.4999 216.9C95.483 216.163 95.4161 215.428 95.2999 214.7C90.9515 201.423 87.543 187.856 85.0999 174.1C96.6832 175.483 108.335 176.218 120 176.3C131.665 176.221 143.317 175.487 154.9 174.1Z" fill="white"/>
<path d="M157.63 157.63C132.639 160.786 107.351 160.786 82.36 157.63C79.2042 132.639 79.2042 107.351 82.36 82.3601C107.351 79.2042 132.639 79.2042 157.63 82.3601C160.786 107.351 160.786 132.639 157.63 157.63Z" fill="white"/>
</svg>
