<svg xmlns="http://www.w3.org/2000/svg" width="32" height="32" viewBox="0 0 32 32" fill="none">
<path d="M26.0145 7.7974L18.0945 3.22406C16.8012 2.4774 15.2012 2.4774 13.8945 3.22406L5.98786 7.7974C4.69453 8.54406 3.89453 9.93073 3.89453 11.4374V20.5574C3.89453 22.0507 4.69453 23.4374 5.98786 24.1974L13.9079 28.7707C15.2012 29.5174 16.8012 29.5174 18.1079 28.7707L26.0279 24.1974C27.3212 23.4507 28.1212 22.0641 28.1212 20.5574V11.4374C28.1079 9.93073 27.3079 8.5574 26.0145 7.7974ZM16.0012 9.78406C17.7212 9.78406 19.1079 11.1707 19.1079 12.8907C19.1079 14.6107 17.7212 15.9974 16.0012 15.9974C14.2812 15.9974 12.8945 14.6107 12.8945 12.8907C12.8945 11.1841 14.2812 9.78406 16.0012 9.78406ZM19.5745 22.2107H12.4279C11.3479 22.2107 10.7212 21.0107 11.3212 20.1174C12.2279 18.7707 13.9879 17.8641 16.0012 17.8641C18.0145 17.8641 19.7745 18.7707 20.6812 20.1174C21.2812 20.9974 20.6412 22.2107 19.5745 22.2107Z" fill="#F6F7FF"/>
</svg>