<svg width="17" height="18" viewBox="0 0 17 18" fill="none" xmlns="http://www.w3.org/2000/svg">
<g id="youtube.svg">
<g id="Group">
<g id="Group_2">
<path id="Vector" d="M15.265 5.42859C15.1295 4.68086 14.4841 4.13633 13.735 3.96633C12.6141 3.72859 10.5395 3.55859 8.295 3.55859C6.0518 3.55859 3.94407 3.72859 2.8218 3.96633C2.07406 4.13633 1.42727 4.64633 1.2918 5.42859C1.155 6.27859 1.01953 7.46859 1.01953 8.99859C1.01953 10.5286 1.155 11.7186 1.325 12.5686C1.4618 13.3163 2.10727 13.8609 2.855 14.0309C4.045 14.2686 6.085 14.4386 8.32953 14.4386C10.5741 14.4386 12.6141 14.2686 13.8041 14.0309C14.5518 13.8609 15.1973 13.3509 15.3341 12.5686C15.4695 11.7186 15.6395 10.4941 15.6741 8.99859C15.605 7.46859 15.435 6.27859 15.265 5.42859ZM6.45953 11.3786V6.61859L10.6073 8.99859L6.45953 11.3786Z" fill="#00B144"/>
</g>
</g>
</g>
</svg>
