<svg width="61" height="62" viewBox="0 0 61 62" fill="none" xmlns="http://www.w3.org/2000/svg">
<path d="M17.9912 61.0415C17.9912 59.2152 17.9828 57.3889 17.9924 55.5625C18.0269 49.2163 22.6434 43.9898 28.942 43.1559C29.0683 43.1392 29.1898 43.0892 29.4126 43.0284C23.9932 42.1158 21.1292 37.5268 21.614 33.232C22.1418 28.5631 25.9243 25.1797 30.5003 25.1797C35.0774 25.1797 38.848 28.5536 39.3841 33.2332C39.8666 37.4398 37.0848 42.098 31.5368 43.0367C32.2373 43.1726 32.7936 43.2619 33.3416 43.3894C38.9553 44.6939 42.9486 49.6737 43.0034 55.4434C43.0213 57.3091 43.007 59.1759 43.007 61.0415H17.9888H17.9912Z" fill="url(#paint0_linear_5173_216394)"/>
<path d="M3.69434 61.0373C3.79441 59.6374 3.67527 58.1769 4.03625 56.8485C5.0346 53.1804 7.52808 51.0109 11.2749 50.3044C11.3678 50.2866 11.4607 50.2628 11.7347 50.1996C11.3428 50.0912 11.1164 50.0257 10.8877 49.9673C7.45303 49.0964 5.10846 45.7678 5.50875 42.3308C5.92811 38.7293 8.89217 35.969 12.4162 35.8999C16.0641 35.8284 19.1199 38.3791 19.6846 41.9686C19.7179 42.1842 19.7394 42.4011 19.768 42.6179C19.8561 43.2922 19.6488 43.8021 19.1294 44.2953C17.7808 45.576 16.6943 47.0771 15.9628 48.7914C15.6947 49.4193 15.3052 49.735 14.6869 49.8732C14.3235 49.9542 13.9649 50.059 13.4586 50.1901C14.1257 50.3509 14.6642 50.4808 15.1908 50.6082C14.9656 51.7138 14.6154 52.7681 14.5594 53.838C14.4343 56.2338 14.4546 58.6367 14.4164 61.0373H3.69434Z" fill="url(#paint1_linear_5173_216394)"/>
<path d="M46.5836 61.0416C46.5467 58.6613 46.5681 56.2774 46.4442 53.9007C46.3882 52.8273 46.0439 51.7682 45.8116 50.6114C46.306 50.4922 46.8493 50.3612 47.4831 50.2075C46.891 50.03 46.3596 49.9168 45.8688 49.7071C45.6091 49.5951 45.3303 49.3581 45.2147 49.1067C44.357 47.222 43.1966 45.5541 41.7027 44.1281C41.3536 43.7945 41.2178 43.4478 41.2154 42.9796C41.1999 39.458 43.915 36.4427 47.5712 35.9411C50.9368 35.4789 54.3702 37.8139 55.2613 41.1688C56.3371 45.2193 53.8711 49.1698 49.7049 50.0741C49.6132 50.0943 49.5215 50.1134 49.4166 50.2254C49.693 50.2861 49.9706 50.3469 50.247 50.4076C54.3893 51.325 57.2735 54.8907 57.3021 59.1366C57.3069 59.7716 57.3021 60.4078 57.3021 61.0428H46.58L46.5836 61.0416Z" fill="url(#paint2_linear_5173_216394)"/>
<path d="M60.9989 20.1755C60.2733 20.8105 59.5395 21.4371 58.8235 22.0828C57.7632 23.0407 56.7303 24.0295 55.6533 24.9683C55.3007 25.2756 55.2423 25.577 55.3209 26.0047C55.7093 28.1503 56.075 30.3007 56.4455 32.4499C56.4622 32.544 56.4479 32.6441 56.4479 32.8049C54.873 31.9793 53.3349 31.168 51.791 30.3662C51.125 30.0208 50.4519 29.437 49.7776 29.4322C49.1295 29.4275 48.4731 30.0243 47.825 30.3639C46.2822 31.1704 44.7406 31.9805 43.1025 32.8407C43.2991 31.6755 43.4778 30.6093 43.6612 29.543C43.8721 28.3124 44.1116 27.0853 44.2831 25.8487C44.3188 25.5913 44.1854 25.2244 43.9996 25.0374C42.5009 23.5327 40.9712 22.0602 39.4522 20.5758C39.3152 20.4412 39.1865 20.2982 38.9888 20.0897C41.0295 19.7919 42.975 19.4369 44.936 19.2486C46.0439 19.1426 46.6801 18.7471 47.128 17.688C47.8988 15.8676 48.8543 14.1246 49.7776 12.2578C49.8979 12.4627 49.9896 12.5973 50.0623 12.7427C51.0202 14.6786 51.9685 16.6193 52.9418 18.5481C53.0431 18.7483 53.267 18.9925 53.4624 19.0211C55.9726 19.3868 58.4863 19.7156 61 20.054V20.1731L60.9989 20.1755Z" fill="url(#paint3_linear_5173_216394)"/>
<path d="M0.00119134 20.048C1.94547 19.7907 3.88974 19.5345 5.83521 19.276C5.87452 19.2713 5.91383 19.2474 5.95077 19.251C7.52096 19.4047 8.23696 18.5028 8.77544 17.1673C9.36754 15.7008 10.1526 14.3129 10.8555 12.8916C10.9496 12.7022 11.0557 12.5187 11.1951 12.2578C11.3333 12.5056 11.4429 12.6831 11.5346 12.869C12.4567 14.7346 13.3919 16.5943 14.2854 18.4731C14.4856 18.8936 14.756 19.0389 15.1849 19.0926C16.3059 19.2308 17.4234 19.4059 18.5421 19.5667C19.6596 19.7287 20.7782 19.8908 22.0196 20.0718C21.8254 20.2779 21.6932 20.4269 21.5514 20.5662C20.0599 22.0221 18.5778 23.4874 17.0672 24.923C16.7217 25.2518 16.6383 25.5592 16.7217 26.0178C17.1268 28.2397 17.4973 30.4663 17.8964 32.7882C17.6593 32.6822 17.4901 32.6167 17.3293 32.5321C15.4696 31.5552 13.6052 30.5843 11.7562 29.5871C11.369 29.3786 11.0724 29.3548 10.6697 29.5752C8.84216 30.57 6.99319 31.5254 5.15018 32.494C4.96314 32.5929 4.77253 32.6834 4.49494 32.8228C4.7761 31.1847 5.04058 29.6443 5.30625 28.1039C5.4373 27.3414 5.59336 26.5825 5.68986 25.8165C5.71726 25.5985 5.64935 25.2804 5.50044 25.1422C3.73248 23.4874 1.94189 21.8589 0.154875 20.2243C0.116752 20.1898 0.0524192 20.185 0 20.166C0 20.1266 0 20.0861 0 20.0468L0.00119134 20.048Z" fill="url(#paint4_linear_5173_216394)"/>
<path d="M23.8009 20.6868C23.9986 19.5217 24.1762 18.4542 24.3596 17.388C24.5705 16.1573 24.8099 14.9302 24.9815 13.6936C25.0172 13.4363 24.8838 13.0682 24.698 12.8823C23.1993 11.3788 21.6696 9.90633 20.1506 8.42191C20.0124 8.28729 19.8837 8.14314 19.6836 7.93465C21.7232 7.63682 23.6674 7.28179 25.6272 7.09356C26.7304 6.98753 27.3821 6.60749 27.8217 5.53886C28.5067 3.87574 29.3859 2.29125 30.1841 0.674599C30.2687 0.503046 30.3676 0.33864 30.4974 0.101562C30.6356 0.351745 30.744 0.530446 30.8358 0.717488C31.7567 2.58313 32.6895 4.44401 33.5818 6.32276C33.7808 6.74212 34.0488 6.88746 34.4777 6.94584C36.7282 7.2532 38.9762 7.58559 41.3196 7.92274C41.1195 8.13599 40.9944 8.28014 40.8574 8.41357C39.3944 9.84199 37.9445 11.2823 36.4589 12.6845C36.0539 13.067 35.9335 13.4184 36.0396 13.976C36.441 16.0787 36.7818 18.1921 37.1416 20.3032C37.157 20.3973 37.1439 20.4962 37.1439 20.6511C35.6214 19.8505 34.1346 19.0642 32.643 18.2886C31.9247 17.9157 31.1967 17.2855 30.4712 17.2807C29.7695 17.276 29.0619 17.9229 28.3602 18.2898C26.871 19.069 25.383 19.8529 23.7997 20.6844L23.8009 20.6868Z" fill="url(#paint5_linear_5173_216394)"/>
<defs>
<linearGradient id="paint0_linear_5173_216394" x1="30.5001" y1="25.1797" x2="30.5001" y2="61.0415" gradientUnits="userSpaceOnUse">
<stop stop-color="#00b144"/>
<stop offset="1" stop-color="#00b144" stop-opacity="0"/>
</linearGradient>
<linearGradient id="paint1_linear_5173_216394" x1="11.741" y1="35.8984" x2="11.741" y2="61.0373" gradientUnits="userSpaceOnUse">
<stop stop-color="#00b144"/>
<stop offset="1" stop-color="#00b144" stop-opacity="0"/>
</linearGradient>
<linearGradient id="paint2_linear_5173_216394" x1="49.2598" y1="35.8828" x2="49.2598" y2="61.0428" gradientUnits="userSpaceOnUse">
<stop stop-color="#00b144"/>
<stop offset="1" stop-color="#00b144" stop-opacity="0"/>
</linearGradient>
<linearGradient id="paint3_linear_5173_216394" x1="49.9944" y1="12.2578" x2="49.9944" y2="32.8407" gradientUnits="userSpaceOnUse">
<stop offset="0.225" stop-color="#00b144"/>
<stop offset="1" stop-color="#00b144" stop-opacity="0"/>
</linearGradient>
<linearGradient id="paint4_linear_5173_216394" x1="11.0098" y1="12.2578" x2="11.0098" y2="32.8228" gradientUnits="userSpaceOnUse">
<stop offset="0.225" stop-color="#00b144"/>
<stop offset="1" stop-color="#00b144" stop-opacity="0"/>
</linearGradient>
<linearGradient id="paint5_linear_5173_216394" x1="30.5016" y1="0.101562" x2="30.5016" y2="20.6868" gradientUnits="userSpaceOnUse">
<stop offset="0.225" stop-color="#00b144"/>
<stop offset="1" stop-color="#00b144" stop-opacity="0"/>
</linearGradient>
</defs>
</svg>
