<svg width="61" height="59" viewBox="0 0 61 59" fill="none" xmlns="http://www.w3.org/2000/svg">
<path d="M60.9984 48.0913V49.5164C60.9603 49.6273 60.9126 49.7365 60.8872 49.8505C60.3614 52.2083 58.5299 53.8599 56.1455 54.1228C53.9248 54.3682 51.7549 53.1173 50.7621 50.978C50.6049 50.6407 50.419 50.5742 50.0902 50.5742C46.9529 50.5837 43.8172 50.5884 40.6799 50.5694C40.2447 50.5663 39.9476 50.6945 39.6506 51.0065C37.2487 53.5242 34.6007 55.7585 31.7525 57.7569C30.8328 58.4029 30.1672 58.3966 29.2475 57.7521C26.3802 55.7443 23.7195 53.4957 21.305 50.9637C21.0365 50.6819 20.7665 50.5694 20.3773 50.5726C17.2606 50.5869 14.144 50.5884 11.0258 50.571C10.5969 50.5679 10.3777 50.6708 10.1839 51.0857C9.25937 53.0777 7.21497 54.2621 5.02919 54.1339C2.87836 54.0072 0.959454 52.5361 0.274811 50.4808C0.16997 50.1641 0.0905445 49.8379 0 49.5164C0 49.0414 0 48.5663 0 48.0913C0.0397125 47.9615 0.085779 47.8332 0.117549 47.7018C0.654462 45.3804 2.52095 43.7098 4.83857 43.477C7.10377 43.249 9.24189 44.4762 10.2331 46.6044C10.3824 46.9243 10.5492 47.0288 10.8923 47.0256C13.0559 47.0114 15.2194 47.0193 17.383 47.0161C17.5084 47.0161 17.6339 46.9939 17.8166 46.9765C17.7213 46.834 17.6737 46.7517 17.6165 46.6757C15.5578 43.9727 13.8025 41.0876 12.3903 37.9998C12.2473 37.6878 12.0583 37.6245 11.7501 37.6261C9.80422 37.6372 7.8599 37.6419 5.91399 37.6261C4.86399 37.6182 4.06497 36.8296 4.06338 35.8494C4.06021 34.8613 4.84969 34.0886 5.90604 34.0712C6.77972 34.0569 7.65339 34.068 8.52548 34.0664C9.24666 34.0664 9.96943 34.0664 10.7128 34.0664C10.2156 32.399 9.74386 30.814 9.26255 29.1972C6.97828 29.1972 4.69561 29.1608 2.41611 29.2131C1.30892 29.2416 0.494024 28.909 0 27.9019V26.9519C0.449546 25.94 1.22632 25.5822 2.32874 25.6186C4.19364 25.6803 6.06013 25.636 7.92662 25.636C8.13471 25.636 8.3428 25.636 8.57314 25.636C8.55566 25.4301 8.55407 25.3114 8.53501 25.1958C8.10294 22.4484 7.97109 19.6869 8.11247 16.911C8.17601 15.6664 8.57155 15.204 9.7391 14.8066C11.8772 14.0798 14.0058 13.3276 16.1328 12.5675C16.2996 12.5074 16.5315 12.3078 16.5347 12.1701C16.5649 10.8099 16.5522 9.44809 16.5522 8.01821C16.2789 8.01821 16.0677 8.01821 15.8548 8.01821C14.2663 8.01821 12.6778 8.03404 11.0893 8.0087C10.6207 8.00079 10.3681 8.1243 10.1473 8.57717C8.57949 11.7932 4.39856 12.5628 1.73941 10.1638C0.791073 9.30241 0.3177 8.19714 0 6.99845C0 6.48381 0 5.96918 0 5.45455C0.0333585 5.38646 0.082602 5.31996 0.098487 5.24712C0.625869 2.90832 2.41452 1.19658 4.6003 0.943223C7.09583 0.653447 9.13864 1.77772 10.2538 4.08801C10.4047 4.39996 10.5953 4.45855 10.8987 4.45696C13.0622 4.44904 15.2274 4.51397 17.3877 4.43479C19.4925 4.35879 20.255 5.05235 20.1422 7.17896C20.0786 8.37132 20.1311 9.57001 20.1311 10.8701C20.9714 10.4473 21.7196 10.0957 22.4439 9.70144C24.9379 8.34124 27.3619 6.8876 29.3237 4.77841C29.9925 4.05951 31.0536 4.14343 31.7716 4.85442C32.2783 5.35479 32.7787 5.86784 33.3283 6.31755C35.5332 8.1243 38.0144 9.48609 40.5767 10.7117C40.6545 10.7497 40.7482 10.7529 40.8705 10.7814C40.8705 9.33249 40.8689 7.92953 40.8705 6.52498C40.8721 5.13786 41.5552 4.45696 42.9578 4.4538C45.2595 4.45063 47.5629 4.43796 49.8646 4.46488C50.3618 4.47121 50.6255 4.35087 50.8527 3.87424C51.7867 1.90598 53.7962 0.773791 55.9819 0.911554C58.1486 1.04773 60.0008 2.45386 60.7061 4.50447C60.8141 4.818 60.9015 5.13786 60.9984 5.45455V6.99845C60.9682 7.04753 60.9174 7.09345 60.9095 7.14571C60.641 9.07597 58.9747 11.1741 56.3949 11.505C53.901 11.8249 51.9058 10.6848 50.716 8.37607C50.6239 8.19556 50.303 8.03562 50.0838 8.03246C48.4366 8.00395 46.7877 8.01662 45.1404 8.01662C44.9276 8.01662 44.7163 8.01662 44.4415 8.01662C44.4415 9.36891 44.4574 10.6499 44.4319 11.931C44.424 12.3189 44.5622 12.4773 44.9164 12.5976C47.053 13.326 49.18 14.0845 51.3149 14.8208C52.4205 15.2024 52.8716 15.6775 52.8669 16.8524C52.8573 19.0265 52.7716 21.1991 52.6842 23.3716C52.654 24.1111 52.519 24.8458 52.4269 25.636C54.5475 25.636 56.611 25.6787 58.6713 25.6186C59.7737 25.5869 60.5505 25.9384 61 26.9519V27.7832C60.6156 28.8425 59.842 29.2289 58.738 29.2099C56.557 29.1735 54.3728 29.2083 52.1918 29.1909C51.8026 29.1877 51.6612 29.3081 51.558 29.6897C51.2085 30.985 50.7971 32.2644 50.4126 33.5502C50.3666 33.707 50.3332 33.8685 50.2856 34.068C51.8439 34.068 53.3307 34.0648 54.8176 34.0712C55.0733 34.0712 55.3386 34.068 55.5848 34.1282C56.4283 34.3356 57.0129 35.159 56.935 35.9856C56.8477 36.9072 56.0995 37.615 55.1321 37.6245C53.2084 37.6435 51.2831 37.6419 49.3595 37.6213C48.9496 37.6166 48.7368 37.7306 48.5573 38.117C47.1848 41.0892 45.501 43.8777 43.5217 46.4888C43.4105 46.6361 43.3089 46.7913 43.1516 47.0177C45.5121 47.0177 47.7535 47.0034 49.9933 47.0304C50.4412 47.0351 50.6255 46.8831 50.8241 46.4952C51.8534 44.4762 53.5293 43.4074 55.8056 43.4786C58.0263 43.5467 59.6164 44.6789 60.5473 46.6899C60.7522 47.1317 60.8523 47.6226 61 48.0913H60.9984ZM30.4611 41.5595C32.6056 41.5595 34.7484 41.5626 36.8929 41.5595C38.904 41.5547 40.3018 40.2515 40.3241 38.2531C40.3606 34.8898 40.34 31.5249 40.332 28.1616C40.3288 27.0405 39.919 26.0382 38.9389 25.4982C38.2098 25.096 38.0382 24.6178 38.1399 23.9005C38.1478 23.8419 38.1399 23.7817 38.1383 23.7231C38.0779 20.6417 36.1161 17.8532 33.2441 16.7622C30.3356 15.6585 27.0617 16.4091 24.9363 18.6703C23.3986 20.306 22.7489 22.26 22.8633 24.48C22.8823 24.8553 22.7839 25.0675 22.4185 25.256C21.2605 25.8545 20.6759 26.8537 20.6696 28.1458C20.6537 31.5091 20.641 34.874 20.6727 38.2373C20.6918 40.2372 22.0849 41.5547 24.0896 41.5595C26.2134 41.5642 28.3373 41.5595 30.4611 41.5595Z" fill="url(#paint0_linear_5173_216410)"/>
<path d="M24.3999 28.3516H36.5999V38.1116H24.3999V28.3516ZM32.3456 33.2974C32.3144 33.2892 32.2832 33.2827 32.252 33.2746C32.252 33.0309 32.2629 32.7888 32.2504 32.5451C32.2005 31.5459 31.4535 30.7822 30.5194 30.7692C29.5697 30.7562 28.7868 31.5426 28.7494 32.5646C28.7322 33.0504 28.7244 33.5378 28.7556 34.022C28.8071 34.8328 29.3966 35.5038 30.1607 35.676C30.8531 35.832 31.6812 35.4876 31.9869 34.797C32.1912 34.3372 32.2317 33.7994 32.3456 33.2957V33.2974Z" fill="url(#paint1_linear_5173_216410)"/>
<path d="M34.6947 24.6847H26.3326C25.9549 23.0816 26.6388 21.4523 28.0716 20.5164C29.4594 19.6098 31.3266 19.565 32.7677 20.4067C34.2887 21.2948 35.0175 22.8932 34.6947 24.6847Z" fill="url(#paint2_linear_5173_216410)"/>
<defs>
<linearGradient id="paint0_linear_5173_216410" x1="30.5" y1="0.898437" x2="30.5" y2="58.2384" gradientUnits="userSpaceOnUse">
<stop stop-color="#00b144"/>
<stop offset="1" stop-color="#00b144" stop-opacity="0"/>
</linearGradient>
<linearGradient id="paint1_linear_5173_216410" x1="30.4999" y1="28.3516" x2="30.4999" y2="38.1116" gradientUnits="userSpaceOnUse">
<stop stop-color="#00b144" stop-opacity="0.6"/>
<stop offset="1" stop-color="#00b144" stop-opacity="0"/>
</linearGradient>
<linearGradient id="paint2_linear_5173_216410" x1="30.5" y1="19.8047" x2="30.5" y2="24.6847" gradientUnits="userSpaceOnUse">
<stop offset="0.24" stop-color="#00b144"/>
<stop offset="1" stop-color="#00b144" stop-opacity="0"/>
</linearGradient>
</defs>
</svg>
