<svg width="47" height="55" viewBox="0 0 47 55" fill="none" xmlns="http://www.w3.org/2000/svg">
<path d="M23.0774 0.953125C23.3546 0.953125 23.6318 0.953125 23.9091 0.953125C24.1197 1.06401 24.3277 1.17906 24.5411 1.28579C31.6242 4.82872 38.7059 8.37718 45.7973 11.9049C46.6289 12.3179 46.9893 12.9084 46.9977 13.8302C47.0254 16.8505 46.8105 19.8515 46.3573 22.8358C45.5921 27.8577 44.2504 32.7091 42.0076 37.2847C38.5756 44.2915 33.5218 49.703 26.4055 53.0699C25.5821 53.4594 24.7421 53.8114 23.9091 54.1801H23.0774C22.9914 54.1302 22.9083 54.0734 22.8196 54.0318C21.4723 53.4039 20.0847 52.8508 18.7846 52.1398C12.5567 48.7341 8.07263 43.6692 5.00792 37.3305C1.38322 29.8329 -0.0708233 21.86 0.00264104 13.5737C0.00957164 12.792 0.411546 12.3041 1.09768 11.9617C5.60395 9.72033 10.1047 7.46789 14.604 5.21267C17.4303 3.79744 20.2525 2.3739 23.0774 0.953125ZM40.6908 17.2969C40.756 16.8131 40.4219 16.2004 39.6138 15.7985C34.5198 13.2619 29.4327 10.7142 24.3471 8.16372C23.7566 7.86848 23.2091 7.88234 22.6158 8.18035C17.5329 10.7336 12.4445 13.2771 7.35324 15.8123C6.61443 16.181 6.25404 16.7369 6.33721 17.5602C6.47444 18.92 6.57562 20.2867 6.76829 21.6382C7.41423 26.15 8.59381 30.5107 10.6106 34.6178C13.2581 40.0084 17.0838 44.2777 22.473 47.0624C23.1675 47.4214 23.7857 47.438 24.4857 47.0777C28.8977 44.8044 32.3436 41.5013 34.9079 37.2778C38.5603 31.2634 40.0892 24.6184 40.6894 17.2955L40.6908 17.2969Z" fill="url(#paint0_linear_5173_216372)"/>
<path d="M37.4655 18.5438C36.7364 25.2526 35.1562 31.4555 31.4012 36.9293C29.4731 39.7403 27.0349 42.0122 24.0908 43.7462C23.632 44.0165 23.3118 43.9874 22.8752 43.731C18.9414 41.4217 16.0208 38.1657 13.8931 34.1667C11.6379 29.9294 10.4154 25.3732 9.7722 20.6438C9.67933 19.9576 9.59894 19.2687 9.56151 18.5784C9.55181 18.4107 9.69181 18.1446 9.83735 18.0711C14.2993 15.8201 18.7681 13.5856 23.2425 11.3623C23.3825 11.293 23.6195 11.2971 23.7609 11.3678C28.2215 13.5842 32.6765 15.809 37.1231 18.0559C37.3186 18.1543 37.41 18.4634 37.4641 18.5452L37.4655 18.5438Z" fill="url(#paint1_linear_5173_216372)"/>
<defs>
<linearGradient id="paint0_linear_5173_216372" x1="23.5" y1="0.953125" x2="23.5" y2="54.1801" gradientUnits="userSpaceOnUse">
<stop offset="0.27" stop-color="#00b144"/>
<stop offset="1" stop-color="#00b144" stop-opacity="0"/>
</linearGradient>
<linearGradient id="paint1_linear_5173_216372" x1="23.5133" y1="11.3125" x2="23.5133" y2="43.9365" gradientUnits="userSpaceOnUse">
<stop offset="0.27" stop-color="#00b144"/>
<stop offset="1" stop-color="#00b144" stop-opacity="0"/>
</linearGradient>
</defs>
</svg>
