<svg width="51" height="50" viewBox="0 0 51 50" fill="none" xmlns="http://www.w3.org/2000/svg">
<path d="M0.0121446 14.4407C0.0121446 13.5333 -0.0151807 12.6192 0.0121446 11.7119C0.0736265 9.93744 1.49454 8.52598 3.28435 8.41844C10.5802 7.96139 17.1246 5.54845 22.8902 1.11914C23.9286 0.319312 25.0216 -0.178062 26.3264 0.198329C26.8729 0.352918 27.4194 0.641932 27.8703 0.991438C31.4499 3.75388 35.4052 5.79042 39.7705 7.06746C42.3254 7.81352 44.9281 8.2504 47.5855 8.41844C49.4709 8.53942 50.8372 9.80974 50.9397 11.6715C51.1241 14.9986 50.8782 18.3121 50.3043 21.5988C49.5119 26.1827 48.0364 30.5247 45.6044 34.5305C41.977 40.5057 36.7988 44.7334 30.3501 47.5026C29.2434 47.9798 28.1025 48.3629 26.9754 48.7931C25.9917 49.1695 25.0353 49.1493 24.0311 48.8132C19.4199 47.2673 15.1913 45.0628 11.5366 41.8702C7.02791 37.9315 3.98798 33.0653 2.12985 27.4531C0.736265 23.2254 0.0941205 18.8767 0.0121446 14.4407ZM36.0884 34.1945C36.0884 33.1997 36.1772 32.252 36.0679 31.3245C35.9176 30.0071 35.1935 29.0326 33.9023 28.5217C32.4131 27.9303 30.9239 27.3186 29.4415 26.7003C29.1477 26.5793 28.936 26.5793 28.6627 26.7809C27.8361 27.3993 26.9685 27.9773 26.142 28.5889C25.6979 28.9183 25.3085 28.9048 24.8713 28.5755C24.0721 27.9773 23.2318 27.4194 22.4326 26.828C22.1456 26.6129 21.9202 26.5658 21.5718 26.7137C20.0962 27.3388 18.607 27.9504 17.111 28.5285C16.1751 28.8914 15.5397 29.5434 15.1845 30.4373C14.6927 31.6606 15.0001 32.9376 14.9249 34.1945H36.0884ZM25.4178 23.3396C29.0043 23.3195 31.8188 20.5369 31.7915 17.0284C31.771 13.5602 28.9086 10.7843 25.3769 10.8045C21.9202 10.8246 19.051 13.6812 19.0647 17.1023C19.0784 20.5503 21.9475 23.3598 25.4178 23.3396Z" fill="url(#paint0_linear_5173_216384)"/>
<defs>
<linearGradient id="paint0_linear_5173_216384" x1="25.5" y1="12.8316" x2="25.5" y2="49.0703" gradientUnits="userSpaceOnUse">
<stop stop-color="#00b144"/>
<stop offset="1" stop-color="#00b144" stop-opacity="0"/>
</linearGradient>
</defs>
</svg>
