<svg width="193" height="89" viewBox="0 0 193 89" fill="none" xmlns="http://www.w3.org/2000/svg">
<path d="M31.4155 84.0079C23.0193 84.0079 15.1268 80.7378 9.19071 74.8017C-3.06357 62.5463 -3.06357 42.6063 9.19071 30.3521C15.1268 24.4149 23.0193 21.1459 31.4155 21.1459C39.8118 21.1459 47.7043 24.4149 53.6404 30.3521L43.1123 40.8801C36.6632 34.4286 26.1679 34.4286 19.7188 40.8801C13.2685 47.3292 13.2685 57.8234 19.7188 64.2737C26.1679 70.724 36.6632 70.724 43.1123 64.2737L53.6404 74.8017C47.7043 80.7378 39.8118 84.0079 31.4155 84.0079Z" fill="white"/>
<path d="M106.814 34.6134C105.363 31.6565 103.495 29.3144 101.208 27.5846C96.5759 24.0141 91.8074 22.2283 86.8987 22.2283H61.5439V26.2429V55.1249V82.1556C61.5439 76.9091 65.7982 72.6549 71.0459 72.6549C73.0117 72.6549 74.8384 73.2521 76.3554 74.2759V66.8298L86.8145 66.6627C91.7793 66.6627 96.5759 64.8781 101.208 61.3064C103.495 59.5778 105.363 57.2485 106.814 54.3196C108.263 51.3908 108.989 48.1136 108.989 44.487C108.989 40.8615 108.263 37.5715 106.814 34.6134ZM91.8355 50.0105C90.2167 51.2388 88.5723 51.8512 86.8987 51.8512H76.3554V37.0398H86.8145C88.5431 37.0398 90.2167 37.6674 91.8355 38.9226C93.453 40.1778 94.2629 42.0338 94.2629 44.487C94.2629 46.9425 93.453 48.7833 91.8355 50.0105Z" fill="white"/>
<path d="M161.79 21.1449H105.183C105.183 21.1449 113.342 26.2418 116.027 36.4356H129.509V84.0069H144.8V36.4356H161.79V21.1449Z" fill="white"/>
<path d="M77.7305 81.949C77.7305 85.7147 74.6777 88.7663 70.9132 88.7663C67.1475 88.7663 64.0947 85.7147 64.0947 81.949C64.0947 78.1833 67.1475 75.1317 70.9132 75.1317C74.6777 75.1317 77.7305 78.1833 77.7305 81.949Z" fill="#00b144"/>
<path d="M171.703 16.3298L162.216 12.8096C158.573 11.4573 159.041 6.16174 162.864 5.46868L171.619 3.88386L187.593 0.990051C190.486 0.465285 192.862 3.27027 191.868 6.03902L186.386 21.3215L183.381 29.6967C182.068 33.3549 176.768 32.9447 176.035 29.1287L174.124 19.1897C173.873 17.8784 172.955 16.7938 171.703 16.3298Z" fill="#33CCFF"/>
</svg>
