<svg width="121" height="41" viewBox="0 0 121 41" fill="none" xmlns="http://www.w3.org/2000/svg">
<rect x="1.37109" y="1.05078" width="119" height="39" rx="6.5" fill="black"/>
<rect x="1.37109" y="1.05078" width="119" height="39" rx="6.5" stroke="#A6A6A6"/>
<path d="M82.3978 19.7512V22.0422H80.9617V23.5446H82.3978V28.6496C82.3978 30.3928 83.1863 31.09 85.1702 31.09C85.5188 31.09 85.8509 31.0485 86.1414 30.9987V29.5129C85.8924 29.5378 85.7347 29.5544 85.4607 29.5544C84.5726 29.5544 84.1824 29.1393 84.1824 28.193V23.5446H86.1414V22.0422H84.1824V19.7512H82.3978Z" fill="white"/>
<path d="M91.1953 31.2145C93.8349 31.2145 95.4536 29.4465 95.4536 26.5163C95.4536 23.6027 93.8266 21.8263 91.1953 21.8263C88.5556 21.8263 86.9287 23.6027 86.9287 26.5163C86.9287 29.4465 88.5473 31.2145 91.1953 31.2145ZM91.1953 29.6291C89.643 29.6291 88.7714 28.4919 88.7714 26.5163C88.7714 24.5573 89.643 23.4118 91.1953 23.4118C92.7392 23.4118 93.6191 24.5573 93.6191 26.5163C93.6191 28.4836 92.7392 29.6291 91.1953 29.6291Z" fill="white"/>
<path d="M96.8385 31.0402H98.6231V25.7028C98.6231 24.4328 99.5777 23.5778 100.931 23.5778C101.246 23.5778 101.777 23.6359 101.927 23.6857V21.926C101.736 21.8762 101.396 21.8513 101.13 21.8513C99.9512 21.8513 98.9469 22.4987 98.6895 23.3869H98.5567V22.0007H96.8385V31.0402Z" fill="white"/>
<path d="M106.358 23.3454C107.678 23.3454 108.541 24.2668 108.583 25.6862H104.017C104.117 24.2751 105.038 23.3454 106.358 23.3454ZM108.574 28.5998C108.242 29.3054 107.504 29.6955 106.425 29.6955C104.997 29.6955 104.075 28.6911 104.017 27.1056V27.006H110.401V26.3835C110.401 23.5446 108.882 21.8263 106.366 21.8263C103.818 21.8263 102.199 23.6608 102.199 26.5495C102.199 29.4382 103.785 31.2145 106.375 31.2145C108.442 31.2145 109.886 30.2184 110.293 28.5998H108.574Z" fill="white"/>
<path d="M70.6942 27.7021C70.8318 29.9218 72.6816 31.3413 75.4347 31.3413C78.3771 31.3413 80.2183 29.8529 80.2183 27.4784C80.2183 25.6114 79.1686 24.579 76.622 23.9853L75.254 23.6498C73.6366 23.2712 72.9827 22.7636 72.9827 21.8775C72.9827 20.759 73.9979 20.0277 75.5207 20.0277C76.9661 20.0277 77.9641 20.7418 78.1448 21.8861H80.0204C79.9085 19.7954 78.0674 18.3242 75.5466 18.3242C72.8364 18.3242 71.0297 19.7954 71.0297 22.0065C71.0297 23.8305 72.0535 24.9145 74.299 25.4393L75.8993 25.8265C77.5426 26.2136 78.2653 26.7815 78.2653 27.7279C78.2653 28.8291 77.1296 29.6292 75.581 29.6292C73.9205 29.6292 72.7676 28.8807 72.6041 27.7021H70.6942Z" fill="white"/>
<path d="M52.2068 21.8513C50.9783 21.8513 49.9158 22.4655 49.368 23.4948H49.2352V22.0007H47.5169V34.0451H49.3016V29.6706H49.4427C49.9158 30.6252 50.9368 31.1896 52.2234 31.1896C54.5062 31.1896 55.9588 29.3884 55.9588 26.5163C55.9588 23.6442 54.5062 21.8513 52.2068 21.8513ZM51.7005 29.5876C50.2063 29.5876 49.2684 28.4089 49.2684 26.5246C49.2684 24.632 50.2063 23.4533 51.7088 23.4533C53.2195 23.4533 54.1243 24.6071 54.1243 26.5163C54.1243 28.4338 53.2195 29.5876 51.7005 29.5876Z" fill="white"/>
<path d="M62.2036 21.8513C60.9751 21.8513 59.9126 22.4655 59.3648 23.4948H59.232V22.0007H57.5137V34.0451H59.2984V29.6706H59.4395C59.9126 30.6252 60.9336 31.1896 62.2202 31.1896C64.5029 31.1896 65.9556 29.3884 65.9556 26.5163C65.9556 23.6442 64.5029 21.8513 62.2036 21.8513ZM61.6973 29.5876C60.2031 29.5876 59.2652 28.4089 59.2652 26.5246C59.2652 24.632 60.2031 23.4533 61.7056 23.4533C63.2163 23.4533 64.1211 24.6071 64.1211 26.5163C64.1211 28.4338 63.2163 29.5876 61.6973 29.5876Z" fill="white"/>
<path d="M44.3149 31.0402H46.3625L41.8801 18.6253H39.8067L35.3242 31.0402H37.303L38.4473 27.7451H43.1792L44.3149 31.0402ZM40.7444 20.8795H40.8907L42.6888 26.1276H38.9377L40.7444 20.8795Z" fill="white"/>
<path d="M36.5234 9.26343V15.2524H38.6858C40.4705 15.2524 41.5039 14.1526 41.5039 12.2393C41.5039 10.355 40.4622 9.26343 38.6858 9.26343H36.5234ZM37.4531 10.1101H38.582C39.823 10.1101 40.5576 10.8987 40.5576 12.2517C40.5576 13.6255 39.8354 14.4058 38.582 14.4058H37.4531V10.1101Z" fill="white"/>
<path d="M44.669 15.3396C45.9888 15.3396 46.7981 14.4556 46.7981 12.9905C46.7981 11.5337 45.9847 10.6455 44.669 10.6455C43.3492 10.6455 42.5357 11.5337 42.5357 12.9905C42.5357 14.4556 43.345 15.3396 44.669 15.3396ZM44.669 14.5469C43.8929 14.5469 43.4571 13.9783 43.4571 12.9905C43.4571 12.011 43.8929 11.4382 44.669 11.4382C45.441 11.4382 45.8809 12.011 45.8809 12.9905C45.8809 13.9741 45.441 14.5469 44.669 14.5469Z" fill="white"/>
<path d="M53.6903 10.7327H52.7979L51.9928 14.1816H51.9222L50.9925 10.7327H50.1375L49.2079 14.1816H49.1415L48.3321 10.7327H47.4273L48.6725 15.2524H49.5897L50.5194 11.9238H50.5899L51.5238 15.2524H52.4493L53.6903 10.7327Z" fill="white"/>
<path d="M54.7179 15.2524H55.6103V12.6086C55.6103 11.9031 56.0294 11.4631 56.6894 11.4631C57.3493 11.4631 57.6647 11.8242 57.6647 12.5505V15.2524H58.557V12.3264C58.557 11.2515 58.0009 10.6455 56.9923 10.6455C56.3117 10.6455 55.8634 10.9485 55.6435 11.4507H55.577V10.7327H54.7179V15.2524Z" fill="white"/>
<path d="M59.9624 15.2524H60.8547V8.96875H59.9624V15.2524Z" fill="white"/>
<path d="M64.2107 15.3396C65.5305 15.3396 66.3398 14.4556 66.3398 12.9905C66.3398 11.5337 65.5264 10.6455 64.2107 10.6455C62.8909 10.6455 62.0774 11.5337 62.0774 12.9905C62.0774 14.4556 62.8867 15.3396 64.2107 15.3396ZM64.2107 14.5469C63.4346 14.5469 62.9988 13.9783 62.9988 12.9905C62.9988 12.011 63.4346 11.4382 64.2107 11.4382C64.9827 11.4382 65.4226 12.011 65.4226 12.9905C65.4226 13.9741 64.9827 14.5469 64.2107 14.5469Z" fill="white"/>
<path d="M68.9986 14.5759C68.513 14.5759 68.1602 14.3394 68.1602 13.9326C68.1602 13.5342 68.4424 13.3225 69.065 13.281L70.169 13.2104V13.5881C70.169 14.1484 69.6709 14.5759 68.9986 14.5759ZM68.7703 15.3271C69.3638 15.3271 69.8577 15.0698 70.1275 14.6174H70.198V15.2524H71.0572V12.1646C71.0572 11.21 70.418 10.6455 69.285 10.6455C68.2598 10.6455 67.5293 11.1436 67.438 11.9197H68.3013C68.4009 11.6001 68.7454 11.4175 69.2435 11.4175C69.8536 11.4175 70.169 11.6873 70.169 12.1646V12.5547L68.9446 12.6252C67.8697 12.6917 67.2637 13.1606 67.2637 13.9741C67.2637 14.8 67.8987 15.3271 68.7703 15.3271Z" fill="white"/>
<path d="M74.0853 15.3271C74.7079 15.3271 75.235 15.0325 75.5047 14.5386H75.5753V15.2524H76.4303V8.96875H75.5379V11.4507H75.4715C75.2267 10.9526 74.7037 10.658 74.0853 10.658C72.9439 10.658 72.2093 11.5627 72.2093 12.9905C72.2093 14.4224 72.9356 15.3271 74.0853 15.3271ZM74.3385 11.459C75.0855 11.459 75.5545 12.0525 75.5545 12.9946C75.5545 13.9409 75.0897 14.5261 74.3385 14.5261C73.5831 14.5261 73.1307 13.9492 73.1307 12.9905C73.1307 12.04 73.5873 11.459 74.3385 11.459Z" fill="white"/>
<path d="M82.2167 15.3396C83.5366 15.3396 84.3459 14.4556 84.3459 12.9905C84.3459 11.5337 83.5324 10.6455 82.2167 10.6455C80.8969 10.6455 80.0834 11.5337 80.0834 12.9905C80.0834 14.4556 80.8928 15.3396 82.2167 15.3396ZM82.2167 14.5469C81.4406 14.5469 81.0048 13.9783 81.0048 12.9905C81.0048 12.011 81.4406 11.4382 82.2167 11.4382C82.9887 11.4382 83.4287 12.011 83.4287 12.9905C83.4287 13.9741 82.9887 14.5469 82.2167 14.5469Z" fill="white"/>
<path d="M85.5271 15.2524H86.4194V12.6086C86.4194 11.9031 86.8386 11.4631 87.4985 11.4631C88.1584 11.4631 88.4739 11.8242 88.4739 12.5505V15.2524H89.3662V12.3264C89.3662 11.2515 88.8101 10.6455 87.8015 10.6455C87.1208 10.6455 86.6726 10.9485 86.4526 11.4507H86.3862V10.7327H85.5271V15.2524Z" fill="white"/>
<path d="M93.4759 9.60791V10.7534H92.7579V11.5046H93.4759V14.0571C93.4759 14.9287 93.8702 15.2773 94.8622 15.2773C95.0365 15.2773 95.2025 15.2566 95.3478 15.2317V14.4888C95.2232 14.5012 95.1444 14.5095 95.0074 14.5095C94.5633 14.5095 94.3683 14.302 94.3683 13.8289V11.5046H95.3478V10.7534H94.3683V9.60791H93.4759Z" fill="white"/>
<path d="M96.5456 15.2524H97.4379V12.6128C97.4379 11.928 97.8446 11.4673 98.5751 11.4673C99.206 11.4673 99.5421 11.8325 99.5421 12.5547V15.2524H100.434V12.3347C100.434 11.2598 99.841 10.6497 98.8781 10.6497C98.1974 10.6497 97.7201 10.9526 97.5001 11.459H97.4296V8.96875H96.5456V15.2524Z" fill="white"/>
<path d="M103.654 11.405C104.313 11.405 104.745 11.8657 104.766 12.5754H102.483C102.533 11.8699 102.994 11.405 103.654 11.405ZM104.762 14.0322C104.596 14.385 104.226 14.5801 103.687 14.5801C102.973 14.5801 102.512 14.0779 102.483 13.2852V13.2354H105.675V12.9241C105.675 11.5046 104.915 10.6455 103.658 10.6455C102.383 10.6455 101.574 11.5627 101.574 13.0071C101.574 14.4514 102.367 15.3396 103.662 15.3396C104.695 15.3396 105.417 14.8416 105.621 14.0322H104.762Z" fill="white"/>
<path d="M25.6411 20.8499C25.6627 19.1689 26.5655 17.5783 27.9976 16.6978C27.0942 15.4075 25.5809 14.5894 24.0065 14.5402C22.3272 14.3639 20.6993 15.545 19.8436 15.545C18.9713 15.545 17.6538 14.5577 16.2351 14.5868C14.3858 14.6466 12.6618 15.698 11.7621 17.3147C9.82814 20.6631 11.2707 25.5842 13.1233 28.2908C14.0502 29.6161 15.1335 31.0966 16.551 31.0441C17.938 30.9866 18.4561 30.1596 20.1304 30.1596C21.7891 30.1596 22.2752 31.0441 23.7214 31.0107C25.2098 30.9865 26.1475 29.6795 27.0419 28.3416C27.7079 27.3972 28.2203 26.3535 28.5603 25.2491C26.8112 24.5093 25.6431 22.749 25.6411 20.8499Z" fill="white"/>
<path d="M22.9094 12.7602C23.7209 11.7859 24.1207 10.5338 24.0239 9.26953C22.7841 9.39975 21.6388 9.99231 20.8163 10.9291C20.0121 11.8445 19.5935 13.0746 19.6726 14.2905C20.9129 14.3033 22.1322 13.7268 22.9094 12.7602Z" fill="white"/>
</svg>
