<svg width="32" height="32" viewBox="0 0 32 32" fill="none" xmlns="http://www.w3.org/2000/svg">
<path d="M22.2018 6.38406H21.8284C21.6951 5.33073 21.3084 4.49073 20.6951 3.86406C19.8951 3.06406 18.7351 2.66406 17.2418 2.66406H9.80177C6.80177 2.66406 5.14844 4.3174 5.14844 7.3174C5.14844 8.81073 5.54844 9.97073 6.34844 10.7707C7.14844 11.5707 8.30844 11.9707 9.80177 11.9707H17.2418C19.9084 11.9707 21.5084 10.6507 21.8284 8.25073H22.2018C24.9884 8.25073 24.9884 8.62406 24.9884 11.0374V13.5174C24.9884 15.9307 24.9884 16.3041 22.2018 16.3041H17.2418C13.2551 16.3041 12.6818 18.1974 12.6018 20.0374C11.4018 20.1174 10.1084 20.6774 10.1084 22.8107V26.5307C10.1084 28.8374 11.6284 29.3174 12.8951 29.3174H14.1351C15.4018 29.3174 16.9218 28.8374 16.9218 26.5307V22.8107C16.9218 20.7041 15.6551 20.1174 14.4551 20.0374C14.5218 18.6907 14.9084 18.1574 17.2284 18.1574H22.1884C26.5218 18.1574 26.8418 16.3974 26.8418 13.5041V11.0374C26.8551 8.14406 26.5351 6.38406 22.2018 6.38406Z" fill="white"/>
</svg>
