<svg width="32" height="32" viewBox="0 0 32 32" fill="none" xmlns="http://www.w3.org/2000/svg">
<path d="M26.668 7.9974V8.3174H19.828C15.868 8.3174 14.028 10.1574 14.028 14.1174V20.9307H13.0013V25.6641H14.028V27.6641H6.6013C6.05464 27.6641 5.6013 27.2107 5.6013 26.6641C5.6013 26.1174 6.05464 25.6641 6.6013 25.6641H11.0013V20.9307H8.0013C3.82797 20.9307 2.70797 19.9041 2.66797 15.8641V7.9974C2.66797 3.73073 3.73464 2.66406 8.0013 2.66406H21.3346C25.6013 2.66406 26.668 3.73073 26.668 7.9974Z" fill="white"/>
<path d="M26.6673 10.387C26.334 10.347 25.9473 10.3203 25.534 10.3203H19.8273C16.974 10.3203 16.0273 11.267 16.0273 14.1203V25.667C16.0407 26.4936 16.134 27.147 16.334 27.667C16.8007 28.8803 17.854 29.3336 19.8273 29.3336H25.534C28.3873 29.3336 29.334 28.387 29.334 25.5336V14.1203C29.334 11.6803 28.6407 10.6403 26.6673 10.387ZM22.6807 13.4536C23.8407 13.4536 24.774 14.387 24.774 15.547C24.774 16.707 23.8407 17.6403 22.6807 17.6403C21.5207 17.6403 20.5873 16.707 20.5873 15.547C20.5873 14.387 21.5207 13.4536 22.6807 13.4536ZM22.6807 25.5336C21.1073 25.5336 19.8273 24.2536 19.8273 22.6803C19.8273 22.027 20.054 21.4136 20.4273 20.9336C20.9473 20.267 21.7607 19.827 22.6807 19.827C23.4007 19.827 24.054 20.0936 24.5473 20.5203C25.1473 21.0536 25.534 21.827 25.534 22.6803C25.534 24.2536 24.254 25.5336 22.6807 25.5336Z" fill="white"/>
<path d="M26.6673 10.387C26.334 10.347 25.9473 10.3203 25.534 10.3203H19.8273C16.974 10.3203 16.0273 11.267 16.0273 14.1203V25.667C16.0407 26.4936 16.134 27.147 16.334 27.667C16.8007 28.8803 17.854 29.3336 19.8273 29.3336H25.534C28.3873 29.3336 29.334 28.387 29.334 25.5336V14.1203C29.334 11.6803 28.6407 10.6403 26.6673 10.387ZM22.6807 13.4536C23.8407 13.4536 24.774 14.387 24.774 15.547C24.774 16.707 23.8407 17.6403 22.6807 17.6403C21.5207 17.6403 20.5873 16.707 20.5873 15.547C20.5873 14.387 21.5207 13.4536 22.6807 13.4536ZM22.6807 25.5336C21.1073 25.5336 19.8273 24.2536 19.8273 22.6803C19.8273 22.027 20.054 21.4136 20.4273 20.9336C20.9473 20.267 21.7607 19.827 22.6807 19.827C23.4007 19.827 24.054 20.0936 24.5473 20.5203C25.1473 21.0536 25.534 21.827 25.534 22.6803C25.534 24.2536 24.254 25.5336 22.6807 25.5336Z" fill="white"/>
</svg>
