<svg width="32" height="32" viewBox="0 0 32 32" fill="none" xmlns="http://www.w3.org/2000/svg">
<path d="M25.4945 19.9219L25.9212 20.7885C26.1345 21.2152 26.6812 21.6152 27.1345 21.6952L27.7079 21.7885C29.4545 22.0819 29.8545 23.3619 28.6145 24.6152L28.0812 25.1485C27.7212 25.5085 27.5345 26.2019 27.6412 26.7085L27.7079 27.0285C28.1879 29.1352 27.0679 29.9485 25.2412 28.8419L24.8545 28.6019C24.3878 28.3219 23.6145 28.3219 23.1479 28.6019L22.7612 28.8419C20.9212 29.9485 19.8145 29.1352 20.2945 27.0285L20.3612 26.7085C20.4679 26.2152 20.2812 25.5085 19.9212 25.1485L19.3879 24.6152C18.1479 23.3485 18.5479 22.0819 20.2945 21.7885L20.8679 21.6952C21.3345 21.6152 21.8679 21.2152 22.0812 20.7885L22.5079 19.9219C23.3345 18.2552 24.6679 18.2552 25.4945 19.9219Z" fill="white"/>
<path d="M21.588 2.66406H10.4146C5.5613 2.66406 2.66797 5.5574 2.66797 10.4107V21.5841C2.66797 26.4374 5.5613 29.3307 10.4146 29.3307H17.4546C17.9213 29.3307 18.2546 28.8507 18.2013 28.3841C18.148 27.8774 18.1746 27.2774 18.3346 26.5841C18.3613 26.4907 18.3346 26.3841 18.2546 26.3041L17.9613 26.0107C16.828 24.8641 16.4146 23.4774 16.8146 22.2107C17.228 20.9574 18.3746 20.0774 19.9613 19.8107L20.3613 19.7441L20.7213 19.0241C21.4546 17.5307 22.6546 16.6641 24.0013 16.6641C25.348 16.6641 26.548 17.5307 27.2813 19.0241L27.4813 19.4374C27.5746 19.6374 27.7613 19.7707 27.9746 19.8107C28.0946 19.8374 28.2146 19.8641 28.3346 19.8907C28.8013 20.0107 29.3346 19.6374 29.3346 19.1441V10.4107C29.3346 5.5574 26.4413 2.66406 21.588 2.66406ZM21.6813 11.9441L18.6013 15.9174C18.2146 16.4107 17.668 16.7307 17.0413 16.7974C16.428 16.8774 15.8013 16.7041 15.3213 16.3174L12.8813 14.4241C12.788 14.3441 12.6813 14.3441 12.628 14.3574C12.5746 14.3574 12.4813 14.3841 12.4013 14.4907L9.22797 18.6107C9.02797 18.8641 8.73464 18.9974 8.42797 18.9974C8.21464 18.9974 8.0013 18.9307 7.81464 18.7841C7.37464 18.4507 7.29463 17.8241 7.62797 17.3841L10.8013 13.2641C11.188 12.7707 11.7346 12.4507 12.3613 12.3707C12.988 12.2907 13.6013 12.4641 14.0946 12.8507L16.5346 14.7707C16.628 14.8507 16.7213 14.8374 16.788 14.8374C16.8413 14.8374 16.9346 14.8107 17.0146 14.7041L20.0946 10.7307C20.428 10.2907 21.0546 10.2107 21.4946 10.5574C21.948 10.8907 22.0146 11.5174 21.6813 11.9441Z" fill="white"/>
</svg>
