<svg width="136" height="41" viewBox="0 0 136 41" fill="none" xmlns="http://www.w3.org/2000/svg">
<rect x="1.37109" y="1.05078" width="134" height="39" rx="4.5" fill="black"/>
<rect x="1.37109" y="1.05078" width="134" height="39" rx="4.5" stroke="#A6A6A6"/>
<path d="M107.805 30.5488H109.671V18.0472H107.805V30.5488ZM124.612 22.5508L122.473 27.9707H122.409L120.189 22.5508H118.179L121.509 30.1258L119.61 34.3398H121.556L126.687 22.5508H124.612ZM114.029 29.1289C113.419 29.1289 112.566 28.823 112.566 28.0672C112.566 27.1023 113.628 26.7324 114.544 26.7324C115.364 26.7324 115.751 26.909 116.249 27.1504C116.104 28.3086 115.107 29.1289 114.029 29.1289ZM114.255 22.2773C112.904 22.2773 111.505 22.8726 110.926 24.1914L112.582 24.8828C112.936 24.1914 113.595 23.9664 114.287 23.9664C115.252 23.9664 116.233 24.5449 116.249 25.5746V25.7031C115.911 25.5101 115.187 25.2207 114.303 25.2207C112.517 25.2207 110.7 26.2015 110.7 28.0351C110.7 29.7078 112.164 30.7856 113.804 30.7856C115.058 30.7856 115.751 30.2226 116.184 29.5629H116.249V30.5285H118.051V25.7351C118.051 23.5156 116.393 22.2773 114.255 22.2773ZM102.723 24.0726H100.069V19.7875H102.723C104.118 19.7875 104.91 20.9422 104.91 21.93C104.91 22.8988 104.118 24.0726 102.723 24.0726ZM102.675 18.0472H98.2036V30.5488H100.069V25.8125H102.675C104.743 25.8125 106.776 24.3156 106.776 21.93C106.776 19.5449 104.743 18.0472 102.675 18.0472ZM78.2934 29.1312C77.0043 29.1312 75.9254 28.0515 75.9254 26.5699C75.9254 25.0711 77.0043 23.9761 78.2934 23.9761C79.5661 23.9761 80.5649 25.0711 80.5649 26.5699C80.5649 28.0515 79.5661 29.1312 78.2934 29.1312ZM80.436 23.2508H80.3715C79.9528 22.7515 79.1469 22.3004 78.1325 22.3004C76.0055 22.3004 74.0563 24.1695 74.0563 26.5699C74.0563 28.9539 76.0055 30.8066 78.1325 30.8066C79.1469 30.8066 79.9528 30.3554 80.3715 29.8402H80.436V30.4519C80.436 32.0797 79.5661 32.9492 78.1645 32.9492C77.0211 32.9492 76.3122 32.1277 76.0219 31.4352L74.395 32.1117C74.8618 33.2391 76.102 34.625 78.1645 34.625C80.3559 34.625 82.2086 33.3359 82.2086 30.1941V22.5582H80.436V23.2508ZM83.4977 30.5488H85.3657V18.0472H83.4977V30.5488ZM88.1208 26.4246C88.0727 24.7812 89.3942 23.9437 90.3442 23.9437C91.0856 23.9437 91.7133 24.3144 91.9235 24.8457L88.1208 26.4246ZM93.9204 25.0066C93.5661 24.0566 92.4868 22.3004 90.2797 22.3004C88.0883 22.3004 86.268 24.0242 86.268 26.5535C86.268 28.9379 88.0727 30.8066 90.4887 30.8066C92.4379 30.8066 93.5661 29.6148 94.0336 28.9218L92.5836 27.955C92.1001 28.664 91.4399 29.1312 90.4887 29.1312C89.5387 29.1312 88.8618 28.6961 88.4274 27.8422L94.1137 25.4902L93.9204 25.0066ZM48.6126 23.6054V25.4097H52.9301C52.8012 26.4246 52.4629 27.1656 51.9473 27.6812C51.3188 28.3093 50.336 29.0023 48.6126 29.0023C45.9543 29.0023 43.8762 26.8597 43.8762 24.2015C43.8762 21.5433 45.9543 19.4004 48.6126 19.4004C50.0465 19.4004 51.0934 19.9644 51.8668 20.6894L53.1399 19.4164C52.0602 18.3855 50.6266 17.5961 48.6126 17.5961C44.9711 17.5961 41.9102 20.5605 41.9102 24.2015C41.9102 27.8422 44.9711 30.8066 48.6126 30.8066C50.5778 30.8066 52.0602 30.1621 53.22 28.9539C54.4122 27.7617 54.7829 26.0863 54.7829 24.7328C54.7829 24.3144 54.7504 23.9277 54.686 23.6054H48.6126ZM59.6915 29.1312C58.4024 29.1312 57.2907 28.0679 57.2907 26.5535C57.2907 25.023 58.4024 23.9761 59.6915 23.9761C60.9801 23.9761 62.0918 25.023 62.0918 26.5535C62.0918 28.0679 60.9801 29.1312 59.6915 29.1312ZM59.6915 22.3004C57.3387 22.3004 55.4219 24.0886 55.4219 26.5535C55.4219 29.0023 57.3387 30.8066 59.6915 30.8066C62.0434 30.8066 63.9606 29.0023 63.9606 26.5535C63.9606 24.0886 62.0434 22.3004 59.6915 22.3004ZM69.0043 29.1312C67.7161 29.1312 66.604 28.0679 66.604 26.5535C66.604 25.023 67.7161 23.9761 69.0043 23.9761C70.2934 23.9761 71.4047 25.023 71.4047 26.5535C71.4047 28.0679 70.2934 29.1312 69.0043 29.1312ZM69.0043 22.3004C66.6524 22.3004 64.7356 24.0886 64.7356 26.5535C64.7356 29.0023 66.6524 30.8066 69.0043 30.8066C71.3571 30.8066 73.2739 29.0023 73.2739 26.5535C73.2739 24.0886 71.3571 22.3004 69.0043 22.3004Z" fill="white"/>
<path d="M45.3477 13.7852C44.4511 13.7852 43.68 13.4697 43.0582 12.848C42.4361 12.226 42.1211 11.4471 42.1211 10.5414C42.1211 9.63571 42.4363 8.85821 43.0582 8.23476C43.68 7.61301 44.4511 7.29765 45.3477 7.29765C45.8044 7.29765 46.2307 7.37654 46.6381 7.54081C47.0456 7.70511 47.379 7.93317 47.6416 8.23163L47.7035 8.30214L47.0041 9.00136L46.9342 8.91542C46.7601 8.70148 46.5386 8.53527 46.258 8.41445C45.9784 8.29393 45.6722 8.23828 45.3477 8.23828C44.7162 8.23828 44.1922 8.45272 43.7547 8.88867C43.7546 8.88877 43.7544 8.88876 43.7543 8.88887C43.3267 9.33361 43.1117 9.87509 43.1117 10.5414C43.1117 11.2082 43.327 11.7498 43.7551 12.1947C44.1926 12.6305 44.7165 12.8461 45.3476 12.8461C45.9257 12.8461 46.4038 12.6847 46.7797 12.3652H46.7799C47.1298 12.0679 47.3398 11.6661 47.4141 11.1539H45.2477V10.232H48.3504L48.3637 10.3164C48.3891 10.4785 48.407 10.6349 48.407 10.7852C48.407 11.6453 48.1448 12.3475 47.6303 12.8641C47.0495 13.4798 46.2856 13.7852 45.3477 13.7852L45.3477 13.7852ZM72.2895 13.7852C71.3915 13.7852 70.6294 13.4695 70.0156 12.848C70.0156 12.848 70.0155 12.8479 70.0154 12.8478C70.0154 12.8478 70.0153 12.8477 70.0152 12.8476C69.4006 12.2328 69.0957 11.4538 69.0957 10.5414C69.0957 9.629 69.4006 8.84993 70.0152 8.23514C70.0153 8.23507 70.0153 8.23504 70.0154 8.23494L70.0156 8.23474C70.6294 7.61314 71.3916 7.29763 72.2895 7.29763C73.1856 7.29763 73.948 7.61322 74.5617 8.24412C75.1765 8.85882 75.4816 9.6364 75.4816 10.5414C75.4816 11.4538 75.1767 12.2328 74.5621 12.8476L74.5619 12.8478C73.9478 13.4698 73.1783 13.7851 72.2894 13.7851L72.2895 13.7852ZM49.2949 13.6508V7.43202H49.3949H53.009V8.37265H50.2684V10.0805H52.7402V11.0023H50.2684V12.7117H53.009V13.6508H49.2949ZM55.282 13.6508V8.37265H53.6008V7.43202H57.9367V8.37265H57.8367H56.2555V13.6508H55.282ZM60.7078 13.6508V7.43202H61.6812V7.53202V13.6508H60.7078ZM64.1316 13.6508V8.37265H62.4504V7.43202H66.7863V8.37265H66.6863H65.1051V13.6508H64.1316ZM76.3457 13.6508V7.43202H77.4434L80.2369 11.9043L80.2129 11.0553V7.43202H81.1863V13.6508H80.223L77.2951 8.95253L77.3191 9.80097V9.80234V13.6508H76.3457ZM72.2895 12.8461C72.9209 12.8461 73.4364 12.6307 73.8566 12.1955L73.8572 12.1947L73.8578 12.1941C74.284 11.7678 74.4926 11.219 74.4926 10.5414C74.4926 9.86539 74.284 9.31475 73.8578 8.88864L73.8572 8.88803L73.8566 8.88743C73.4365 8.4523 72.9211 8.23821 72.2895 8.23821C71.6568 8.23821 71.1414 8.45193 70.7133 8.88704L70.7129 8.88744C70.2946 9.3239 70.0863 9.86558 70.0863 10.5413C70.0863 11.2188 70.2945 11.7587 70.7129 12.1953L70.7133 12.1957C71.1415 12.6308 71.6569 12.846 72.2895 12.846V12.8461Z" fill="white"/>
<path d="M21.584 19.973L10.9375 31.273C10.9379 31.2754 10.9387 31.2773 10.9391 31.2797C11.2656 32.5066 12.3863 33.4102 13.7164 33.4102C14.2481 33.4102 14.7473 33.2664 15.1754 33.0141L15.2094 32.9941L27.1934 26.0789L21.584 19.973Z" fill="#EA4335"/>
<path d="M32.3567 18.0492L32.3465 18.0422L27.1727 15.0429L21.3438 20.2297L27.193 26.0781L32.3394 23.1086C33.2417 22.6215 33.8543 21.6703 33.8543 20.5734C33.8543 19.4844 33.2499 18.5379 32.3567 18.0492Z" fill="#FBBC04"/>
<path d="M10.9375 9.82652C10.8735 10.0625 10.8398 10.3097 10.8398 10.5664V30.534C10.8398 30.7902 10.8731 31.0383 10.9379 31.2734L21.9508 20.2625L10.9375 9.82652Z" fill="#4285F4"/>
<path d="M21.6629 20.5508L27.1735 15.0418L15.2031 8.10158C14.768 7.84098 14.2602 7.69058 13.7168 7.69058C12.3867 7.69058 11.2645 8.59568 10.9379 9.82418C10.9375 9.82538 10.9375 9.82618 10.9375 9.82728L21.6629 20.5508Z" fill="#34A853"/>
</svg>
