<svg width="32" height="32" viewBox="0 0 32 32" fill="none" xmlns="http://www.w3.org/2000/svg">
<path d="M25.0781 8.33135H26.8915C26.6381 7.97135 26.3715 7.63802 26.0915 7.30469L25.0781 8.33135Z" fill="white"/>
<path d="M24.6946 5.89375C24.3613 5.61375 24.028 5.34708 23.668 5.09375V6.90708L24.6946 5.89375Z" fill="white"/>
<path d="M26.1047 7.30854L30.0381 3.37521C30.4247 2.98854 30.4247 2.34854 30.0381 1.96188C29.6514 1.57521 29.0114 1.57521 28.6247 1.96188L24.6914 5.89521C25.1981 6.33521 25.6647 6.81521 26.1047 7.30854Z" fill="white"/>
<path d="M23.6664 4C23.6664 3.45333 23.213 3 22.6664 3C22.133 3 21.7064 3.42667 21.6797 3.94667C22.373 4.28 23.0397 4.65333 23.6664 5.09333V4Z" fill="white"/>
<path d="M29.0012 9.33594C29.0012 8.78927 28.5479 8.33594 28.0012 8.33594H26.8945C27.3345 8.9626 27.7212 9.62927 28.0412 10.3226C28.5745 10.2959 29.0012 9.86927 29.0012 9.33594Z" fill="white"/>
<path d="M17 19.6651H17.4C17.92 19.6651 18.3333 19.1984 18.3333 18.6251C18.3333 17.9051 18.1333 17.7984 17.68 17.6384L17 17.3984V19.6651Z" fill="white"/>
<path d="M28.0546 10.3174C28.0413 10.3174 28.028 10.3307 28.0013 10.3307H22.668C22.5346 10.3307 22.4146 10.3041 22.2813 10.2507C22.0413 10.1441 21.8413 9.9574 21.7346 9.70406C21.6946 9.58406 21.668 9.46406 21.668 9.33073V3.9974C21.668 3.98406 21.6813 3.97073 21.6813 3.94406C19.948 3.13073 18.028 2.66406 16.0013 2.66406C8.6413 2.66406 2.66797 8.6374 2.66797 15.9974C2.66797 23.3574 8.6413 29.3307 16.0013 29.3307C23.3613 29.3307 29.3346 23.3574 29.3346 15.9974C29.3346 13.9707 28.868 12.0507 28.0546 10.3174ZM18.3346 15.7574C19.188 16.0507 20.3346 16.6774 20.3346 18.6374C20.3346 20.3041 19.0146 21.6774 17.4013 21.6774H17.0013V22.0107C17.0013 22.5574 16.548 23.0107 16.0013 23.0107C15.4546 23.0107 15.0013 22.5574 15.0013 22.0107V21.6774H14.8946C13.1213 21.6774 11.668 20.1841 11.668 18.3441C11.668 17.7841 12.1213 17.3307 12.668 17.3307C13.2146 17.3307 13.668 17.7841 13.668 18.3307C13.668 19.0641 14.2146 19.6641 14.8946 19.6641H15.0013V16.7041L13.668 16.2374C12.8146 15.9441 11.668 15.3174 11.668 13.3574C11.668 11.6907 12.988 10.3174 14.6013 10.3174H15.0013V9.9974C15.0013 9.45073 15.4546 8.9974 16.0013 8.9974C16.548 8.9974 17.0013 9.45073 17.0013 9.9974V10.3307H17.108C18.8813 10.3307 20.3346 11.8241 20.3346 13.6641C20.3346 14.2107 19.8813 14.6641 19.3346 14.6641C18.788 14.6641 18.3346 14.2107 18.3346 13.6641C18.3346 12.9307 17.788 12.3307 17.108 12.3307H17.0013V15.2907L18.3346 15.7574Z" fill="white"/>
<path d="M13.668 13.3759C13.668 14.0959 13.868 14.2026 14.3213 14.3626L15.0013 14.6026V12.3359H14.6013C14.0946 12.3359 13.668 12.8026 13.668 13.3759Z" fill="white"/>
</svg>
