<svg width="33" height="32" viewBox="0 0 33 32" fill="none" xmlns="http://www.w3.org/2000/svg">
<g id="vuesax/bold/path">
<g id="path">
<path id="Vector" d="M27.1932 14.2672L24.3665 16.0539C23.8332 16.3872 23.1532 16.3072 22.7132 15.8672L16.6732 9.82721C16.2332 9.38721 16.1532 8.70721 16.4865 8.17388L18.2732 5.34721C19.3665 3.62721 21.5532 3.54721 23.1665 5.14721L27.4065 9.38721C28.8998 10.8939 28.8065 13.2405 27.1932 14.2672Z" fill="white"/>
<g id="Vector_2">
<path d="M20.1168 26.6023L8.49012 27.9623V27.9623C7.43343 28.1032 7.1546 26.8578 7.90841 26.104L11.1435 22.8689C11.5701 22.4556 11.5701 21.8023 11.1435 21.3889C10.7435 20.9756 10.0901 20.9756 9.66345 21.3889L6.41784 24.6346C5.66921 25.3832 4.44743 25.1072 4.57012 24.0556V24.0556L5.94345 12.4289C6.29012 9.52227 7.35679 8.56227 10.4235 8.74894L12.4235 8.86894C13.0768 8.90894 13.6901 9.18894 14.1568 9.65561L22.8901 18.3889C23.3568 18.8556 23.6368 19.4689 23.6635 20.1223L23.7835 22.1223C24.0901 25.2023 23.0368 26.2689 20.1168 26.6023Z" fill="white"/>
</g>
</g>
</g>
</svg>
