<svg width="33" height="32" viewBox="0 0 33 32" fill="none" xmlns="http://www.w3.org/2000/svg">
<g id="vuesax/bold/picture-frame">
<g id="picture-frame">
<path id="Vector" d="M14.5146 14.9574L11.5813 3.18406C11.5146 2.8774 11.2346 2.66406 10.9146 2.66406C6.63464 2.66406 3.16797 6.13073 3.16797 10.4107V18.0107C3.16797 18.4641 3.60797 18.7974 4.04797 18.6641L14.048 15.7707C14.3946 15.6774 14.608 15.3174 14.5146 14.9574Z" fill="white"/>
<path id="Vector_2" d="M15.328 18.2385C15.2346 17.8652 14.848 17.6385 14.4746 17.7452L3.6613 20.8918C3.36797 20.9852 3.16797 21.2518 3.16797 21.5585V21.5852C3.16797 25.8652 6.63464 29.3318 10.9146 29.3318H17.208C17.648 29.3318 17.9813 28.9185 17.8746 28.4785L15.328 18.2385Z" fill="white"/>
<path id="Vector_3" d="M22.0877 2.66406H14.4211C13.9811 2.66406 13.6477 3.0774 13.7544 3.5174L20.0744 28.8107C20.1544 29.1174 20.4211 29.3307 20.7411 29.3307H22.0744C26.3677 29.3307 29.8344 25.8641 29.8344 21.5841V10.4107C29.8344 6.13073 26.3677 2.66406 22.0877 2.66406Z" fill="white"/>
</g>
</g>
</svg>
