<svg width="32" height="32" viewBox="0 0 32 32" fill="none" xmlns="http://www.w3.org/2000/svg">
<path d="M21.588 2.66406H10.4146C5.5613 2.66406 2.66797 5.5574 2.66797 10.4107V21.5707C2.66797 26.4374 5.5613 29.3307 10.4146 29.3307H21.5746C26.428 29.3307 29.3213 26.4374 29.3213 21.5841V10.4107C29.3346 5.5574 26.4413 2.66406 21.588 2.66406ZM10.228 7.33073C10.228 6.78406 10.6813 6.33073 11.228 6.33073C11.7746 6.33073 12.228 6.78406 12.228 7.33073V12.5307C12.228 13.0774 11.7746 13.5307 11.228 13.5307C10.6813 13.5307 10.228 13.0774 10.228 12.5307V7.33073ZM12.9237 21.7964C12.53 22.0043 12.228 22.3838 12.228 22.829V24.6641C12.228 25.2107 11.7746 25.6641 11.228 25.6641C10.6813 25.6641 10.228 25.2107 10.228 24.6641V22.829C10.228 22.3838 9.9258 22.0044 9.53241 21.796C8.38192 21.1865 7.6013 19.986 7.6013 18.5974C7.6013 16.5974 9.22797 14.9574 11.228 14.9574C13.228 14.9574 14.868 16.5841 14.868 18.5974C14.868 19.9863 14.0776 21.187 12.9237 21.7964ZM21.7746 24.6641C21.7746 25.2107 21.3213 25.6641 20.7746 25.6641C20.228 25.6641 19.7746 25.2107 19.7746 24.6641V19.4641C19.7746 18.9174 20.228 18.4641 20.7746 18.4641C21.3213 18.4641 21.7746 18.9174 21.7746 19.4641V24.6641ZM20.7746 17.0241C18.7746 17.0241 17.1346 15.3974 17.1346 13.3841C17.1346 11.9952 17.925 10.7945 19.0789 10.1851C19.4726 9.97717 19.7746 9.59767 19.7746 9.15248V7.33073C19.7746 6.78406 20.228 6.33073 20.7746 6.33073C21.3213 6.33073 21.7746 6.78406 21.7746 7.33073V9.16582C21.7746 9.61101 22.0768 9.99038 22.4702 10.1988C23.6207 10.8083 24.4013 12.0088 24.4013 13.3974C24.4013 15.3974 22.7746 17.0241 20.7746 17.0241Z" fill="white"/>
</svg>
