<svg width="33" height="32" viewBox="0 0 33 32" fill="none" xmlns="http://www.w3.org/2000/svg">
<g id="vuesax/bold/timer">
<g id="timer">
<path id="Vector" d="M23.6873 20.8933L18.3006 16H14.6873L9.30062 20.8933C7.79396 22.2533 7.30062 24.3467 8.03396 26.24C8.76729 28.12 10.554 29.3333 12.5673 29.3333H20.4206C22.4473 29.3333 24.2206 28.12 24.954 26.24C25.6873 24.3467 25.194 22.2533 23.6873 20.8933ZM18.9273 24.1867H14.074C13.5673 24.1867 13.1673 23.7733 13.1673 23.28C13.1673 22.7867 13.5806 22.3733 14.074 22.3733H18.9273C19.434 22.3733 19.834 22.7867 19.834 23.28C19.834 23.7733 19.4206 24.1867 18.9273 24.1867Z" fill="white"/>
<path id="Vector_2" d="M24.9662 5.7574C24.2329 3.8774 22.4462 2.66406 20.4329 2.66406H12.5662C10.5529 2.66406 8.76623 3.8774 8.0329 5.7574C7.3129 7.65073 7.80623 9.74406 9.3129 11.1041L14.6996 15.9974H18.3129L23.6996 11.1041C25.1929 9.74406 25.6862 7.65073 24.9662 5.7574ZM18.9262 9.6374H14.0729C13.5662 9.6374 13.1662 9.22406 13.1662 8.73073C13.1662 8.2374 13.5796 7.82406 14.0729 7.82406H18.9262C19.4329 7.82406 19.8329 8.2374 19.8329 8.73073C19.8329 9.22406 19.4196 9.6374 18.9262 9.6374Z" fill="white"/>
</g>
</g>
</svg>
