<svg width="32" height="32" viewBox="0 0 32 32" fill="none" xmlns="http://www.w3.org/2000/svg">
<g id="vuesax/bold/bitcoin-convert">
<g id="bitcoin-convert">
<g id="Group">
<path id="Vector" d="M30.6698 20.2969C30.1232 20.2969 29.6698 20.7502 29.6698 21.2969C29.6698 25.2435 26.9232 28.5502 23.2298 29.4169L23.5898 28.8169C23.8698 28.3369 23.7232 27.7235 23.2432 27.4435C22.7765 27.1635 22.1498 27.3102 21.8698 27.7902L20.4698 30.1235C20.2832 30.4302 20.2832 30.8169 20.4565 31.1235C20.6298 31.4435 20.9632 31.6302 21.3232 31.6302C27.0165 31.6302 31.6565 26.9902 31.6565 21.2969C31.6698 20.7502 31.2165 20.2969 30.6698 20.2969Z" fill="white"/>
<path id="Vector_2" d="M10.6693 0.296875C4.97594 0.296875 0.335938 4.93688 0.335938 10.6302C0.335938 11.1769 0.789271 11.6302 1.33594 11.6302C1.8826 11.6302 2.33594 11.1769 2.33594 10.6302C2.33594 6.68354 5.0826 3.37687 8.77594 2.51021L8.41594 3.11021C8.13594 3.59021 8.2826 4.20354 8.7626 4.48354C9.22927 4.76354 9.85594 4.61688 10.1359 4.13687L11.5359 1.80354C11.7093 1.49688 11.7226 1.12354 11.5359 0.803542C11.3626 0.496875 11.0293 0.296875 10.6693 0.296875Z" fill="white"/>
</g>
<path id="Vector_3" d="M28.667 11.5626C28.667 15.6693 25.6803 19.0559 21.7736 19.6826C21.7736 19.6693 21.7736 19.6693 21.7736 19.6559C21.387 14.6826 17.3603 10.6293 12.3203 10.2293C12.947 6.3226 16.3336 3.33594 20.4403 3.33594C24.987 3.33594 28.667 7.01594 28.667 11.5626Z" fill="white"/>
<path id="Vector_4" d="M13.0815 18.9364C13.0815 18.7364 12.8548 18.4297 12.5748 18.4297H9.82812V19.4297H12.5748C12.8548 19.443 13.0815 19.2164 13.0815 18.9364Z" fill="white"/>
<path id="Vector_5" d="M13.1081 21.4375H12.5748H9.82812V22.4375H13.1215C13.5481 22.4375 13.8415 22.1708 13.8415 21.9308C13.8415 21.6908 13.5348 21.4375 13.1081 21.4375Z" fill="white"/>
<path id="Vector_6" d="M19.7759 19.8031C19.4693 15.7631 16.2426 12.5365 12.2026 12.2298C11.9893 12.2165 11.7893 12.2031 11.5626 12.2031C7.01594 12.2031 3.33594 15.8831 3.33594 20.4431C3.33594 24.9898 7.01594 28.6698 11.5626 28.6698C16.1093 28.6698 19.8026 24.9898 19.8026 20.4431C19.8026 20.2165 19.7893 20.0165 19.7759 19.8031ZM13.1093 24.4431H12.2293V24.9498C12.2293 25.4965 11.7759 25.9498 11.2293 25.9498C10.6826 25.9498 10.2293 25.4965 10.2293 24.9498V24.4431H8.82927C8.2826 24.4431 7.82927 23.9898 7.82927 23.4431V20.4431V17.4431C7.82927 16.8965 8.2826 16.4431 8.82927 16.4431H10.2293V15.9365C10.2293 15.3898 10.6826 14.9365 11.2293 14.9365C11.7759 14.9365 12.2293 15.3898 12.2293 15.9365V16.4431H12.5759C13.9093 16.4431 15.0826 17.6165 15.0826 18.9498C15.0826 19.3365 14.9893 19.6965 14.8293 20.0298C15.4426 20.4831 15.8293 21.1765 15.8293 21.9498C15.8293 23.3231 14.6159 24.4431 13.1093 24.4431Z" fill="white"/>
</g>
</g>
</svg>
