<svg width="32" height="32" viewBox="0 0 32 32" fill="none" xmlns="http://www.w3.org/2000/svg">
<g id="vuesax/bold/chart">
<g id="chart">
<path id="Vector" d="M15.9974 2.66406C8.6374 2.66406 2.66406 8.6374 2.66406 15.9974C2.66406 23.3574 8.6374 29.3307 15.9974 29.3307C23.3574 29.3307 29.3307 23.3574 29.3307 15.9974C29.3307 8.6374 23.3574 2.66406 15.9974 2.66406ZM15.9974 11.6641C15.4507 11.6641 14.9974 11.2107 14.9974 10.6641C14.9974 10.1174 15.4507 9.66406 15.9974 9.66406C19.4907 9.66406 22.3307 12.5041 22.3307 15.9974C22.3307 19.4907 19.4907 22.3307 15.9974 22.3307C15.4507 22.3307 14.9974 21.8774 14.9974 21.3307C14.9974 20.7841 15.4507 20.3307 15.9974 20.3307C18.3841 20.3307 20.3307 18.3841 20.3307 15.9974C20.3307 13.6107 18.3841 11.6641 15.9974 11.6641ZM15.9974 26.3307C10.3041 26.3307 5.66406 21.6907 5.66406 15.9974C5.66406 15.4507 6.1174 14.9974 6.66406 14.9974C7.21073 14.9974 7.66406 15.4507 7.66406 15.9974C7.66406 20.5974 11.3974 24.3307 15.9974 24.3307C20.5974 24.3307 24.3307 20.5974 24.3307 15.9974C24.3307 11.3974 20.5974 7.66406 15.9974 7.66406C15.4507 7.66406 14.9974 7.21073 14.9974 6.66406C14.9974 6.1174 15.4507 5.66406 15.9974 5.66406C21.6907 5.66406 26.3307 10.3041 26.3307 15.9974C26.3307 21.6907 21.6907 26.3307 15.9974 26.3307Z" fill="white"/>
</g>
</g>
</svg>
