<svg width="32" height="32" viewBox="0 0 32 32" fill="none" xmlns="http://www.w3.org/2000/svg">
<g id="vuesax/bold/copy-success">
<g id="copy-success">
<g id="Vector">
<path d="M22.7997 2.66406H17.1997C13.3583 2.66406 11.423 3.93792 10.8581 6.9826C10.655 8.07774 11.5897 8.9974 12.7035 8.9974H14.7997C20.3997 8.9974 22.9997 11.5974 22.9997 17.1974V19.2936C22.9997 20.4074 23.9193 21.3421 25.0145 21.1389C28.0592 20.5741 29.333 18.6388 29.333 14.7974V9.1974C29.333 4.53073 27.4664 2.66406 22.7997 2.66406Z" fill="#F6F7FF"/>
</g>
<path id="Vector_2" d="M14.7974 10.6641H9.1974C4.53073 10.6641 2.66406 12.5307 2.66406 17.1974V22.7974C2.66406 27.4641 4.53073 29.3307 9.1974 29.3307H14.7974C19.4641 29.3307 21.3307 27.4641 21.3307 22.7974V17.1974C21.3307 12.5307 19.4641 10.6641 14.7974 10.6641ZM16.3841 18.1974L11.4374 23.1441C11.2507 23.3307 11.0107 23.4241 10.7574 23.4241C10.5041 23.4241 10.2641 23.3307 10.0774 23.1441L7.5974 20.6641C7.22406 20.2907 7.22406 19.6907 7.5974 19.3174C7.97073 18.9441 8.57073 18.9441 8.94406 19.3174L10.7441 21.1174L15.0241 16.8374C15.3974 16.4641 15.9974 16.4641 16.3707 16.8374C16.7441 17.2107 16.7574 17.8241 16.3841 18.1974Z" fill="#F6F7FF"/>
</g>
</g>
</svg>
