<svg width="97" height="45" viewBox="0 0 97 45" fill="none" xmlns="http://www.w3.org/2000/svg">
<path d="M16.2041 42.0693C13.6213 42.0688 11.0785 41.4314 8.80089 40.2136C6.52326 38.9958 4.58109 37.2351 3.14637 35.0875C1.71165 32.9399 0.828653 30.4716 0.575585 27.9013C0.322518 25.331 0.707186 22.7379 1.69552 20.3517C2.68386 17.9655 4.24537 15.8599 6.24175 14.2213C8.23814 12.5827 10.6078 11.4616 13.1409 10.9574C15.6739 10.4533 18.2923 10.5815 20.7639 11.3308C23.2356 12.0801 25.4844 13.4274 27.3111 15.2533L22.0501 20.5143C20.8939 19.3581 19.4209 18.5707 17.8172 18.2517C16.2136 17.9326 14.5513 18.0963 13.0407 18.722C11.5301 19.3477 10.2389 20.4073 9.33052 21.7668C8.42211 23.1263 7.93725 24.7247 7.93725 26.3598C7.93725 27.9949 8.42211 29.5932 9.33052 30.9527C10.2389 32.3122 11.5301 33.3718 13.0407 33.9975C14.5513 34.6232 16.2136 34.7869 17.8172 34.4679C19.4209 34.1489 20.8939 33.3615 22.0501 32.2053L27.3111 37.4663C25.856 38.9295 24.125 40.0896 22.2185 40.8792C20.3119 41.6688 18.2676 42.0723 16.2041 42.0663" fill="white"/>
<path d="M53.8847 17.3843C53.2419 16.0086 52.2824 14.8048 51.0847 13.8713C49.0715 12.1976 46.5512 11.2541 43.9337 11.1943H31.2617V41.1433C31.2621 40.2822 31.4966 39.4375 31.9402 38.6994C32.3837 37.9613 33.0196 37.3577 33.7797 36.9532C34.5399 36.5487 35.3957 36.3584 36.2556 36.4029C37.1156 36.4473 37.9473 36.7247 38.6617 37.2053V33.4843L43.8887 33.4003C46.52 33.3464 49.0554 32.4028 51.0817 30.7233C52.2759 29.7949 53.235 28.5987 53.8817 27.2313C54.6214 25.7002 54.9936 24.0176 54.9687 22.3173C54.9918 20.6108 54.6198 18.9221 53.8817 17.3833M46.4037 25.0793C45.7068 25.6521 44.8386 25.9759 43.9367 25.9993H38.6637V18.5993H43.8907C44.8096 18.6193 45.6943 18.9511 46.3997 19.5403C46.8096 19.8731 47.1337 20.2993 47.3448 20.7832C47.5558 21.2671 47.6477 21.7946 47.6127 22.3213C47.6488 22.8452 47.5574 23.37 47.3461 23.8507C47.1348 24.3314 46.8101 24.7537 46.3997 25.0813" fill="white"/>
<path d="M81.3553 10.6533H53.0703C55.7127 12.4904 57.6299 15.1933 58.4903 18.2943H65.2273V42.0683H72.8683V18.2943H81.3593L81.3553 10.6533Z" fill="white"/>
<path d="M39.3492 41.0418C39.3492 41.7156 39.1493 42.3743 38.775 42.9346C38.4006 43.4949 37.8685 43.9316 37.246 44.1894C36.6234 44.4473 35.9384 44.5148 35.2775 44.3833C34.6166 44.2518 34.0095 43.9274 33.533 43.4509C33.0566 42.9744 32.7321 42.3673 32.6006 41.7064C32.4692 41.0455 32.5366 40.3605 32.7945 39.738C33.0524 39.1154 33.4891 38.5833 34.0493 38.209C34.6096 37.8346 35.2683 37.6348 35.9422 37.6348C36.8458 37.6348 37.7123 37.9937 38.3513 38.6327C38.9902 39.2716 39.3492 40.1382 39.3492 41.0418Z" fill="#00b144"/>
<path d="M86.3115 8.24932L81.5705 6.49032C81.1778 6.34497 80.8439 6.07454 80.62 5.72069C80.3961 5.36684 80.2948 4.94921 80.3316 4.53211C80.3685 4.11501 80.5414 3.7216 80.8238 3.41246C81.1062 3.10332 81.4825 2.89561 81.8945 2.82132L86.2695 2.02932L94.2525 0.581321C94.5823 0.521624 94.9219 0.549767 95.2373 0.662923C95.5527 0.776079 95.8327 0.970261 96.0493 1.22595C96.2659 1.48165 96.4114 1.78984 96.4711 2.11956C96.5308 2.44928 96.5027 2.78891 96.3895 3.10432L93.6495 10.7413L92.1495 14.9263C92.0081 15.32 91.7413 15.6563 91.3901 15.8835C91.0389 16.1108 90.6228 16.2164 90.2057 16.1841C89.7887 16.1518 89.3938 15.9835 89.0817 15.7049C88.7697 15.4264 88.5577 15.053 88.4785 14.6423L87.5235 9.67532C87.4611 9.3535 87.3168 9.05321 87.1045 8.80342C86.8922 8.55364 86.6191 8.3628 86.3115 8.24932Z" fill="#33CCFF"/>
</svg>
