<svg width="80" height="80" viewBox="0 0 80 80" fill="none" xmlns="http://www.w3.org/2000/svg">
<path opacity="0.4" d="M73.335 30V54.8667C73.335 62.5 67.135 68.6667 59.5016 68.6667H21.335L33.235 56.7667L37.5016 52.5L60.0016 30H73.335Z" fill="#00b144"/>
<path opacity="0.4" d="M50.0003 30L13.3337 66.6667C9.33366 64.2667 6.66699 59.8667 6.66699 54.8667V30H50.0003Z" fill="#00b144"/>
<path d="M73.3333 25.1346V30.0012H60L71.5667 18.4346C72.7 20.4012 73.3333 22.7012 73.3333 25.1346Z" fill="#00b144"/>
<path d="M66.667 13.335L50.0003 30.0016H6.66699V25.135C6.66699 17.5016 12.867 11.335 20.5003 11.335H59.5003C62.1337 11.335 64.567 12.0683 66.667 13.335Z" fill="#00b144"/>
<path d="M27.3667 52.6333L22.5 57.5H20C18.6333 57.5 17.5 56.3667 17.5 55C17.5 53.6333 18.6333 52.5 20 52.5H26.6667C26.9 52.5 27.1333 52.5333 27.3667 52.6333Z" fill="#00b144"/>
<path d="M50.8324 55C50.8324 56.3667 49.6991 57.5 48.3324 57.5H34.9991C34.3324 57.5 33.6991 57.2 33.2324 56.7667L37.4991 52.5H48.3324C49.6991 52.5 50.8324 53.6333 50.8324 55Z" fill="#00b144"/>
<path d="M72.5659 7.43262C71.5659 6.43262 69.9326 6.43262 68.9326 7.43262L7.43262 68.966C6.43262 69.966 6.43262 71.5993 7.43262 72.5993C7.93262 73.066 8.56595 73.3326 9.23262 73.3326C9.89928 73.3326 10.5326 73.066 11.0326 72.566L72.5659 11.0326C73.5993 10.0326 73.5993 8.43262 72.5659 7.43262Z" fill="#00b144"/>
</svg>
