<svg width="32" height="32" viewBox="0 0 32 32" fill="none" xmlns="http://www.w3.org/2000/svg">
<g id="gas-station">
<path id="Vector" d="M4.79688 19.2031V24.0031C4.79688 26.6543 9.81128 28.8031 15.9969 28.8031C22.1825 28.8031 27.1969 26.6543 27.1969 24.0031V19.2031C27.1969 21.8543 22.1825 24.0031 15.9969 24.0031C9.81128 24.0031 4.79688 21.8543 4.79688 19.2031Z" fill="white"/>
<path id="Vector_2" d="M4.79688 11.2031V16.0031C4.79688 18.6543 9.81128 20.8031 15.9969 20.8031C22.1825 20.8031 27.1969 18.6543 27.1969 16.0031V11.2031C27.1969 13.8543 22.1825 16.0031 15.9969 16.0031C9.81128 16.0031 4.79688 13.8543 4.79688 11.2031Z" fill="white"/>
<path id="Vector_3" d="M27.1969 8.00312C27.1969 10.6543 22.1825 12.8031 15.9969 12.8031C9.81128 12.8031 4.79688 10.6543 4.79688 8.00312C4.79688 5.35192 9.81128 3.20312 15.9969 3.20312C22.1825 3.20312 27.1969 5.35192 27.1969 8.00312Z" fill="white"/>
</g>
</svg>
