<svg width="186" height="186" viewBox="0 0 186 186" fill="none" xmlns="http://www.w3.org/2000/svg">
<g id="graph">
<path id="elipse" d="M96.2206 14.0156C96.5345 6.31766 103.069 0.225903 110.633 1.68665C129.334 5.29773 146.597 14.5928 159.968 28.4686C173.339 42.3444 181.988 59.9402 184.904 78.7615C186.083 86.3751 179.754 92.679 172.049 92.7076C164.345 92.7361 158.226 86.4429 156.56 78.9209C153.986 67.3049 148.256 56.5231 139.878 47.828C131.499 39.133 120.937 33.0075 109.424 30.0056C101.969 28.0618 95.9067 21.7136 96.2206 14.0156Z" fill="#F6F7FF"/>
<path id="elipse_2" d="M171.972 96.4999C179.669 96.841 185.738 103.397 184.25 110.956C180.595 129.532 171.328 146.671 157.537 159.963C140.376 176.502 117.52 185.821 93.6872 185.997C69.8544 186.174 46.8636 177.193 29.4601 160.909C15.474 147.823 5.95437 130.823 2.02491 112.303C0.425871 104.766 6.39693 98.1215 14.0879 97.6666C21.7788 97.2118 28.2369 103.157 30.317 110.575C33.5079 121.955 39.764 132.342 48.5221 140.537C60.7045 151.935 76.7981 158.222 93.4811 158.098C110.164 157.975 126.163 151.451 138.176 139.874C146.812 131.551 152.913 121.073 155.936 109.647C157.906 102.198 164.276 96.1588 171.972 96.4999Z" fill="#00B144"/>
<path id="elipse_3" d="M13.9634 91.5459C6.26031 91.4042 0.024002 85.0078 1.31527 77.4124C4.50826 58.6309 13.419 41.1599 26.9984 27.4806C40.5778 13.8013 57.9829 4.76267 76.7405 1.43204C84.3262 0.0851097 90.7681 6.27434 90.9663 13.9762C91.1645 21.678 85.0077 27.9344 77.5242 29.766C65.9643 32.5954 55.3085 38.5642 46.7989 47.1364C38.2893 55.7087 32.3988 66.408 29.6542 77.9884C27.8775 85.4851 21.6664 91.6876 13.9634 91.5459Z" fill="#3A3A47"/>
</g>
</svg>
