<svg width="19" height="20" viewBox="0 0 19 20" fill="none" xmlns="http://www.w3.org/2000/svg">
<path d="M5.4302 7.78991C7.17369 10.244 9.25368 12.3283 11.7099 14.0675C11.9179 13.7708 12.1103 13.4953 12.3041 13.2213C13.0693 12.1423 14.3209 11.9201 15.4042 12.6733C16.271 13.276 17.137 13.8794 18.0002 14.4864C18.9913 15.1835 19.2639 16.2213 18.7357 17.3146C18.1436 18.5384 17.1384 19.2072 15.8195 19.4194C14.3372 19.6579 12.9252 19.3406 11.5516 18.8132C9.61785 18.0706 7.90843 16.9532 6.34525 15.608C4.19002 13.7537 2.40038 11.6049 1.15097 9.03507C0.502132 7.70117 0.0392825 6.30906 0.00236811 4.80763C-0.0288671 3.52982 0.242312 2.3443 1.20847 1.43208C1.792 0.88191 2.46356 0.466621 3.31614 0.502116C3.94724 0.528382 4.48107 0.788204 4.84951 1.29223C5.57076 2.28112 6.28278 3.27781 6.95079 4.3029C7.54284 5.21228 7.29934 6.40064 6.43896 7.06794C6.12447 7.31215 5.79153 7.53222 5.4302 7.78991Z" fill="black"/>
</svg>
