<svg width="21" height="20" viewBox="0 0 21 20" fill="none" xmlns="http://www.w3.org/2000/svg">
<path d="M10.5004 8.93748H12.592C12.5966 8.84116 12.6045 8.75407 12.6045 8.66633C12.6051 7.73477 12.6032 6.80255 12.6058 5.87099C12.6077 5.14659 13.0318 4.71973 13.756 4.71907C15.7825 4.71643 17.8098 4.71709 19.8364 4.71907C20.5749 4.71973 20.9984 5.14329 20.999 5.88352C21.0003 10.0313 21.0003 14.1798 20.999 18.3276C20.999 19.0857 20.5808 19.5 19.8226 19.5C13.6109 19.5 7.39849 19.5 1.18677 19.5C0.412769 19.5 0.000492368 19.089 0.000492368 18.3125C-0.000164123 12.7706 -0.000164123 7.22874 0.000492368 1.68688C0.000492368 0.911021 0.412769 0.5 1.18677 0.5C3.8948 0.5 6.60282 0.5 9.31085 0.5C10.0822 0.5 10.4998 0.916959 10.5004 1.68754C10.5004 3.99665 10.5004 6.30576 10.5004 8.61486C10.5004 8.71317 10.5004 8.81213 10.5004 8.93748ZM2.10455 5.76477H4.18234V3.68327H2.10455V5.76477ZM2.11242 7.89706V9.98252H4.17971V7.89706H2.11242ZM8.38191 3.68327H6.32184V5.7674H8.38191V3.68327ZM6.32119 7.90036V9.98845H8.38126V7.90036H6.32119ZM17.8334 9.98647V7.9063H15.7766V9.98647H17.8334ZM2.10717 14.1996H4.18497V12.1306H2.10717V14.1996ZM6.31528 14.2022H8.37469V12.1326H6.31528V14.2022ZM17.8334 14.2062V12.1359H15.772V14.2062H17.8334Z" fill="black"/>
</svg>
