<?xml version="1.0" encoding="UTF-8"?>
<svg id="Layer_1" data-name="Layer 1" xmlns="http://www.w3.org/2000/svg" version="1.1" viewBox="0 0 21 20">
  <defs>
    <style>
      .cls-1 {
        fill: #00b144 ;
        stroke-width: 0px;
      }
    </style>
  </defs>
  <path class="cls-1" d="M10.3,8.9h2.1v-3.1c0-.7.4-1.2,1.2-1.2h6.1c.7,0,1.2.4,1.2,1.2v12.4c0,.8-.4,1.2-1.2,1.2H1c-.8,0-1.2-.4-1.2-1.2V1.6c0-.7.4-1.1,1.2-1.1h8.1c.8,0,1.2.4,1.2,1.2v7.2ZM1.9,5.8h2.1v-2.1H1.9v2.1ZM1.9,7.9v2.1h2.1v-2.1H1.9ZM8.2,3.7h-2.1v2.1h2.1v-2.1ZM6.1,7.9v2.1h2.1v-2.1h-2.1ZM17.6,10v-2.1h-2.1v2.1h2.1ZM1.9,14.2h2.1v-2.1H1.9s0,2.1,0,2.1ZM6.1,14.2h2.1v-2.1h-2.1s0,2.1,0,2.1ZM17.6,14.2v-2.1h-2.1v2.1s2.1,0,2.1,0Z"/>
</svg>