<svg width="22" height="16" viewBox="0 0 22 16" fill="none" xmlns="http://www.w3.org/2000/svg">
<g clip-path="url(#clip0_3992_226803)">
<path d="M0 5.17523C0.132344 5.00831 0.25151 4.82806 0.399323 4.67736C1.67635 3.37848 2.95854 2.08424 4.23958 0.788835C4.61771 0.40688 4.95458 0.40746 5.335 0.787676C5.54354 0.995752 5.75495 1.20035 5.94802 1.3893C4.26651 3.11882 2.60276 4.83037 0.902917 6.57844C0.571771 6.19243 0.285885 5.858 0 5.52299C0 5.40707 0 5.29115 0 5.17523Z" fill="black"/>
<path d="M22.0006 5.52273C21.7187 5.85426 21.4374 6.18579 21.1343 6.54282C19.4288 4.8191 17.7507 3.12377 16.0801 1.4354C16.3224 1.17806 16.5653 0.883048 16.8472 0.632661C17.085 0.421108 17.4413 0.473272 17.686 0.713225C17.9839 1.00534 18.2743 1.30557 18.5677 1.60291C19.5749 2.62184 20.5843 3.63846 21.587 4.66203C21.7399 4.81794 21.8637 5.00399 22.0006 5.17555V5.52331V5.52273Z" fill="black"/>
<path d="M16.6498 11.8182C16.3513 12.2923 15.9079 12.6389 15.3361 12.8081C15.2152 12.8441 15.1648 12.9026 15.1281 13.0162C14.8262 13.9517 14.1983 14.5168 13.2404 14.7057C13.147 14.7243 13.0513 14.7712 12.9745 14.8292C11.6981 15.8046 9.98734 15.7113 8.85813 14.5747C6.52292 12.225 4.19859 9.86492 1.87026 7.50885C1.85536 7.49378 1.84276 7.47581 1.81641 7.44451C1.86224 7.39409 1.90693 7.34077 1.95563 7.2915C3.41828 5.81121 4.88151 4.33091 6.34474 2.85062C7.23161 1.9534 8.29495 1.59753 9.53531 1.78474C9.56911 1.78995 9.60177 1.80097 9.67281 1.81893C9.60234 1.89428 9.55307 1.94934 9.50094 2.00209C8.53958 2.97523 7.57708 3.9478 6.61573 4.92152C5.71969 5.82917 5.73974 7.02894 6.66385 7.90703C8.32417 9.4847 10.9097 9.65568 12.7774 8.31101C12.8645 8.24842 12.9499 8.18234 13.0123 8.13597C14.2206 9.35893 15.4232 10.5755 16.6504 11.8164L16.6498 11.8182Z" fill="black"/>
<path d="M20.1653 7.42248C19.1702 8.42866 18.1842 9.42557 17.1902 10.4306C15.8335 9.05637 14.4636 7.66939 13.0617 6.24879C12.856 6.4673 12.671 6.67712 12.4728 6.87302C11.127 8.20262 9.03182 8.26638 7.61672 7.0243C7.13547 6.60235 7.12172 6.25285 7.56802 5.80192C8.5351 4.82356 9.50161 3.8452 10.4687 2.86742C11.9709 1.34829 14.16 1.34308 15.6633 2.8593C17.1237 4.33148 18.5795 5.8083 20.037 7.28338C20.0868 7.3338 20.1332 7.38713 20.1653 7.4219V7.42248Z" fill="black"/>
</g>
<defs>
<clipPath id="clip0_3992_226803">
<rect width="22" height="15" fill="white" transform="translate(0 0.5)"/>
</clipPath>
</defs>
</svg>
