<svg width="80" height="80" viewBox="0 0 80 80" fill="none" xmlns="http://www.w3.org/2000/svg">
<g id="vuesax/bold/key">
<path id="Vector" d="M65.9649 14.0664C56.0982 4.23307 40.0982 4.23307 30.2982 14.0664C23.8879 20.4148 21.6492 29.3524 23.502 37.5383C23.7637 38.6944 23.474 39.9239 22.6359 40.7621L8.33154 55.0664C7.23154 56.1997 6.46488 58.4331 6.69821 60.0331L7.69821 67.2997C8.06488 69.6997 10.2982 71.9664 12.6982 72.2997L19.9649 73.2997C21.5649 73.5331 23.7982 72.7997 24.9315 71.6331L27.6649 68.8997C28.3315 68.2664 28.3315 67.1997 27.6649 66.5331L21.1982 60.0664C20.2315 59.0997 20.2315 57.4997 21.1982 56.5331C22.1649 55.5664 23.7649 55.5664 24.7315 56.5331L31.2315 63.0331C31.8649 63.6664 32.9315 63.6664 33.5649 63.0331L39.2625 57.3623C40.1044 56.5243 41.338 56.2386 42.4957 56.5043C50.6526 58.3761 59.588 56.1123 65.9649 49.7664C75.7982 39.9331 75.7982 23.8997 65.9649 14.0664ZM48.3315 39.9997C43.7315 39.9997 39.9982 36.2664 39.9982 31.6664C39.9982 27.0664 43.7315 23.3331 48.3315 23.3331C52.9315 23.3331 56.6649 27.0664 56.6649 31.6664C56.6649 36.2664 52.9315 39.9997 48.3315 39.9997Z" fill="#00B144"/>
</g>
</svg>
