<svg width="80" height="80" viewBox="0 0 80 80" fill="none" xmlns="http://www.w3.org/2000/svg">
<path d="M50.8669 73.3346C50.6669 73.3346 50.4335 73.3013 50.2335 73.2346C43.5335 71.3346 36.5002 71.3346 29.8002 73.2346C28.5669 73.568 27.2669 72.868 26.9335 71.6346C26.5669 70.4013 27.3002 69.1013 28.5335 68.768C36.0669 66.6346 44.0002 66.6346 51.5335 68.768C52.7669 69.1346 53.5002 70.4013 53.1335 71.6346C52.8002 72.668 51.8669 73.3346 50.8669 73.3346Z" fill="#00b144"/>
<path d="M13.934 63.5994C13.3007 63.5994 12.6674 63.3661 12.1674 62.8661C11.2007 61.8994 11.2007 60.2994 12.1674 59.3327L65.0007 6.49941C65.9674 5.53275 67.5674 5.53275 68.534 6.49941C69.5007 7.46608 69.5007 9.06608 68.534 10.0327L15.7007 62.8661C15.2007 63.3661 14.5674 63.5994 13.934 63.5994Z" fill="#00b144"/>
<path opacity="0.4" d="M55.4324 11.4002L18.2991 48.5336C15.0991 44.0002 13.2324 38.6669 13.2324 33.5002C13.2324 25.3336 16.8658 17.7002 23.2324 12.5669C29.5991 7.43355 37.9324 5.53355 46.0991 7.33355C49.4658 8.06689 52.6324 9.46689 55.4324 11.4002Z" fill="#00b144"/>
<path opacity="0.4" d="M53.9008 56.3982V58.7316C53.9342 59.5982 54.0008 61.2649 52.7008 62.5982C51.7675 63.5316 50.4008 64.0316 48.6008 64.0316H31.5008C30.1342 64.0316 28.4008 63.8649 27.2342 62.6982C26.1342 61.5316 26.1675 60.0982 26.2008 59.1649V56.3982C24.7008 55.3982 23.3008 54.2649 22.0342 52.9982L59.8342 15.1982C61.5008 16.9649 62.9342 18.9982 64.0342 21.1982C70.7675 34.7316 64.2675 49.4316 53.9008 56.3982Z" fill="#00b144"/>
</svg>
