<svg width="32" height="33" viewBox="0 0 32 33" fill="none" xmlns="http://www.w3.org/2000/svg">
<g id="vuesax/bold/mobile">
<g id="mobile">
<path id="Vector" d="M21.6559 3.16406H10.3493C6.66927 3.16406 5.33594 4.4974 5.33594 8.24406V24.7507C5.33594 28.4974 6.66927 29.8307 10.3493 29.8307H21.6426C25.3359 29.8307 26.6693 28.4974 26.6693 24.7507V8.24406C26.6693 4.4974 25.3359 3.16406 21.6559 3.16406ZM16.0026 26.2307C14.7226 26.2307 13.6693 25.1774 13.6693 23.8974C13.6693 22.6174 14.7226 21.5641 16.0026 21.5641C17.2826 21.5641 18.3359 22.6174 18.3359 23.8974C18.3359 25.1774 17.2826 26.2307 16.0026 26.2307ZM18.6693 8.83073H13.3359C12.7893 8.83073 12.3359 8.3774 12.3359 7.83073C12.3359 7.28406 12.7893 6.83073 13.3359 6.83073H18.6693C19.2159 6.83073 19.6693 7.28406 19.6693 7.83073C19.6693 8.3774 19.2159 8.83073 18.6693 8.83073Z" fill="white"/>
</g>
</g>
</svg>
