<svg width="32" height="32" viewBox="0 0 32 32" fill="none" xmlns="http://www.w3.org/2000/svg">
<g id="vuesax/bold/money-change">
<g id="money-change">
<path id="Vector" d="M22.6641 5.33594H9.33073C5.33073 5.33594 2.66406 7.33594 2.66406 12.0026V16.7493C2.66406 17.2426 3.17073 17.5493 3.61073 17.3493C4.9174 16.7493 6.42406 16.5226 8.01073 16.8026C11.5174 17.4293 14.0907 20.6826 13.9974 24.2426C13.9841 24.8026 13.9041 25.3493 13.7574 25.8826C13.6507 26.2959 13.9841 26.6826 14.4107 26.6826H22.6641C26.6641 26.6826 29.3307 24.6826 29.3307 20.0159V12.0026C29.3307 7.33594 26.6641 5.33594 22.6641 5.33594ZM15.9974 19.3359C14.1574 19.3359 12.6641 17.8426 12.6641 16.0026C12.6641 14.1626 14.1574 12.6693 15.9974 12.6693C17.8374 12.6693 19.3307 14.1626 19.3307 16.0026C19.3307 17.8426 17.8374 19.3359 15.9974 19.3359ZM25.6641 18.6693C25.6641 19.2159 25.2107 19.6693 24.6641 19.6693C24.1174 19.6693 23.6641 19.2159 23.6641 18.6693V13.3359C23.6641 12.7893 24.1174 12.3359 24.6641 12.3359C25.2107 12.3359 25.6641 12.7893 25.6641 13.3359V18.6693Z" fill="white"/>
<path id="Vector_2" d="M6.66927 18.6641C5.0026 18.6641 3.49594 19.4507 2.5226 20.6507C1.77594 21.5707 1.33594 22.7307 1.33594 23.9974C1.33594 26.9441 3.73594 29.3307 6.66927 29.3307C8.98927 29.3307 10.9759 27.8507 11.6959 25.7707C11.8959 25.2241 12.0026 24.6241 12.0026 23.9974C12.0026 21.0641 9.61594 18.6641 6.66927 18.6641ZM9.81594 26.3174C9.78927 26.3974 9.73594 26.4774 9.6826 26.5307L8.7226 27.4774C8.6026 27.6107 8.4426 27.6641 8.26927 27.6641C8.09594 27.6641 7.9226 27.6107 7.8026 27.4774C7.58927 27.2774 7.5626 26.9574 7.69594 26.7174H5.01594C4.1626 26.7174 3.46927 26.0241 3.46927 25.1574V25.0241C3.46927 24.6507 3.7626 24.3707 4.1226 24.3707C4.4826 24.3707 4.77594 24.6507 4.77594 25.0241V25.1574C4.77594 25.3041 4.8826 25.4241 5.02927 25.4241H7.70927C7.57594 25.1707 7.6026 24.8641 7.81594 24.6507C8.06927 24.3974 8.4826 24.3974 8.7226 24.6507L9.6826 25.6107C9.73594 25.6641 9.78927 25.7441 9.82927 25.8241C9.8826 25.9707 9.8826 26.1574 9.81594 26.3174ZM9.86927 22.9707C9.86927 23.3441 9.57594 23.6241 9.21594 23.6241C8.85594 23.6241 8.5626 23.3441 8.5626 22.9707V22.8374C8.5626 22.6907 8.45594 22.5707 8.30927 22.5707H5.6426C5.77594 22.8241 5.74927 23.1307 5.53594 23.3441C5.41594 23.4641 5.25594 23.5307 5.06927 23.5307C4.90927 23.5307 4.73594 23.4641 4.61594 23.3441L3.65594 22.3841C3.6026 22.3307 3.54927 22.2507 3.50927 22.1707C3.45594 22.0107 3.45594 21.8374 3.50927 21.6774C3.54927 21.6107 3.58927 21.5174 3.65594 21.4641L4.61594 20.5174C4.86927 20.2507 5.2826 20.2507 5.5226 20.5174C5.73594 20.7174 5.7626 21.0374 5.62927 21.2774H8.30927C9.1626 21.2774 9.85594 21.9707 9.85594 22.8374V22.9707H9.86927Z" fill="white"/>
</g>
</g>
</svg>
