<svg width="21" height="21" viewBox="0 0 21 21" fill="none" xmlns="http://www.w3.org/2000/svg">
<g id="pie-chart-02">
<g id="Solid">
<path fill-rule="evenodd" clip-rule="evenodd" d="M8.09039 4.33674C8.24278 4.31925 8.56952 4.28176 8.88224 4.41443C9.13935 4.52351 9.3647 4.72739 9.49891 4.97233C9.60093 5.15854 9.63242 5.33766 9.64478 5.47156C9.65498 5.58205 9.65492 5.70567 9.65487 5.8043C9.65486 5.81115 9.65486 5.81789 9.65486 5.82449V9.71228C9.65486 10.1856 9.65486 10.4223 9.74698 10.6031C9.82801 10.7621 9.9573 10.8914 10.1163 10.9724C10.2971 11.0646 10.5338 11.0646 11.0071 11.0646H14.8949C14.9015 11.0646 14.9083 11.0646 14.9151 11.0646C15.0138 11.0645 15.1374 11.0644 15.2479 11.0746C15.3818 11.087 15.5609 11.1185 15.7471 11.2205C15.992 11.3547 16.1959 11.5801 16.305 11.8372C16.4377 12.1499 16.4002 12.4766 16.3827 12.629C16.3809 12.6442 16.3794 12.6576 16.3782 12.6691C16.2542 13.9053 15.8288 15.0963 15.1343 16.1357C14.2985 17.3866 13.1105 18.3616 11.7206 18.9373C10.3307 19.513 8.80125 19.6636 7.32572 19.3701C5.85019 19.0766 4.49483 18.3522 3.43104 17.2884C2.36724 16.2246 1.64279 14.8692 1.34929 13.3937C1.05579 11.9182 1.20642 10.3887 1.78214 8.99883C2.35787 7.60891 3.33282 6.42093 4.58371 5.58511C5.62308 4.89063 6.81416 4.4652 8.05027 4.34118C8.0618 4.34002 8.07523 4.33848 8.09039 4.33674Z" fill="#00B144"/>
<path fill-rule="evenodd" clip-rule="evenodd" d="M12.9096 0.956028C12.9248 0.957767 12.9382 0.959308 12.9498 0.960464C14.6883 1.13484 16.3226 1.904 17.569 3.15039C18.8154 4.39679 19.5846 6.03115 19.759 7.76965C19.7601 7.78118 19.7617 7.79461 19.7634 7.80978C19.7809 7.96217 19.8184 8.28891 19.6857 8.60161C19.5766 8.85872 19.3727 9.08407 19.1278 9.21827C18.9416 9.32029 18.7625 9.35178 18.6286 9.36414C18.5181 9.37434 18.3944 9.37427 18.2958 9.37422C18.289 9.37422 18.2822 9.37421 18.2756 9.37421L12.8665 9.37421C12.8601 9.37421 12.8536 9.37422 12.847 9.37422C12.7463 9.37426 12.6261 9.3743 12.5201 9.36565C12.3974 9.35562 12.2216 9.32989 12.0374 9.23604C11.7989 9.11449 11.6049 8.92055 11.4834 8.68201C11.3895 8.4978 11.3638 8.32201 11.3538 8.19928C11.3451 8.09336 11.3452 7.97313 11.3452 7.87246C11.3452 7.86585 11.3452 7.85933 11.3452 7.8529V2.4438C11.3452 2.4372 11.3452 2.43046 11.3452 2.42361C11.3451 2.32497 11.3451 2.20135 11.3553 2.09087C11.3676 1.95697 11.3991 1.77784 11.5011 1.59164C11.6354 1.3467 11.8607 1.14283 12.1178 1.03374C12.4305 0.901067 12.7573 0.938547 12.9096 0.956028Z" fill="#00B144"/>
</g>
</g>
</svg>
