<svg width="32" height="32" viewBox="0 0 32 32" fill="none" xmlns="http://www.w3.org/2000/svg">
<g id="vuesax/bold/security-safe">
<g id="security-safe">
<path id="Vector" d="M27.8772 14.8297V8.97635C27.8772 7.88302 27.0505 6.64302 26.0239 6.22969L18.5972 3.18969C16.9305 2.50969 15.0505 2.50969 13.3839 3.18969L5.95719 6.22969C4.94385 6.64302 4.11719 7.88302 4.11719 8.97635V14.8297C4.11719 21.3497 8.85052 27.4564 15.3172 29.243C15.7572 29.363 16.2372 29.363 16.6772 29.243C23.1439 27.4564 27.8772 21.3497 27.8772 14.8297ZM16.9972 17.163V20.6697C16.9972 21.2164 16.5439 21.6697 15.9972 21.6697C15.4505 21.6697 14.9972 21.2164 14.9972 20.6697V17.163C13.6505 16.7364 12.6639 15.483 12.6639 14.003C12.6639 12.163 14.1572 10.6697 15.9972 10.6697C17.8372 10.6697 19.3305 12.163 19.3305 14.003C19.3305 15.4964 18.3439 16.7364 16.9972 17.163Z" fill="#F6F7FF"/>
</g>
</g>
</svg>
