<svg width="32" height="32" viewBox="0 0 32 32" fill="none" xmlns="http://www.w3.org/2000/svg">
<g id="vuesax/bold/status-up">
<g id="status-up">
<path id="Vector" d="M21.5841 2.66406H10.4107C5.5574 2.66406 2.66406 5.5574 2.66406 10.4107V21.5707C2.66406 26.4374 5.5574 29.3307 10.4107 29.3307H21.5707C26.4241 29.3307 29.3174 26.4374 29.3174 21.5841V10.4107C29.3307 5.5574 26.4374 2.66406 21.5841 2.66406ZM10.1707 24.1974C10.1707 24.7441 9.7174 25.1974 9.17073 25.1974C8.62406 25.1974 8.17073 24.7441 8.17073 24.1974V21.4374C8.17073 20.8907 8.62406 20.4374 9.17073 20.4374C9.7174 20.4374 10.1707 20.8907 10.1707 21.4374V24.1974ZM16.9974 24.1974C16.9974 24.7441 16.5441 25.1974 15.9974 25.1974C15.4507 25.1974 14.9974 24.7441 14.9974 24.1974V18.6641C14.9974 18.1174 15.4507 17.6641 15.9974 17.6641C16.5441 17.6641 16.9974 18.1174 16.9974 18.6641V24.1974ZM23.8241 24.1974C23.8241 24.7441 23.3707 25.1974 22.8241 25.1974C22.2774 25.1974 21.8241 24.7441 21.8241 24.1974V15.9041C21.8241 15.3574 22.2774 14.9041 22.8241 14.9041C23.3707 14.9041 23.8241 15.3574 23.8241 15.9041V24.1974ZM23.8241 11.6907C23.8241 12.2374 23.3707 12.6907 22.8241 12.6907C22.2774 12.6907 21.8241 12.2374 21.8241 11.6907V10.3974C18.4241 13.8907 14.1707 16.3574 9.41073 17.5441C9.33073 17.5707 9.25073 17.5707 9.17073 17.5707C8.7174 17.5707 8.3174 17.2641 8.1974 16.8107C8.06406 16.2774 8.38406 15.7307 8.93073 15.5974C13.4241 14.4774 17.4241 12.1174 20.5974 8.78406H18.9307C18.3841 8.78406 17.9307 8.33073 17.9307 7.78406C17.9307 7.2374 18.3841 6.78406 18.9307 6.78406H22.8374C22.8907 6.78406 22.9307 6.81073 22.9841 6.81073C23.0507 6.82406 23.1174 6.82406 23.1841 6.85073C23.2507 6.8774 23.3041 6.9174 23.3707 6.9574C23.4107 6.98406 23.4507 6.9974 23.4907 7.02406C23.5041 7.0374 23.5041 7.05073 23.5174 7.05073C23.5707 7.10406 23.6107 7.1574 23.6507 7.21073C23.6907 7.26406 23.7307 7.30406 23.7441 7.3574C23.7707 7.41073 23.7707 7.46406 23.7841 7.53073C23.7974 7.5974 23.8241 7.66406 23.8241 7.74406C23.8241 7.7574 23.8374 7.77073 23.8374 7.78406V11.6907H23.8241Z" fill="white"/>
</g>
</g>
</svg>
