<svg width="32" height="32" viewBox="0 0 32 32" fill="none" xmlns="http://www.w3.org/2000/svg">
<path d="M16.0026 2.66406C12.3226 2.66406 9.33594 5.65073 9.33594 9.33073C9.33594 13.0107 12.3226 15.9974 16.0026 15.9974C19.6826 15.9974 22.6693 13.0107 22.6693 9.33073C22.6693 5.65073 19.6826 2.66406 16.0026 2.66406ZM18.8959 8.6774L15.2959 12.2774C15.1626 12.4107 14.8826 12.5441 14.6959 12.5841L13.3226 12.7707C12.8159 12.8374 12.4693 12.4907 12.5493 11.9974L12.7493 10.6241C12.7759 10.4374 12.9093 10.1574 13.0559 10.0241L16.6559 6.42406C17.2693 5.81073 18.0026 5.5174 18.9093 6.42406C19.8026 7.34406 19.5093 8.06406 18.8959 8.6774Z" fill="#F6F7FF"/>
<path d="M16.0028 18.6641C9.32281 18.6641 3.88281 23.1441 3.88281 28.6641C3.88281 29.0374 4.17615 29.3307 4.54948 29.3307H27.4561C27.8295 29.3307 28.1228 29.0374 28.1228 28.6641C28.1228 23.1441 22.6828 18.6641 16.0028 18.6641Z" fill="#F6F7FF"/>
</svg>
