<svg width="80" height="80" viewBox="0 0 80 80" fill="none" xmlns="http://www.w3.org/2000/svg">
<path d="M39.9997 40.0003C49.2044 40.0003 56.6663 32.5384 56.6663 23.3337C56.6663 14.1289 49.2044 6.66699 39.9997 6.66699C30.7949 6.66699 23.333 14.1289 23.333 23.3337C23.333 32.5384 30.7949 40.0003 39.9997 40.0003Z" fill="#00b144"/>
<path opacity="0.4" d="M40.0003 48.333C23.3003 48.333 9.7002 59.533 9.7002 73.333C9.7002 74.2663 10.4335 74.9997 11.3669 74.9997H68.6337C69.567 74.9997 70.3004 74.2663 70.3004 73.333C70.3004 59.533 56.7003 48.333 40.0003 48.333Z" fill="#00b144"/>
<path d="M75.9001 68.9325L73.3667 66.3991C74.7 64.3991 75.4667 61.9992 75.4667 59.4326C75.4667 52.3992 69.7667 46.6992 62.7334 46.6992C55.7 46.6992 50 52.3992 50 59.4326C50 66.4659 55.7 72.1659 62.7334 72.1659C65.3 72.1659 67.6999 71.3993 69.6999 70.0659L72.2333 72.5993C72.7333 73.0993 73.3999 73.3659 74.0666 73.3659C74.7332 73.3659 75.4001 73.0993 75.9001 72.5993C76.9334 71.5659 76.9334 69.9325 75.9001 68.9325Z" fill="#00b144"/>
</svg>
