<svg width="82" height="103" viewBox="0 0 82 103" fill="none" xmlns="http://www.w3.org/2000/svg">
<path d="M43.4283 20.4531H38.5415V28.759H43.4283V20.4531Z" fill="#00b144"/>
<path d="M12.7595 54.7383H4.45361V59.6215H12.7595V54.7383Z" fill="#00b144"/>
<path d="M77.34 54.668H69.0342V59.5585H77.34V54.668Z" fill="#00b144"/>
<path fillRule="evenodd" clipRule="evenodd" d="M8.33398 40.6696L10.7758 36.4375L17.964 40.5902L15.5258 44.8149L8.33398 40.6696Z" fill="#00b144"/>
<path fillRule="evenodd" clipRule="evenodd" d="M57.4478 33.817L53.2095 31.3756L57.3621 24.1797L61.601 26.6278L57.4478 33.817Z" fill="#00b144"/>
<path fillRule="evenodd" clipRule="evenodd" d="M64.1494 41.4925L66.5981 45.7241L73.7872 41.5787L71.3386 37.3398L64.1494 41.4925Z" fill="#00b144"/>
<path fillRule="evenodd" clipRule="evenodd" d="M25.0767 24.6172L20.8457 27.059L24.9947 34.2477L29.2304 31.8137L25.0767 24.6172Z" fill="#00b144"/>
<path fillRule="evenodd" clipRule="evenodd" d="M21.6836 41.0018L24.1463 38.5391L45.8346 57.8993L41.0371 62.6968L21.6836 41.0018Z" fill="url(#paint0_linear_2395_27802)"/>
<path fillRule="evenodd" clipRule="evenodd" d="M58.3653 43.4627L55.9021 41L36.8203 57.7402L41.6105 62.5372L58.3653 43.4627Z" fill="url(#paint1_linear_2395_27802)"/>
<path d="M2.58025 67.8079L2.59436 67.8C3.16393 67.0131 3.80823 66.3249 4.53091 65.7449C5.26874 65.1502 6.07764 64.6564 6.95865 64.2692C7.70484 63.9395 8.55136 63.7101 9.44021 63.5262C8.91558 61.2207 8.58272 58.8457 8.58272 56.384C8.58272 38.5804 23.0682 24.095 40.8718 24.095C58.6759 24.095 73.1609 38.5804 73.1609 56.384C73.1609 58.7114 72.887 60.9714 72.4173 63.1604H80.6233C80.999 60.9521 81.2389 58.6979 81.2389 56.384C81.2389 34.121 63.129 16.0117 40.8723 16.0117C18.6135 16.0117 0.5 34.121 0.5 56.384C0.5 60.5294 1.13175 64.5289 2.29807 68.2965C2.40415 68.135 2.46425 67.9694 2.58025 67.8079Z" fill="#00b144"/>
<path d="M78.9716 67.6243V75.1923L73.43 102.329H64.8091L70.9662 73.8531H62.4174V67.6238H78.9716V67.6243ZM61.9022 66.9576L51.6133 103.002H45.0475L55.4012 66.9576H61.9022ZM33.4016 90.2996V75.5362L29.5964 90.2996H33.4016ZM42.0685 67.6243V90.2996H44.5386V96.2216H42.0685V102.329H33.4016V96.2216H23.1163V90.2996L30.6023 67.6243H42.0685ZM21.9166 96.4071V102.329H2.85257V97.3744C8.49814 88.1525 11.856 82.4311 12.9194 80.2401C13.9869 78.0418 14.5163 76.331 14.5163 75.0988C14.5163 74.1608 14.3585 73.4523 14.0366 72.994C13.7142 72.5211 13.2235 72.2922 12.5651 72.2922C11.9135 72.2922 11.4228 72.5571 11.1009 73.0656C10.7754 73.5808 10.6212 74.5972 10.6212 76.1298V79.4307H2.85205V78.1635C2.85205 76.2301 2.95238 74.6902 3.15251 73.5735C3.35996 72.4563 3.84697 71.3469 4.63131 70.258C5.41879 69.1773 6.43932 68.3465 7.69551 67.7879C8.95589 67.2366 10.4634 66.957 12.2207 66.957C15.6654 66.957 18.2676 67.8098 20.0328 69.5138C21.8079 71.2325 22.6816 73.3875 22.6816 76.0002C22.6816 77.9906 22.1872 80.0891 21.1991 82.3084C20.2042 84.514 17.2722 89.2253 12.4177 96.4061H21.9166V96.4071Z" fill="#00b144"/>
<path fillRule="evenodd" clipRule="evenodd" d="M5.72241 17.7303L11.9328 12.6637C13.3197 11.534 15.3728 11.7367 16.4994 13.1235L19.5772 16.8911L8.33409 26.0711L5.25891 22.3036C4.12917 20.9236 4.33557 18.86 5.72241 17.7303Z" fill="url(#paint2_linear_2395_27802)"/>
<path fillRule="evenodd" clipRule="evenodd" d="M75.8547 17.7946L69.6375 12.7275C68.2507 11.5982 66.2007 11.8078 65.071 13.1884L62 16.9559L73.2357 26.136L76.3141 22.3684C77.4375 20.9873 77.2343 18.9243 75.8547 17.7946Z" fill="url(#paint3_linear_2395_27802)"/>
<path fillRule="evenodd" clipRule="evenodd" d="M35.6736 0H46.6559C49.1045 0 51.0934 2.00187 51.0934 4.45051V12.7313H31.2314V4.45051C31.232 2.00187 33.2276 0 35.6736 0Z" fill="url(#paint4_linear_2395_27802)"/>
<path d="M45.8447 9.92578H36.8643V14.7557H45.8447V9.92578Z" fill="url(#paint5_linear_2395_27802)"/>
<defs>
<linearGradient id="paint0_linear_2395_27802" x1="35.4738" y1="53.7826" x2="30.7137" y2="40.5692" gradientUnits="userSpaceOnUse">
<stop stop-color="#00b144" stop-opacity="0.098"/>
<stop offset="1" stop-color="#00b144"/>
</linearGradient>
<linearGradient id="paint1_linear_2395_27802" x1="49.1225" y1="54.59" x2="44.8809" y2="42.8081" gradientUnits="userSpaceOnUse">
<stop stop-color="#00b144" stop-opacity="0.098"/>
<stop offset="1" stop-color="#00b144"/>
</linearGradient>
<linearGradient id="paint2_linear_2395_27802" x1="13.122" y1="20.8544" x2="10.4696" y2="13.0157" gradientUnits="userSpaceOnUse">
<stop stop-color="#00b144" stop-opacity="0.098"/>
<stop offset="1" stop-color="#00b144"/>
</linearGradient>
<linearGradient id="paint3_linear_2395_27802" x1="70.5875" y1="20.9198" x2="67.9345" y2="13.0826" gradientUnits="userSpaceOnUse">
<stop stop-color="#00b144" stop-opacity="0.098"/>
<stop offset="1" stop-color="#00b144"/>
</linearGradient>
<linearGradient id="paint4_linear_2395_27802" x1="42.5726" y1="8.03343" x2="40.8483" y2="0.564206" gradientUnits="userSpaceOnUse">
<stop stop-color="#00b144" stop-opacity="0.098"/>
<stop offset="1" stop-color="#00b144"/>
</linearGradient>
<linearGradient id="paint5_linear_2395_27802" x1="41.9921" y1="12.9734" x2="41.4349" y2="10.0967" gradientUnits="userSpaceOnUse">
<stop stop-color="#00b144" stop-opacity="0.098"/>
<stop offset="1" stop-color="#00b144"/>
</linearGradient>
</defs>
</svg>
