<svg width="32" height="32" viewBox="0 0 32 32" fill="none" xmlns="http://www.w3.org/2000/svg">
<g id="vuesax/bold/bank">
<g id="bank">
<path id="Vector" d="M29.3346 25.3333V29.3333H2.66797V25.3333C2.66797 24.6 3.26797 24 4.0013 24H28.0013C28.7346 24 29.3346 24.6 29.3346 25.3333Z" fill="#F6F7FF" stroke="#F6F7FF" stroke-width="1.5" stroke-miterlimit="10" stroke-linecap="round" stroke-linejoin="round"/>
<path id="Vector_2" d="M9.33464 14.668H6.66797V24.0013H9.33464V14.668Z" fill="#F6F7FF"/>
<path id="Vector_3" d="M14.6667 14.668H12V24.0013H14.6667V14.668Z" fill="#F6F7FF"/>
<path id="Vector_4" d="M19.9987 14.668H17.332V24.0013H19.9987V14.668Z" fill="#F6F7FF"/>
<path id="Vector_5" d="M25.3346 14.668H22.668V24.0013H25.3346V14.668Z" fill="#F6F7FF"/>
<path id="Vector_6" d="M30.6654 30.332H1.33203C0.785365 30.332 0.332031 29.8787 0.332031 29.332C0.332031 28.7854 0.785365 28.332 1.33203 28.332H30.6654C31.212 28.332 31.6654 28.7854 31.6654 29.332C31.6654 29.8787 31.212 30.332 30.6654 30.332Z" fill="#F6F7FF"/>
<path id="Vector_7" d="M28.4946 7.66516L16.4946 2.86516C16.228 2.75849 15.7746 2.75849 15.508 2.86516L3.50797 7.66516C3.0413 7.85182 2.66797 8.39849 2.66797 8.90516V13.3318C2.66797 14.0652 3.26797 14.6652 4.0013 14.6652H28.0013C28.7346 14.6652 29.3346 14.0652 29.3346 13.3318V8.90516C29.3346 8.39849 28.9613 7.85182 28.4946 7.66516ZM16.0013 11.3318C14.8946 11.3318 14.0013 10.4385 14.0013 9.33182C14.0013 8.22516 14.8946 7.33182 16.0013 7.33182C17.108 7.33182 18.0013 8.22516 18.0013 9.33182C18.0013 10.4385 17.108 11.3318 16.0013 11.3318Z" fill="#F6F7FF"/>
</g>
</g>
</svg>
