<svg width="33" height="32" viewBox="0 0 33 32" fill="none" xmlns="http://www.w3.org/2000/svg">
<g id="vuesax/bold/bitcoin-card">
<g id="bitcoin-card">
<path id="Vector" d="M23.5041 14.3346C23.5041 14.0413 23.1841 13.668 22.8374 13.668H20.2507H19.6641V15.0013H22.8374C23.1974 15.0013 23.5041 14.708 23.5041 14.3346Z" fill="#F6F7FF"/>
<path id="Vector_2" d="M23.4241 17H22.8241H19.6641V18.3333H20.2507H23.4241C23.9174 18.3333 24.3307 18.0267 24.3307 17.6667C24.3307 17.3067 23.9174 17 23.4241 17Z" fill="#F6F7FF"/>
<path id="Vector_3" d="M24.1333 4.53516H8.53333C5.48 4.53516 3 7.00182 3 10.0552V21.9485C3 25.0018 5.48 27.4685 8.53333 27.4685H24.1333C27.1867 27.4685 29.6667 25.0018 29.6667 21.9485V10.0552C29.6667 7.00182 27.1867 4.53516 24.1333 4.53516ZM12.6667 17.0018H7.33333C6.78667 17.0018 6.33333 16.5485 6.33333 16.0018C6.33333 15.4552 6.78667 15.0018 7.33333 15.0018H12.6667C13.2133 15.0018 13.6667 15.4552 13.6667 16.0018C13.6667 16.5485 13.2133 17.0018 12.6667 17.0018ZM23.4267 20.3352H22.0133V21.0018C22.0133 21.5485 21.56 22.0018 21.0133 22.0018C20.4667 22.0018 20.0133 21.5485 20.0133 21.0018V20.3352H18.6667H17.3333C16.7867 20.3352 16.3333 19.8818 16.3333 19.3352C16.3333 18.7885 16.7867 18.3352 17.3333 18.3352H17.6667V16.0018V13.6685H17.3333C16.7867 13.6685 16.3333 13.2152 16.3333 12.6685C16.3333 12.1218 16.7867 11.6685 17.3333 11.6685H18.6667H20.0133V11.0018C20.0133 10.4552 20.4667 10.0018 21.0133 10.0018C21.56 10.0018 22.0133 10.4552 22.0133 11.0018V11.6685H22.8267C24.2533 11.6685 25.4933 12.9085 25.4933 14.3352C25.4933 14.7752 25.3733 15.1885 25.1867 15.5618C25.88 16.0552 26.3333 16.8152 26.3333 17.6685C26.3333 19.1352 25.0267 20.3352 23.4267 20.3352Z" fill="#F6F7FF"/>
</g>
</g>
</svg>
