<svg width="33" height="32" viewBox="0 0 33 32" fill="none" xmlns="http://www.w3.org/2000/svg">
<g id="vuesax/bold/card-pos">
<g id="card-pos">
<path id="Vector" d="M30.0026 28.332C30.0026 28.8787 29.5493 29.332 29.0026 29.332H4.33594C3.78927 29.332 3.33594 28.8787 3.33594 28.332C3.33594 27.7854 3.78927 27.332 4.33594 27.332H29.0026C29.5493 27.332 30.0026 27.7854 30.0026 28.332Z" fill="#F6F7FF"/>
<path id="Vector_2" d="M21.1872 6.02635L6.86724 20.3464C6.32057 20.893 5.44057 20.893 4.90724 20.3464H4.89391C3.04057 18.4797 3.04057 15.4664 4.89391 13.613L14.4272 4.07969C16.2939 2.21302 19.3072 2.21302 21.1739 4.07969C21.7206 4.59969 21.7206 5.49302 21.1872 6.02635Z" fill="#F6F7FF"/>
<path id="Vector_3" d="M28.4285 11.3204L24.3619 7.25375C23.8152 6.70708 22.9352 6.70708 22.4019 7.25375L8.08187 21.5737C7.53521 22.1071 7.53521 22.9871 8.08187 23.5337L12.1485 27.6137C14.0152 29.4671 17.0285 29.4671 18.8952 27.6137L28.4152 18.0804C30.3085 16.2138 30.3085 13.1871 28.4285 11.3204ZM17.6819 23.3604L16.0685 24.9871C15.7352 25.3204 15.1885 25.3204 14.8419 24.9871C14.5085 24.6537 14.5085 24.1071 14.8419 23.7604L16.4685 22.1338C16.7885 21.8138 17.3485 21.8138 17.6819 22.1338C18.0152 22.4671 18.0152 23.0404 17.6819 23.3604ZM22.9752 18.0671L19.7219 21.3337C19.3885 21.6537 18.8419 21.6537 18.4952 21.3337C18.1619 21.0004 18.1619 20.4537 18.4952 20.1071L21.7619 16.8404C22.0819 16.5204 22.6419 16.5204 22.9752 16.8404C23.3085 17.1871 23.3085 17.7338 22.9752 18.0671Z" fill="#F6F7FF"/>
</g>
</g>
</svg>
