<svg width="32" height="33" viewBox="0 0 32 33" fill="none" xmlns="http://www.w3.org/2000/svg">
<path d="M5.45203 11.5728C5.38536 11.9728 5.33203 12.3728 5.33203 12.7995C5.33203 12.3861 5.38536 11.9728 5.45203 11.5728ZM5.33203 20.7995C5.33203 21.2261 5.38536 21.6261 5.45203 22.0261C5.38536 21.6261 5.33203 21.2128 5.33203 20.7995ZM10.7854 27.3461C11.172 27.4128 11.5854 27.4661 11.9987 27.4661C11.5854 27.4661 11.1854 27.4128 10.7854 27.3461ZM10.7854 6.25281C11.1854 6.18615 11.5854 6.13281 11.9987 6.13281C11.5854 6.13281 11.172 6.18615 10.7854 6.25281ZM21.2254 6.25281C20.8254 6.18615 20.4254 6.13281 19.9987 6.13281C20.412 6.13281 20.8254 6.18615 21.2254 6.25281ZM26.5454 11.5728C26.612 11.9728 26.6654 12.3861 26.6654 12.7995C26.6654 12.3728 26.612 11.9728 26.5454 11.5728Z" fill="white"/>
<path d="M29.3346 11.8609C29.3346 12.4209 28.8946 12.8609 28.3346 12.8609H26.668V15.3104C26.668 15.7551 26.1853 16.0321 25.8013 15.8076C25.228 15.4743 24.5613 15.3676 23.9213 15.5409C23.5108 15.6395 23.0146 15.3742 23.0146 14.952V13.7809C23.0146 11.5809 21.2146 9.78094 19.0146 9.78094H12.988C10.788 9.78094 8.98797 11.5809 8.98797 13.7809V19.8076C8.98797 22.0076 10.788 23.8076 12.988 23.8076H13.588C13.7426 23.8076 13.868 23.933 13.868 24.0876C13.868 25.3723 14.7989 26.4524 16.0246 26.7007C16.2551 26.7473 16.4111 27.023 16.3346 27.2454C16.2909 27.3726 16.1749 27.4609 16.0404 27.4609H12.0813V29.1276C12.0813 29.6743 11.628 30.1276 11.0813 30.1276C10.5213 30.1276 10.0813 29.6743 10.0813 29.1276V27.1676C7.94797 26.5143 6.2813 24.8476 5.6413 22.7276H3.66797C3.1213 22.7276 2.66797 22.2743 2.66797 21.7276C2.66797 21.1676 3.1213 20.7276 3.66797 20.7276H5.33464V17.7943H3.66797C3.1213 17.7943 2.66797 17.3409 2.66797 16.7943C2.66797 16.2343 3.1213 15.7943 3.66797 15.7943H5.33464V12.8609H3.66797C3.1213 12.8609 2.66797 12.4209 2.66797 11.8609C2.66797 11.3143 3.1213 10.8609 3.66797 10.8609H5.6413C6.2813 8.74094 7.94797 7.07427 10.0813 6.42094V4.46094C10.0813 3.91427 10.5213 3.46094 11.0813 3.46094C11.628 3.46094 12.0813 3.91427 12.0813 4.46094V6.1276H15.0013V4.46094C15.0013 3.91427 15.4546 3.46094 16.0013 3.46094C16.548 3.46094 17.0013 3.91427 17.0013 4.46094V6.1276H19.9346V4.46094C19.9346 3.91427 20.388 3.46094 20.9346 3.46094C21.4813 3.46094 21.9346 3.91427 21.9346 4.46094V6.43427C24.0546 7.07427 25.7213 8.74094 26.3613 10.8609H28.3346C28.8946 10.8609 29.3346 11.3143 29.3346 11.8609Z" fill="white"/>
<path d="M27.9859 21.5055C27.0792 21.5055 26.5592 21.0522 26.5592 20.3855C26.5592 20.1189 26.6392 19.8122 26.8259 19.4922C27.1992 18.8522 26.9726 18.0255 26.3326 17.6655L25.1192 16.9589C24.5592 16.6255 23.8392 16.8255 23.5059 17.3855L23.4259 17.5189C22.7859 18.6255 21.7459 18.6255 21.1059 17.5189L21.0259 17.3855C20.7059 16.8255 19.9726 16.6255 19.4259 16.9589L18.1992 17.6655C17.7726 17.9055 17.5192 18.3589 17.5192 18.8255C17.5192 19.0522 17.5859 19.2789 17.7059 19.4922C17.8926 19.8122 17.9859 20.1189 17.9859 20.3855C17.9859 21.0522 17.4526 21.5055 16.5459 21.5055C15.8126 21.5055 15.1992 22.1055 15.1992 22.8389V24.0922C15.1992 24.8255 15.8126 25.4255 16.5459 25.4255C17.4526 25.4255 17.9859 25.8789 17.9859 26.5455C17.9859 26.8122 17.8926 27.1189 17.7059 27.4389C17.3326 28.0789 17.5592 28.9055 18.1992 29.2655L19.4259 29.9722C19.9726 30.3055 20.7059 30.1055 21.0259 29.5455L21.1059 29.4122C21.7459 28.3055 22.7859 28.3055 23.4259 29.4122L23.5059 29.5455C23.8392 30.1055 24.5592 30.3055 25.1192 29.9722L26.3326 29.2655C26.7592 29.0255 27.0126 28.5722 27.0126 28.1055C27.0126 27.8789 26.9459 27.6522 26.8259 27.4389C26.6392 27.1189 26.5592 26.8122 26.5592 26.5455C26.5592 25.8789 27.0792 25.4255 27.9859 25.4255C28.7326 25.4255 29.3326 24.8255 29.3326 24.0922V22.8389C29.3326 22.1055 28.7326 21.5055 27.9859 21.5055ZM22.2659 25.7589C20.9992 25.7589 19.9726 24.7322 19.9726 23.4655C19.9726 22.1989 20.9992 21.1722 22.2659 21.1722C23.5326 21.1722 24.5592 22.1989 24.5592 23.4655C24.5592 24.7322 23.5326 25.7589 22.2659 25.7589Z" fill="white"/>
<path d="M21.6654 14.1595V14.9229C21.6654 15.3683 21.0717 15.6507 20.6387 15.5461C19.972 15.3728 19.3054 15.4661 18.7587 15.7995L17.5454 16.5061C16.7054 16.9728 16.1854 17.8661 16.1854 18.8261C16.1854 19.4488 15.7368 20.2226 15.1989 20.5363C14.6571 20.8522 14.2353 21.3523 14.0207 21.9494C13.9172 22.2375 13.6648 22.4661 13.3587 22.4661C11.6787 22.4661 10.332 21.1195 10.332 19.4395V14.1595C10.332 12.4795 11.6787 11.1328 13.3587 11.1328H18.6387C20.3187 11.1328 21.6654 12.4795 21.6654 14.1595Z" fill="white"/>
</svg>
