<svg width="56" height="56" viewBox="0 0 56 56" fill="none" xmlns="http://www.w3.org/2000/svg">
<rect x="0.5" y="0.5" width="55" height="55" rx="15.5" fill="#00B144"/>
<rect x="0.5" y="0.5" width="55" height="55" rx="15.5" stroke="#3A3A47"/>
<path d="M27 36.3346H24C22.5333 36.3346 21.3333 37.5346 21.3333 39.0013V39.3346H20C19.4533 39.3346 19 39.7879 19 40.3346C19 40.8813 19.4533 41.3346 20 41.3346H36C36.5467 41.3346 37 40.8813 37 40.3346C37 39.7879 36.5467 39.3346 36 39.3346H34.6667V39.0013C34.6667 37.5346 33.4667 36.3346 32 36.3346H29V33.2812C28.6667 33.3213 28.3333 33.3346 28 33.3346C27.6667 33.3346 27.3333 33.3213 27 33.2812V36.3346Z" fill="white"/>
<path d="M36.6391 27.5213C37.5191 27.188 38.2924 26.6413 38.9057 26.028C40.1457 24.6546 40.9591 23.0146 40.9591 21.0946C40.9591 19.1746 39.4524 17.668 37.5324 17.668H36.7857C35.9191 15.8946 34.1057 14.668 31.9991 14.668H23.9991C21.8924 14.668 20.0791 15.8946 19.2124 17.668H18.4657C16.5457 17.668 15.0391 19.1746 15.0391 21.0946C15.0391 23.0146 15.8524 24.6546 17.0924 26.028C17.7057 26.6413 18.4791 27.188 19.3591 27.5213C20.7457 30.9346 24.0791 33.3346 27.9991 33.3346C31.9191 33.3346 35.2524 30.9346 36.6391 27.5213ZM31.7857 23.268L30.9591 24.2813C30.8257 24.428 30.7324 24.7213 30.7457 24.9213L30.8257 26.228C30.8791 27.028 30.3057 27.4413 29.5591 27.148L28.3457 26.668C28.1591 26.6013 27.8391 26.6013 27.6524 26.668L26.4391 27.148C25.6924 27.4413 25.1191 27.028 25.1724 26.228L25.2524 24.9213C25.2657 24.7213 25.1724 24.428 25.0391 24.2813L24.2124 23.268C23.6924 22.6546 23.9191 21.9746 24.6924 21.7746L25.9591 21.4546C26.1591 21.4013 26.3991 21.2146 26.5057 21.0413L27.2124 19.948C27.6524 19.268 28.3457 19.268 28.7857 19.948L29.4924 21.0413C29.5991 21.2146 29.8391 21.4013 30.0391 21.4546L31.3057 21.7746C32.0791 21.9746 32.3057 22.6546 31.7857 23.268Z" fill="white"/>
</svg>
