<svg width="56" height="56" viewBox="0 0 56 56" fill="none" xmlns="http://www.w3.org/2000/svg">
<rect x="0.5" y="0.5" width="55" height="55" rx="15.5" fill="#00B144"/>
<rect x="0.5" y="0.5" width="55" height="55" rx="15.5" stroke="#3A3A47"/>
<path d="M37.0013 30.532H34.4384C34.2404 30.532 34.0468 30.5908 33.8822 30.701L30.788 32.772C30.308 33.092 29.748 33.2387 29.2013 33.2387C28.7346 33.2387 28.268 33.132 27.8413 32.892C27.1266 32.5142 26.623 31.7846 26.4263 30.9905C26.3198 30.561 26.0402 30.1731 25.633 29.9998C24.9299 29.7005 24.2989 29.283 23.7746 28.7587C22.628 27.612 22.0013 25.9987 22.0013 24.1987V18.9987V18.332C22.0013 17.7797 21.5536 17.332 21.0013 17.332H20.668C17.068 17.332 14.668 19.132 14.668 23.332V30.532C14.668 34.732 17.068 36.532 20.668 36.532H25.668V40.332H21.868C21.3213 40.332 20.868 40.7854 20.868 41.332C20.868 41.8787 21.3213 42.332 21.868 42.332H31.468C32.0146 42.332 32.468 41.8787 32.468 41.332C32.468 40.7854 32.0146 40.332 31.468 40.332H27.668V36.532H32.668C35.9681 36.532 38.2599 35.0194 38.6187 31.5318C38.6752 30.9824 38.2203 30.532 37.668 30.532H37.0013Z" fill="white"/>
<path d="M37 14.668H28.3333C26.3467 14.668 24.8533 15.6813 24.2667 17.3346C24.0933 17.8413 24 18.4013 24 19.0013V24.2013C24 25.4946 24.4267 26.588 25.1867 27.348C25.9467 28.108 27.04 28.5346 28.3333 28.5346V30.388C28.3333 31.068 29.1067 31.4813 29.68 31.108L33.5333 28.5346H37C37.6 28.5346 38.16 28.4413 38.6667 28.268C40.32 27.6813 41.3333 26.188 41.3333 24.2013V19.0013C41.3333 16.4013 39.6 14.668 37 14.668ZM28.8267 22.668C28.2667 22.668 27.8267 22.2146 27.8267 21.668C27.8267 21.1213 28.2667 20.668 28.8267 20.668C29.3867 20.668 29.8267 21.1213 29.8267 21.668C29.8267 22.2146 29.3867 22.668 28.8267 22.668ZM32.5867 22.668C32.0267 22.668 31.5867 22.2146 31.5867 21.668C31.5867 21.1213 32.04 20.668 32.5867 20.668C33.1333 20.668 33.5867 21.1213 33.5867 21.668C33.5867 22.2146 33.1333 22.668 32.5867 22.668ZM36.3333 22.668C35.7733 22.668 35.3333 22.2146 35.3333 21.668C35.3333 21.1213 35.7867 20.668 36.3333 20.668C36.88 20.668 37.3333 21.1213 37.3333 21.668C37.3333 22.2146 36.88 22.668 36.3333 22.668Z" fill="white"/>
<path d="M41.3333 19.0013V24.2013C41.3333 26.188 40.32 27.6813 38.6667 28.268C38.16 28.4413 37.6 28.5346 37 28.5346H33.5333L29.68 31.108C29.1067 31.4813 28.3333 31.068 28.3333 30.388V28.5346C27.04 28.5346 25.9467 28.108 25.1867 27.348C24.4267 26.588 24 25.4946 24 24.2013V19.0013C24 18.4013 24.0933 17.8413 24.2667 17.3346C24.8533 15.6813 26.3467 14.668 28.3333 14.668H37C39.6 14.668 41.3333 16.4013 41.3333 19.0013Z" fill="white"/>
</svg>
