<svg width="32" height="32" viewBox="0 0 32 32" fill="none" xmlns="http://www.w3.org/2000/svg">
<g id="vuesax/bold/document-text">
<g id="document-text">
<path id="Vector" d="M21.0676 2.94731C20.5209 2.40064 19.5742 2.77398 19.5742 3.53398V8.18731C19.5742 10.134 21.2276 11.7473 23.2409 11.7473C24.5076 11.7606 26.2676 11.7606 27.7742 11.7606C28.5342 11.7606 28.9342 10.8673 28.4009 10.334C26.4809 8.40064 23.0409 4.92064 21.0676 2.94731Z" fill="white"/>
<path id="Vector_2" d="M27.332 13.5841H23.4787C20.3187 13.5841 17.7454 11.0107 17.7454 7.85073V3.9974C17.7454 3.26406 17.1454 2.66406 16.412 2.66406H10.7587C6.65203 2.66406 3.33203 5.33073 3.33203 10.0907V21.9041C3.33203 26.6641 6.65203 29.3307 10.7587 29.3307H21.2387C25.3454 29.3307 28.6654 26.6641 28.6654 21.9041V14.9174C28.6654 14.1841 28.0654 13.5841 27.332 13.5841ZM15.332 23.6641H9.9987C9.45203 23.6641 8.9987 23.2107 8.9987 22.6641C8.9987 22.1174 9.45203 21.6641 9.9987 21.6641H15.332C15.8787 21.6641 16.332 22.1174 16.332 22.6641C16.332 23.2107 15.8787 23.6641 15.332 23.6641ZM17.9987 18.3307H9.9987C9.45203 18.3307 8.9987 17.8774 8.9987 17.3307C8.9987 16.7841 9.45203 16.3307 9.9987 16.3307H17.9987C18.5454 16.3307 18.9987 16.7841 18.9987 17.3307C18.9987 17.8774 18.5454 18.3307 17.9987 18.3307Z" fill="white"/>
</g>
</g>
</svg>
