<svg width="88" height="93" viewBox="0 0 88 93" fill="none" xmlns="http://www.w3.org/2000/svg">
<path d="M41.4584 92.2016C39.406 91.7605 37.2893 91.5105 35.3126 90.846C27.972 88.3733 22.6176 83.7213 20.2339 76.1743C18.367 70.2671 19.4898 64.6665 22.5267 59.3859C25.2721 54.6128 28.7559 50.3887 32.3268 46.2271C33.2299 45.1744 34.0251 44.6329 35.6515 44.701C41.2805 44.9358 46.9283 44.9264 52.5573 44.7067C54.1629 44.6442 54.977 45.1573 55.8858 46.2214C59.3014 50.2259 62.6035 54.3023 65.3564 58.8085C73.1949 71.6303 66.9733 85.0845 54.8502 90.1587C52.4532 91.1622 49.9634 91.7908 47.3771 92.0426C47.165 92.0634 46.9586 92.1448 46.7485 92.1997H41.4565L41.4584 92.2016ZM42.5433 55.8662C42.0795 56.0195 41.661 56.1464 41.2521 56.2941C38.5332 57.2692 36.8898 59.4314 36.8708 62.0556C36.8519 64.7195 38.2303 66.6261 41.0817 67.6656C42.2252 68.0821 43.4692 68.2166 44.6298 68.5914C45.6939 68.9341 46.8204 69.2674 47.7179 69.8922C49.1852 70.9146 49.2534 72.9291 47.9811 73.9667C45.425 76.0494 39.9816 75.5363 39.1315 71.901C38.9176 70.9865 38.0068 70.6098 37.1908 70.8938C36.4297 71.1588 36.0586 71.937 36.2896 72.8155C36.7269 74.4665 37.6357 75.8222 39.0917 76.6988C40.1274 77.3217 41.2861 77.7364 42.5149 78.3025C42.6304 79.2662 42.1741 80.9172 43.9918 80.9494C45.8567 80.9835 45.4591 79.2889 45.6049 78.2173C46.6159 77.867 47.5702 77.6322 48.4392 77.2138C50.4064 76.269 51.7318 74.7808 51.8416 72.4937C51.9571 70.0853 51.0029 68.1446 48.8728 67.001C47.6478 66.3421 46.2486 65.9919 44.91 65.564C43.8952 65.2402 42.8217 65.0925 41.8276 64.7233C40.703 64.3068 39.9135 63.5191 39.8832 62.2033C39.851 60.84 40.5705 59.9521 41.7121 59.3594C44.1735 58.0795 47.023 58.9618 48.3541 61.3948C48.9107 62.4096 49.6624 62.7466 50.4879 62.3453C51.3456 61.9287 51.5652 61.0464 51.0445 59.9937C50.2152 58.32 48.9751 57.0136 47.1991 56.4266C46.0782 56.0555 45.3682 55.6977 45.4799 54.3174C45.5462 53.4805 44.7623 52.975 43.9368 53.0224C43.1303 53.0678 42.6001 53.6226 42.5471 54.5143C42.5206 54.9517 42.5433 55.3909 42.5433 55.8605V55.8662Z" fill="#00b144"/>
<path d="M0.878527 48.3089C3.4516 49.6039 5.98681 49.8293 8.87986 49.3995C2.30233 44.5449 -0.261275 38.0772 0.0208351 30.2084C2.94039 33.181 6.50559 35.0989 8.67538 34.866C4.96061 30.7366 2.74538 26.0316 3.09944 20.3989C3.32285 16.8507 4.82807 13.8157 7.34435 11.0703C7.44091 11.4717 7.51854 11.7481 7.57534 12.0284C8.42545 16.2392 9.91742 20.1262 13.1948 23.1045C15.4971 25.1967 18.3164 26.363 21.1091 27.6088C23.9169 28.8603 26.668 30.2406 29.4114 31.6284C30.1271 31.99 30.7254 32.5883 31.4525 33.1355C30.1498 34.5233 29.3035 36.0456 29.2543 37.9371C29.2051 39.8361 29.8621 41.4417 31.1704 42.875C29.8204 44.4578 28.461 46.016 27.1413 47.6065C24.2236 51.1243 21.5313 54.8012 19.3085 58.8095C19.1475 59.0991 18.7159 59.385 18.3883 59.4134C15.872 59.6406 13.3614 59.6312 10.883 59.0215C8.02406 58.3191 5.69712 56.812 3.91358 54.4718C2.54468 52.675 1.62262 50.6585 0.88042 48.3089H0.878527Z" fill="url(#paint0_linear_2438_33961)"/>
<path d="M79.305 34.9471C81.7455 35.0399 85.7197 32.8588 87.9595 30.1816C88.1583 33.9929 87.632 37.5316 86.1552 40.9207C84.6632 44.3477 82.3287 47.0911 79.0986 49.4219C81.9917 49.8801 84.5174 49.6377 87.0507 48.3881C86.9807 48.6835 86.9579 48.9126 86.8746 49.117C86.4695 50.1054 86.0984 51.1107 85.6212 52.0631C83.2299 56.8363 79.2804 59.2389 74.015 59.5267C72.5419 59.6062 71.0575 59.5191 69.5807 59.4491C69.2967 59.4358 68.8972 59.2219 68.7647 58.9814C65.6103 53.2256 61.4809 48.1969 57.1489 43.3158C57.0486 43.2022 56.9615 43.0753 56.8744 42.9636C59.3187 40.0838 59.5497 36.3785 56.6226 33.1863C58.7223 31.2702 61.2102 30.0112 63.7927 28.9111C65.3831 28.2333 66.9679 27.5384 68.5791 26.9155C75.4444 24.2629 79.1895 19.1414 80.4353 12.0224C80.4827 11.7554 80.5584 11.496 80.6322 11.1836C86.3161 16.7974 86.8481 26.6448 79.305 34.9471Z" fill="url(#paint1_linear_2438_33961)"/>
<path d="M43.9487 31.5038C41.4627 31.5038 38.9767 31.5266 36.4907 31.4811C36.0761 31.4736 35.5819 31.2691 35.2695 30.9907C34.4005 30.2201 33.5882 29.3795 32.7873 28.5351C31.4544 27.1321 31.3294 25.0948 32.456 23.6199C33.5579 22.1772 35.5005 21.7606 37.2064 22.6032C38.8953 23.4362 39.8704 23.0386 40.4592 21.2797C41.0083 19.6401 42.4283 18.5684 44.049 18.5703C45.6868 18.5741 47.0822 19.6287 47.635 21.2835C48.222 23.0405 49.197 23.4362 50.8878 22.6013C52.5862 21.7625 54.5439 22.1809 55.6383 23.6199C56.7591 25.091 56.6228 27.1321 55.3088 28.5426C55.288 28.5654 55.2653 28.5881 55.2425 28.6089C54.2769 29.5537 53.459 30.8355 52.3003 31.3448C51.2154 31.8219 49.7707 31.4906 48.4833 31.4982C46.9724 31.5076 45.4615 31.5001 43.9524 31.5001L43.9487 31.5038Z" fill="#00b144"/>
<path d="M44.0246 41.7926C41.3796 41.7926 38.7364 41.8021 36.0914 41.7889C33.8743 41.7775 32.3028 40.2931 32.2801 38.218C32.2555 36.0936 33.8099 34.5486 36.08 34.5373C41.4004 34.5146 46.7188 34.5127 52.0392 34.5373C54.2998 34.5486 55.8429 36.1182 55.8032 38.2521C55.7634 40.3215 54.1919 41.7775 51.9559 41.787C49.3108 41.7983 46.6677 41.7889 44.0227 41.7889L44.0246 41.7926Z" fill="#00b144"/>
<path d="M42.6556 6.0209C42.6556 4.60845 42.6423 3.19411 42.6593 1.78167C42.6726 0.668372 43.2576 -0.0037708 44.1608 1.59157e-05C45.0582 0.00380263 45.6641 0.683518 45.6717 1.79303C45.6906 4.58762 45.6887 7.38412 45.6717 10.1787C45.6641 11.345 45.0374 12.0418 44.1021 12.0077C43.1971 11.9755 42.6688 11.3185 42.6575 10.1674C42.6442 8.7852 42.6537 7.40305 42.6537 6.0209H42.6556Z" fill="#00b144"/>
<path d="M56.5051 15.2734C55.0094 15.298 54.2956 14.0787 54.8787 12.9862C55.5281 11.7688 56.2457 10.5893 56.9368 9.39265C57.6904 8.08813 58.4344 6.77982 59.2013 5.48287C59.7787 4.5059 60.5834 4.22757 61.3938 4.69144C62.1852 5.14585 62.3613 6.00922 61.8084 6.97673C60.4073 9.42863 59.0119 11.8843 57.5578 14.3021C57.2795 14.7641 56.738 15.0652 56.507 15.2715L56.5051 15.2734Z" fill="#00b144"/>
<path d="M33.7886 13.8889C33.408 14.2676 33.0634 14.8204 32.5674 15.0533C31.9218 15.3563 31.2515 15.0912 30.8596 14.4493C30.2386 13.4326 29.6592 12.3894 29.0628 11.3575C28.1994 9.86362 27.3266 8.37544 26.4765 6.87401C25.9312 5.91407 26.0997 5.04313 26.8816 4.58115C27.6693 4.11727 28.5137 4.40128 29.0741 5.365C30.4942 7.80554 31.9009 10.2537 33.302 12.7037C33.4686 12.9971 33.5633 13.3304 33.7905 13.8889H33.7886Z" fill="#00b144"/>
<defs>
<linearGradient id="paint0_linear_2438_33961" x1="17.9594" y1="41.661" x2="5.24667" y2="18.7601" gradientUnits="userSpaceOnUse">
<stop stop-color="#00b144" stop-opacity="0.098"/>
<stop offset="1" stop-color="#00b144"/>
</linearGradient>
<linearGradient id="paint1_linear_2438_33961" x1="74.539" y1="41.7081" x2="61.8523" y2="18.8591" gradientUnits="userSpaceOnUse">
<stop stop-color="#00b144" stop-opacity="0.098"/>
<stop offset="1" stop-color="#00b144"/>
</linearGradient>
</defs>
</svg>
