<svg width="32" height="32" viewBox="0 0 32 32" fill="none" xmlns="http://www.w3.org/2000/svg">
<g id="vuesax/bold/lock">
<g id="lock">
<path id="Vector" d="M25 10.6641V13.4641C24.4133 13.3841 23.7467 13.3441 23 13.3307V10.6641C23 6.46406 21.8133 3.66406 16 3.66406C10.1867 3.66406 9 6.46406 9 10.6641V13.3307C8.25333 13.3441 7.58667 13.3841 7 13.4641V10.6641C7 6.7974 7.93333 1.66406 16 1.66406C24.0667 1.66406 25 6.7974 25 10.6641Z" fill="white"/>
<path id="Vector_2" d="M24.9974 13.4693C24.4107 13.3893 23.7441 13.3493 22.9974 13.3359H8.9974C8.25073 13.3493 7.58406 13.3893 6.9974 13.4693C3.5974 13.8826 2.66406 15.5493 2.66406 20.0026V22.6693C2.66406 28.0026 3.9974 29.3359 9.33073 29.3359H22.6641C27.9974 29.3359 29.3307 28.0026 29.3307 22.6693V20.0026C29.3307 15.5493 28.3974 13.8826 24.9974 13.4693ZM11.6107 22.2826C11.3574 22.5226 11.0107 22.6693 10.6641 22.6693C10.4907 22.6693 10.3174 22.6293 10.1574 22.5626C9.98406 22.4959 9.85073 22.4026 9.7174 22.2826C9.4774 22.0293 9.33073 21.6826 9.33073 21.3359C9.33073 21.1626 9.37073 20.9893 9.4374 20.8293C9.50406 20.6693 9.5974 20.5226 9.7174 20.3893C9.85073 20.2693 9.98406 20.1759 10.1574 20.1093C10.6507 19.8959 11.2374 20.0159 11.6107 20.3893C11.7307 20.5226 11.8241 20.6693 11.8907 20.8293C11.9574 20.9893 11.9974 21.1626 11.9974 21.3359C11.9974 21.6826 11.8507 22.0293 11.6107 22.2826ZM17.2241 21.8426C17.1574 22.0026 17.0641 22.1493 16.9441 22.2826C16.6907 22.5226 16.3441 22.6693 15.9974 22.6693C15.6374 22.6693 15.3041 22.5226 15.0507 22.2826C14.9307 22.1493 14.8374 22.0026 14.7707 21.8426C14.7041 21.6826 14.6641 21.5093 14.6641 21.3359C14.6641 20.9759 14.8107 20.6426 15.0507 20.3893C15.5441 19.8959 16.4374 19.8959 16.9441 20.3893C17.1841 20.6426 17.3307 20.9759 17.3307 21.3359C17.3307 21.5093 17.2907 21.6826 17.2241 21.8426ZM22.2774 22.2826C22.0241 22.5226 21.6774 22.6693 21.3307 22.6693C20.9841 22.6693 20.6374 22.5226 20.3841 22.2826C20.1441 22.0293 19.9974 21.6959 19.9974 21.3359C19.9974 20.9759 20.1441 20.6426 20.3841 20.3893C20.8907 19.8959 21.7841 19.8959 22.2774 20.3893C22.3307 20.4559 22.3841 20.5226 22.4374 20.6026C22.4907 20.6693 22.5307 20.7493 22.5574 20.8293C22.5974 20.9093 22.6241 20.9893 22.6374 21.0693C22.6507 21.1626 22.6641 21.2559 22.6641 21.3359C22.6641 21.6826 22.5174 22.0293 22.2774 22.2826Z" fill="white"/>
</g>
</g>
</svg>
