<svg width="22" height="19" viewBox="0 0 22 19" fill="none" xmlns="http://www.w3.org/2000/svg">
  <g clipPath="url(#clip0_2349_24536)">
    <path d="M21.5629 3.61629C21.3138 4.48125 20.644 4.93439 19.8959 5.29999C18.998 5.73772 18.0371 5.96184 17.0517 6.07951C15.4693 6.26861 13.8995 6.20207 12.3515 5.80006C11.604 5.60605 10.8818 5.34131 10.2547 4.87836C10.0147 4.70117 9.80192 4.47985 9.60596 4.25293C9.39391 4.0078 9.30223 3.70313 9.29943 3.37606C9.29943 3.36905 9.29943 3.36205 9.29943 3.35575C9.16086 2.29468 9.68575 1.60551 10.5536 1.10474C11.4347 0.596265 12.3942 0.319616 13.3894 0.168335C15.1817 -0.104111 16.9663 -0.0634896 18.7131 0.451287C19.2863 0.620077 19.8427 0.875714 20.3725 1.15586C20.9498 1.46123 21.3929 1.91998 21.5629 2.58533V3.61699V3.61629Z" fill="#00b144"/>
    <path d="M21.5635 9.84392C21.3347 10.6045 20.7692 11.0535 20.1064 11.4072C19.2169 11.882 18.2553 12.1278 17.2657 12.2637C15.5826 12.4948 13.9114 12.4318 12.2639 11.9885C11.5452 11.7952 10.8509 11.5346 10.249 11.085C10.0153 10.9106 9.80463 10.6977 9.61357 10.4757C9.40222 10.2305 9.29934 9.92797 9.30284 9.60089C9.30704 9.22619 9.24965 8.84379 9.42111 8.46348C9.51069 8.58955 9.58418 8.70861 9.67306 8.81647C10.0909 9.32354 10.6417 9.64011 11.2358 9.88875C12.6075 10.4624 14.0492 10.6494 15.5231 10.6431C16.794 10.6381 18.0419 10.475 19.2421 10.04C19.5885 9.91466 19.9266 9.75638 20.2513 9.58128C20.7335 9.32004 21.1485 8.97476 21.4334 8.45508C21.4844 8.57694 21.525 8.6743 21.5649 8.77165V9.84392H21.5635Z" fill="#00b144"/>
    <path d="M21.5643 6.70808C21.3894 7.37974 20.9247 7.81187 20.3578 8.15506C19.4613 8.69715 18.4717 8.9738 17.4485 9.12718C15.6198 9.40033 13.8023 9.3506 12.0254 8.80291C11.4928 8.63902 10.977 8.39599 10.4836 8.13265C9.53249 7.62557 9.14897 6.81174 9.31484 5.74366C9.32394 5.68273 9.33303 5.6218 9.34913 5.56227C9.36663 5.49713 9.39112 5.4341 9.41422 5.36546C10.2834 6.62754 11.618 7.02675 12.9968 7.2992C15.0375 7.70332 17.0685 7.63188 19.0603 6.99173C19.469 6.86006 19.8637 6.67306 20.2451 6.47346C20.7315 6.21922 21.1465 5.87113 21.4342 5.34375C21.4852 5.47262 21.5251 5.57487 21.5657 5.67643V6.70808H21.5643Z" fill="#00b144"/>
    <path d="M21.5634 16.1968C21.3899 16.8692 20.9252 17.302 20.3583 17.6452C19.4681 18.1845 18.4855 18.4597 17.4693 18.6138C15.6273 18.8932 13.7993 18.8302 12.0035 18.2958C11.249 18.071 10.5443 17.7446 9.9333 17.2278C9.22225 16.6268 9.17326 15.6771 9.41961 14.8633C10.2853 16.1261 11.6304 16.5204 13.014 16.7949C14.9631 17.1815 16.9073 17.1157 18.8235 16.5624C19.5129 16.3635 20.177 16.0945 20.7369 15.6337C20.9979 15.4187 21.2142 15.149 21.457 14.8983C21.4829 14.9627 21.5235 15.0643 21.5634 15.1658V16.1975V16.1968Z" fill="#00b144"/>
    <path d="M21.5615 13.1034C21.3656 13.8093 20.8631 14.2485 20.2591 14.5959C19.3647 15.1099 18.3863 15.3747 17.3764 15.5218C15.5813 15.783 13.8016 15.7144 12.052 15.2045C11.343 14.9979 10.6726 14.7051 10.0833 14.2478C9.26237 13.6104 9.13919 12.8211 9.41144 11.7656C9.42263 11.767 9.44153 11.7642 9.44503 11.7698C9.94402 12.5998 10.7503 13.0032 11.6139 13.3121C13.0836 13.8373 14.6064 13.9823 16.1573 13.899C17.3722 13.8338 18.5571 13.6272 19.6803 13.1426C20.383 12.8393 21.0213 12.4471 21.4356 11.7285C21.4832 11.8595 21.5224 11.9659 21.5615 12.0724V13.1041V13.1034Z" fill="#00b144"/>
    <path d="M8.28313 4.84443V10.7787C7.41392 10.9041 6.5503 10.9167 5.68808 10.8607C4.59422 10.7899 3.52344 10.5952 2.50166 10.1806C1.95788 9.95997 1.44489 9.68543 1.01938 9.2715C0.642158 8.90521 0.479793 8.46887 0.4434 7.93239C0.380414 6.99178 0.826219 6.37965 1.56526 5.9097C2.43238 5.3592 3.39817 5.08045 4.39686 4.90536C5.66359 4.68334 6.93732 4.67003 8.21315 4.81991C8.23274 4.82202 8.25094 4.83252 8.28243 4.84373L8.28313 4.84443Z" fill="#00b144"/>
    <path d="M8.29084 15.2618C8.29994 15.8403 8.23765 16.416 8.53509 16.9763C8.08718 17.0162 7.68687 17.0646 7.28445 17.0849C5.73498 17.1633 4.21351 17.0141 2.74312 16.4889C2.14475 16.2752 1.58137 15.9944 1.10267 15.5665C0.671561 15.1813 0.410516 14.719 0.453907 14.1195C0.470703 13.887 0.474902 13.6537 0.495198 13.4219C0.502197 13.3449 0.541388 13.2699 0.572882 13.1719C1.21325 14.1874 2.21123 14.602 3.26101 14.9102C4.87766 15.3851 6.52861 15.4614 8.19706 15.2611C8.21735 15.259 8.23835 15.2611 8.29084 15.2611V15.2618Z" fill="#00b144"/>
    <path d="M8.28542 12.1529V13.8864C8.09856 13.9074 7.911 13.9333 7.72274 13.948C6.0354 14.0818 4.37605 13.9543 2.76779 13.3891C2.17572 13.1811 1.61724 12.9044 1.13784 12.4884C0.676637 12.0885 0.403695 11.6052 0.455484 10.9735C0.47368 10.748 0.479279 10.5218 0.499575 10.2969C0.505874 10.2262 0.543666 10.159 0.572359 10.0742C1.34919 11.2382 2.54454 11.6375 3.78118 11.9386C5.20257 12.2853 6.64707 12.3266 8.09856 12.1641C8.15314 12.1578 8.20773 12.1571 8.28472 12.1529H8.28542Z" fill="#00b144"/>
  </g>
  <defs>
    <clipPath id="clip0_2349_24536">
      <rect width="21.125" height="18.7778" fill="white" transform="translate(0.4375)"/>
    </clipPath>
  </defs>
</svg>
