<svg width="32" height="32" viewBox="0 0 32 32" fill="none" xmlns="http://www.w3.org/2000/svg">
<g id="vuesax/bold/money-send">
<g id="money-send">
<path id="Vector" d="M13.668 13.3759C13.668 14.0959 13.868 14.2026 14.3213 14.3626L15.0013 14.6026V12.3359H14.6013C14.0946 12.3359 13.668 12.8026 13.668 13.3759Z" fill="white"/>
<path id="Vector_2" d="M17 19.6651H17.4C17.92 19.6651 18.3333 19.1984 18.3333 18.6251C18.3333 17.9051 18.1333 17.7984 17.68 17.6384L17 17.3984V19.6651Z" fill="white"/>
<path id="Vector_3" d="M26.108 7.30406L23.3746 10.0374C23.1746 10.2374 22.9213 10.3307 22.668 10.3307C22.4146 10.3307 22.1613 10.2374 21.9613 10.0374C21.5746 9.65073 21.5746 9.01073 21.9613 8.62406L24.6946 5.89073C22.348 3.89073 19.3213 2.66406 16.0013 2.66406C8.6413 2.66406 2.66797 8.6374 2.66797 15.9974C2.66797 23.3574 8.6413 29.3307 16.0013 29.3307C23.3613 29.3307 29.3346 23.3574 29.3346 15.9974C29.3346 12.6774 28.108 9.65073 26.108 7.30406ZM18.3346 15.7574C19.188 16.0641 20.3346 16.6774 20.3346 18.6374C20.3346 20.3041 19.0146 21.6774 17.4013 21.6774H17.0013V22.0107C17.0013 22.5574 16.548 23.0107 16.0013 23.0107C15.4546 23.0107 15.0013 22.5574 15.0013 22.0107V21.6774H14.8946C13.1213 21.6774 11.668 20.1841 11.668 18.3441C11.668 17.7841 12.1213 17.3307 12.668 17.3307C13.2146 17.3307 13.668 17.7841 13.668 18.3307C13.668 19.0641 14.2146 19.6641 14.8946 19.6641H15.0013V16.7041L13.668 16.2374C12.8146 15.9307 11.668 15.3174 11.668 13.3574C11.668 11.6907 12.988 10.3174 14.6013 10.3174H15.0013V9.9974C15.0013 9.45073 15.4546 8.9974 16.0013 8.9974C16.548 8.9974 17.0013 9.45073 17.0013 9.9974V10.3307H17.108C18.8813 10.3307 20.3346 11.8241 20.3346 13.6641C20.3346 14.2107 19.8813 14.6641 19.3346 14.6641C18.788 14.6641 18.3346 14.2107 18.3346 13.6641C18.3346 12.9307 17.788 12.3307 17.108 12.3307H17.0013V15.2907L18.3346 15.7574Z" fill="white"/>
<path id="Vector_4" d="M30.2533 2.2774C30.1467 2.0374 29.96 1.8374 29.7067 1.73073C29.5867 1.69073 29.4667 1.66406 29.3333 1.66406H24C23.4533 1.66406 23 2.1174 23 2.66406C23 3.21073 23.4533 3.66406 24 3.66406H26.92L24.6933 5.89073C25.2 6.33073 25.6667 6.7974 26.1067 7.30406L28.3333 5.0774V7.9974C28.3333 8.54406 28.7867 8.9974 29.3333 8.9974C29.88 8.9974 30.3333 8.54406 30.3333 7.9974V2.66406C30.3333 2.53073 30.3067 2.41073 30.2533 2.2774Z" fill="white"/>
</g>
</g>
</svg>
