<svg width="32" height="33" viewBox="0 0 32 33" fill="none" xmlns="http://www.w3.org/2000/svg">
<path d="M2.26536 27.7809C2.2787 27.7676 2.2787 27.7543 2.2787 27.7543L9.61203 20.4209C9.62537 20.4076 9.6387 20.4076 9.65203 20.3943C8.81203 19.8076 7.78537 19.4609 6.66537 19.4609C3.7187 19.4609 1.33203 21.8476 1.33203 24.7943C1.33203 25.7943 1.61203 26.7409 2.10536 27.5409C2.1587 27.6209 2.21203 27.7009 2.26536 27.7809Z" fill="#F6F7FF"/>
<path d="M11.068 21.7969C11.0546 21.8102 11.0546 21.8235 11.0413 21.8369L3.70797 29.1702C3.69464 29.1835 3.6813 29.1835 3.66797 29.1969C4.5213 29.7835 5.54797 30.1302 6.66797 30.1302C8.61464 30.1302 10.308 29.0902 11.228 27.5435C11.7213 26.7435 12.0013 25.7969 12.0013 24.7969C12.0013 23.6769 11.6546 22.6502 11.068 21.7969Z" fill="#F6F7FF"/>
<path d="M22.668 6.13281H9.33463C5.33464 6.13281 2.66797 8.13281 2.66797 12.7995V17.5461C2.66797 18.0395 3.17464 18.3461 3.61464 18.1461C4.9213 17.5461 6.42797 17.3195 8.01464 17.5995C11.5213 18.2261 14.0946 21.4795 14.0013 25.0395C13.988 25.5995 13.908 26.1461 13.7613 26.6795C13.6546 27.0928 13.988 27.4795 14.4146 27.4795H22.668C26.668 27.4795 29.3346 25.4795 29.3346 20.8128V12.7995C29.3346 8.13281 26.668 6.13281 22.668 6.13281ZM16.0013 20.1328C14.1613 20.1328 12.668 18.6395 12.668 16.7995C12.668 14.9595 14.1613 13.4661 16.0013 13.4661C17.8413 13.4661 19.3346 14.9595 19.3346 16.7995C19.3346 18.6395 17.8413 20.1328 16.0013 20.1328ZM25.668 19.4661C25.668 20.0128 25.2146 20.4661 24.668 20.4661C24.1213 20.4661 23.668 20.0128 23.668 19.4661V14.1328C23.668 13.5861 24.1213 13.1328 24.668 13.1328C25.2146 13.1328 25.668 13.5861 25.668 14.1328V19.4661Z" fill="#F6F7FF"/>
</svg>
