<svg width="33" height="32" viewBox="0 0 33 32" fill="none" xmlns="http://www.w3.org/2000/svg">
<g id="vuesax/bold/personalcard">
<g id="personalcard">
<path id="Vector" d="M24.6693 4H8.66927C5.7226 4 3.33594 6.37333 3.33594 9.29333V22.7067C3.33594 25.6267 5.7226 28 8.66927 28H24.6693C27.6159 28 30.0026 25.6267 30.0026 22.7067V9.29333C30.0026 6.37333 27.6159 4 24.6693 4ZM12.0026 9.56C13.6959 9.56 15.0826 10.9467 15.0826 12.64C15.0826 14.3333 13.6959 15.72 12.0026 15.72C10.3093 15.72 8.9226 14.3333 8.9226 12.64C8.9226 10.9467 10.3093 9.56 12.0026 9.56ZM17.1626 22.2133C17.0426 22.3467 16.8559 22.4267 16.6693 22.4267H7.33594C7.14927 22.4267 6.9626 22.3467 6.8426 22.2133C6.7226 22.08 6.65594 21.8933 6.66927 21.7067C6.89594 19.4667 8.6826 17.6933 10.9226 17.48C11.6293 17.4133 12.3626 17.4133 13.0693 17.48C15.3093 17.6933 17.1093 19.4667 17.3226 21.7067C17.3493 21.8933 17.2826 22.08 17.1626 22.2133ZM26.0026 22.3333H23.3359C22.7893 22.3333 22.3359 21.88 22.3359 21.3333C22.3359 20.7867 22.7893 20.3333 23.3359 20.3333H26.0026C26.5493 20.3333 27.0026 20.7867 27.0026 21.3333C27.0026 21.88 26.5493 22.3333 26.0026 22.3333ZM26.0026 17H20.6693C20.1226 17 19.6693 16.5467 19.6693 16C19.6693 15.4533 20.1226 15 20.6693 15H26.0026C26.5493 15 27.0026 15.4533 27.0026 16C27.0026 16.5467 26.5493 17 26.0026 17ZM26.0026 11.6667H19.3359C18.7893 11.6667 18.3359 11.2133 18.3359 10.6667C18.3359 10.12 18.7893 9.66667 19.3359 9.66667H26.0026C26.5493 9.66667 27.0026 10.12 27.0026 10.6667C27.0026 11.2133 26.5493 11.6667 26.0026 11.6667Z" fill="#F6F7FF"/>
</g>
</g>
</svg>
