<svg width="32" height="33" viewBox="0 0 32 33" fill="none" xmlns="http://www.w3.org/2000/svg">
<path d="M29.2917 24.7943V26.1276C29.2917 28.3276 29.2917 30.1276 25.2917 30.1276H6.625C2.625 30.1276 2.625 28.3276 2.625 26.1276V24.7943C2.625 24.0609 3.225 23.4609 3.95833 23.4609H27.9583C28.6917 23.4609 29.2917 24.0609 29.2917 24.7943Z" fill="white"/>
<path d="M19.2127 7.70324C19.2794 7.43657 19.3194 7.18324 19.3327 6.90324C19.3727 5.35657 18.426 3.99657 16.9327 3.59657C14.6927 2.98324 12.666 4.66324 12.666 6.79657C12.666 7.11657 12.706 7.4099 12.786 7.70324C7.97271 8.7299 4.35938 13.0099 4.35938 18.1299V20.1299C4.35938 20.8632 4.95938 21.4632 5.69271 21.4632H26.2927C27.026 21.4632 27.626 20.8632 27.626 20.1299V18.1299C27.626 13.0099 24.026 8.74324 19.2127 7.70324ZM19.9994 16.4632H11.9994C11.4527 16.4632 10.9994 16.0099 10.9994 15.4632C10.9994 14.9166 11.4527 14.4632 11.9994 14.4632H19.9994C20.546 14.4632 20.9994 14.9166 20.9994 15.4632C20.9994 16.0099 20.546 16.4632 19.9994 16.4632Z" fill="white"/>
</svg>
