<svg width="88" height="89" viewBox="0 0 88 89" fill="none" xmlns="http://www.w3.org/2000/svg">
<path d="M41.2043 88.4585C39.9768 87.9201 38.6227 87.922 37.3556 87.5182C27.8843 84.497 21.9291 78.1835 20.0939 68.4172C17.73 55.8298 25.4868 43.7907 37.7634 40.4825C51.4912 36.7823 66.0525 46.3605 68.0917 60.4288C70.0398 73.8814 60.9823 86.1086 47.5218 88.215C47.1278 88.2764 46.6724 88.0883 46.3398 88.4585H45.3519C44.364 88.1378 43.3781 88.1358 42.3902 88.4585H41.2063H41.2043ZM42.412 77.0273C42.412 77.7836 42.3842 78.2805 42.4179 78.7715C42.4852 79.7614 43.1663 80.4008 44.069 80.3652C44.9342 80.3296 45.5321 79.698 45.5618 78.7358C45.5875 77.9142 45.6073 77.0887 45.5578 76.269C45.5163 75.6018 45.6964 75.2673 46.3854 75C49.1294 73.9369 50.8023 71.0147 50.3786 68.2212C49.8975 65.0496 47.5732 62.8184 44.4769 62.5492C44.1482 62.5214 43.8196 62.4957 43.4949 62.4442C41.8438 62.1809 40.648 60.7891 40.6599 59.1558C40.6717 57.574 41.8913 56.1347 43.4236 55.8911C45.1243 55.6219 46.6744 56.5742 47.1634 58.2214C47.2743 58.5936 47.2723 58.9974 47.3476 59.3835C47.5059 60.1912 48.0167 60.6862 48.8245 60.7377C49.5906 60.7872 50.1489 60.3773 50.4063 59.6448C50.5726 59.1697 50.5093 58.6628 50.4162 58.1798C49.947 55.7347 48.5909 53.9945 46.2369 53.1135C45.7301 52.9235 45.5123 52.7156 45.5499 52.1474C45.6093 51.2624 45.5816 50.3715 45.5598 49.4826C45.5361 48.463 44.9223 47.8037 44.0255 47.7859C43.1346 47.7701 42.4575 48.4294 42.4159 49.4252C42.3803 50.2785 42.3605 51.1397 42.4219 51.991C42.4694 52.6542 42.2437 52.9096 41.6141 53.169C39.0265 54.2341 37.5912 56.2455 37.5259 59.0251C37.4605 61.7612 38.7791 63.7905 41.2419 65.0417C42.2377 65.5485 43.3227 65.596 44.4016 65.7168C46.0191 65.897 47.2406 67.2096 47.3218 68.8092C47.4109 70.5791 46.0983 72.1293 44.3818 72.2857C42.3684 72.4679 40.9548 71.2523 40.6559 69.0844C40.4955 67.9243 39.8501 67.3561 38.8444 67.4947C37.9377 67.6194 37.4031 68.3935 37.5179 69.4665C37.7654 71.7809 38.7969 73.7112 40.937 74.6417C42.307 75.2376 42.6495 75.9998 42.408 77.0273H42.412Z" fill="#00b144"/>
<path d="M88.0001 36.3283C87.8021 36.3957 87.8318 36.5778 87.7922 36.7302C87.0854 39.3713 85.0839 40.9986 82.3597 41.0204C77.8874 41.0561 73.4131 41.0264 68.9388 41.0382C68.4755 41.0382 68.2082 41.0105 68.2894 40.4126C68.5864 38.1913 68.0637 36.0987 67.1332 34.105C65.7434 31.1314 63.8824 28.4825 61.5146 26.1998C61.3028 25.9959 61.0573 25.8296 60.8296 25.6474C61.5126 24.8139 62.1066 24.6734 62.9103 25.3406C67.7529 29.3635 74.8266 29.3417 79.6929 25.2812C80.2671 24.8021 80.6195 24.711 81.2352 25.202C84.3276 27.6609 86.9726 30.4207 87.8477 34.4574C87.8556 34.497 87.9466 34.5208 88.0001 34.5505V36.3283Z" fill="url(#paint0_linear_2438_33936)"/>
<path d="M42.3896 88.4561C43.3776 88.1334 44.3635 88.1354 45.3514 88.4561H42.3896Z" fill="#020202"/>
<path d="M56.6501 12.8153C56.6719 19.7247 50.8118 25.4304 43.6865 25.4344C37.0067 25.4364 31.3287 19.6396 31.2951 12.7816C31.2614 5.7217 36.8899 0.0318084 43.938 0.000131938C50.9959 -0.0315446 56.6264 5.64449 56.6481 12.8153H56.6501Z" fill="url(#paint1_linear_2438_33936)"/>
<path d="M65.2605 39.4433C65.1279 41.1538 64.5636 42.5159 63.5441 43.7057C63.154 44.1611 62.9165 44.1314 62.4809 43.7335C58.7094 40.2886 54.3262 38.0158 49.2956 37.0893C40.4261 35.456 32.5664 37.6377 25.756 43.5276C25.0215 44.1631 24.6988 44.1274 24.1286 43.3949C22.5567 41.3736 22.4953 39.1423 23.1763 36.8458C24.4533 32.5358 27.3319 29.38 30.7767 26.6776C31.5231 26.0916 32.3625 25.6284 33.1465 25.0879C33.5306 24.8226 33.8077 24.8602 34.1839 25.1592C39.8956 29.6968 48.0622 29.7206 53.7976 25.1493C54.0629 24.9374 54.2747 24.7711 54.6588 25.0027C59.4558 27.8873 63.1837 31.6647 64.821 37.1764C65.0526 37.9584 65.1358 38.784 65.2585 39.4413L65.2605 39.4433Z" fill="url(#paint2_linear_2438_33936)"/>
<path d="M16.7102 25.0966C10.9174 25.1006 6.51829 20.7411 6.56383 15.0393C6.60936 9.33757 10.9451 5.03946 16.6706 5.01571C22.412 4.99393 26.8289 9.38508 26.811 15.0968C26.7932 20.8005 22.4575 25.0927 16.7102 25.0966Z" fill="url(#paint3_linear_2438_33936)"/>
<path d="M81.3796 15.0755C81.3776 20.8089 77.0003 25.1149 71.1936 25.0951C65.4542 25.0753 61.1244 20.7574 61.1304 15.0596C61.1363 9.35192 65.5869 4.9568 71.3065 5.01224C77.0498 5.06965 81.3835 9.39745 81.3816 15.0735L81.3796 15.0755Z" fill="url(#paint4_linear_2438_33936)"/>
<path d="M12.1844 41.0355C10.0799 41.0355 7.97339 41.0454 5.86888 41.0336C1.85784 41.0118 -0.765365 37.8639 0.200768 33.9935C1.19858 29.9923 3.95641 27.2325 7.18544 24.8825C7.59525 24.5836 7.77145 24.9102 7.99913 25.1023C10.8817 27.5255 14.1919 28.5986 17.9495 28.264C20.5747 28.0304 22.9089 27.0781 24.9639 25.4309C25.1935 25.2468 25.4192 25.033 25.6865 24.93C26.1973 24.734 26.6051 25.0468 26.8942 25.3933C27.2327 25.8031 26.7001 25.9397 26.5121 26.1298C23.9106 28.7748 21.6339 31.6395 20.3569 35.1813C19.7709 36.8047 19.47 38.4856 19.6482 40.2139C19.7155 40.8613 19.5749 41.0613 18.8958 41.0474C16.6607 41.0039 14.4235 41.0316 12.1864 41.0316L12.1844 41.0355Z" fill="url(#paint5_linear_2438_33936)"/>
<path d="M4.47919 57.2601C4.47919 55.1219 4.47325 52.9838 4.48117 50.8456C4.48711 49.6795 5.085 48.9806 6.04718 48.9727C7.00935 48.9648 7.631 49.6696 7.63496 50.8238C7.64288 54.4092 7.66664 57.9946 7.61714 61.58C7.60526 62.3897 7.87055 62.5322 8.60109 62.5204C10.9353 62.4768 13.2714 62.5283 15.6075 62.4887C16.2985 62.4768 16.6944 62.5798 16.5143 63.3816C16.4727 63.5716 16.4945 63.7755 16.4925 63.9715C16.4793 65.1 15.8913 65.6643 14.7285 65.6643C11.9984 65.6643 9.26828 65.6702 6.53816 65.6623C4.99195 65.6563 4.48315 65.1317 4.48117 63.5736C4.47721 61.4691 4.48117 59.3626 4.48117 57.2581L4.47919 57.2601Z" fill="#00b144"/>
<path d="M83.0065 57.334C83.0065 59.4721 83.0125 61.6103 83.0046 63.7485C82.9986 65.1006 82.4482 65.6688 81.0842 65.6748C77.9918 65.6906 74.8993 65.6629 71.8069 65.6926C71.1457 65.6985 70.8962 65.5025 71.0388 64.8512C71.0724 64.6928 71.0685 64.5245 71.0744 64.3602C71.1259 63.1314 71.7594 62.517 72.975 62.517C74.9825 62.517 76.99 62.4854 78.9955 62.5349C79.6805 62.5507 79.8706 62.3745 79.8646 61.6816C79.829 58.1298 79.8468 54.5761 79.8488 51.0224C79.8488 49.7296 80.4685 48.9674 81.4722 49.0011C82.4443 49.0327 83.0026 49.7593 83.0046 51.0165C83.0085 53.123 83.0046 55.2275 83.0046 57.334H83.0065Z" fill="#00b144"/>
<defs>
<linearGradient id="paint0_linear_2438_33936" x1="76.344" y1="35.0743" x2="74.2979" y2="25.5243" gradientUnits="userSpaceOnUse">
<stop stop-color="#00b144" stop-opacity="0.098"/>
<stop offset="1" stop-color="#00b144"/>
</linearGradient>
<linearGradient id="paint1_linear_2438_33936" x1="45.7728" y1="16.0491" x2="40.7502" y2="2.14647" gradientUnits="userSpaceOnUse">
<stop stop-color="#00b144" stop-opacity="0.098"/>
<stop offset="1" stop-color="#00b144"/>
</linearGradient>
<linearGradient id="paint2_linear_2438_33936" x1="47.0294" y1="36.9736" x2="45.1584" y2="25.4442" gradientUnits="userSpaceOnUse">
<stop stop-color="#00b144" stop-opacity="0.098"/>
<stop offset="1" stop-color="#00b144"/>
</linearGradient>
<linearGradient id="paint3_linear_2438_33936" x1="18.1249" y1="17.6867" x2="14.1941" y2="6.68172" gradientUnits="userSpaceOnUse">
<stop stop-color="#00b144" stop-opacity="0.098"/>
<stop offset="1" stop-color="#00b144"/>
</linearGradient>
<linearGradient id="paint4_linear_2438_33936" x1="72.6938" y1="17.6844" x2="68.7627" y2="6.67789" gradientUnits="userSpaceOnUse">
<stop stop-color="#00b144" stop-opacity="0.098"/>
<stop offset="1" stop-color="#00b144"/>
</linearGradient>
<linearGradient id="paint5_linear_2438_33936" x1="15.4195" y1="35.0384" x2="13.332" y2="25.4277" gradientUnits="userSpaceOnUse">
<stop stop-color="#00b144" stop-opacity="0.098"/>
<stop offset="1" stop-color="#00b144"/>
</linearGradient>
</defs>
</svg>
