<svg width="32" height="33" viewBox="0 0 32 33" fill="none" xmlns="http://www.w3.org/2000/svg">
<path d="M30.6652 21.2895V24.2095C30.6652 27.4628 28.2918 30.5295 25.0652 31.4228C24.8385 31.4761 24.5985 31.4761 24.3852 31.4228C22.8118 30.9961 21.4252 30.0361 20.4518 28.7961C19.3985 27.4895 18.7852 25.8761 18.7852 24.2095V21.2895C18.7852 20.7295 19.1985 20.1161 19.7052 19.9028L23.4118 18.3828C24.2518 18.0495 25.1852 18.0495 26.0252 18.3828L27.3585 18.9295L29.7452 19.9028C30.2518 20.1161 30.6652 20.7295 30.6652 21.2895Z" fill="white"/>
<path d="M27.9324 15.4759L27.6924 16.9026L26.7591 16.5293C25.4391 15.9959 23.9991 15.9959 22.6524 16.5293L18.9324 18.0626C17.6657 18.5959 16.7857 19.9159 16.7857 21.2893V24.2093C16.7857 25.7959 17.2257 27.3826 18.0391 28.7959H8.23907C6.4124 28.7959 4.6924 27.3426 4.38574 25.5426L2.70574 15.4759C2.4924 14.2359 3.11907 12.5693 4.10574 11.7826L12.8791 4.76928C14.2257 3.68928 16.4124 3.68928 17.7591 4.78261L26.5324 11.7826C27.5057 12.5693 28.1457 14.2359 27.9324 15.4759Z" fill="white"/>
</svg>
