<svg width="32" height="32" viewBox="0 0 32 32" fill="none" xmlns="http://www.w3.org/2000/svg">
<g id="vuesax/bold/scissor">
<g id="scissor">
<path id="Vector" d="M21.588 2.66797H10.4146C5.5613 2.66797 2.66797 5.5613 2.66797 10.4146V21.5746C2.66797 26.4413 5.5613 29.3346 10.4146 29.3346H21.5746C26.428 29.3346 29.3213 26.4413 29.3213 21.588V10.4146C29.3346 5.5613 26.4413 2.66797 21.588 2.66797ZM23.6813 19.5746C24.1213 19.908 24.2146 20.5346 23.8813 20.9746C23.6813 21.2413 23.388 21.3746 23.0813 21.3746C22.868 21.3746 22.668 21.308 22.4813 21.1746L17.2146 17.2413L14.0013 19.6413C14.0146 19.7746 14.0413 19.908 14.0413 20.0413C14.0413 21.7346 12.668 23.108 10.9746 23.108C9.2813 23.108 7.90797 21.7346 7.90797 20.0413C7.90797 18.348 9.2813 16.9746 10.9746 16.9746C11.8013 16.9746 12.5346 17.308 13.0813 17.828L15.5346 15.988L13.0946 14.1613C12.548 14.6946 11.788 15.028 10.9613 15.028C9.26797 15.028 7.89464 13.6546 7.89464 11.9613C7.89464 10.268 9.26797 8.89464 10.9613 8.89464C12.6546 8.89464 14.028 10.268 14.028 11.9613C14.028 12.0946 14.0013 12.2146 13.988 12.3346L17.188 14.7346L22.4546 10.8013C22.8946 10.468 23.5213 10.5613 23.8546 11.0013C24.188 11.4413 24.0946 12.068 23.6546 12.4013L18.8546 15.988L23.6813 19.5746Z" fill="#F6F7FF"/>
</g>
</g>
</svg>
