<svg width="32" height="32" viewBox="0 0 32 32" fill="none" xmlns="http://www.w3.org/2000/svg">
<g id="vuesax/bold/security-user">
<g id="security-user">
<path id="Vector" d="M24.6669 5.48302L18.0135 2.98969C16.9069 2.57635 15.0935 2.57635 13.9869 2.98969L7.33354 5.48302C5.80021 6.05635 4.54688 7.86969 4.54688 9.49635V19.403C4.54688 20.9764 5.58687 23.043 6.85354 23.9897L12.5869 28.2697C14.4669 29.683 17.5602 29.683 19.4402 28.2697L25.1735 23.9897C26.4402 23.043 27.4802 20.9764 27.4802 19.403V9.49635C27.4535 7.86969 26.2002 6.05635 24.6669 5.48302ZM15.9069 9.37635C17.4802 9.37635 18.7602 10.6564 18.7602 12.2297C18.7602 13.7764 17.5469 15.0164 16.0135 15.0697H15.9869H15.9602C15.9335 15.0697 15.9069 15.0697 15.8802 15.0697C14.2802 15.0164 13.0802 13.7764 13.0802 12.2297C13.0669 10.6564 14.3469 9.37635 15.9069 9.37635ZM18.9202 21.8164C18.1069 22.3497 17.0535 22.6297 16.0002 22.6297C14.9469 22.6297 13.8802 22.363 13.0802 21.8164C12.3202 21.3097 11.9069 20.6164 11.8935 19.8564C11.8935 19.1097 12.3202 18.3897 13.0802 17.883C14.6935 16.8164 17.3202 16.8164 18.9335 17.883C19.6935 18.3897 20.1202 19.083 20.1202 19.843C20.1069 20.5897 19.6802 21.3097 18.9202 21.8164Z" fill="white"/>
</g>
</g>
</svg>
