<svg width="32" height="33" viewBox="0 0 32 33" fill="none" xmlns="http://www.w3.org/2000/svg">
<path d="M16.0013 11.7969C13.6146 11.7969 11.668 13.7435 11.668 16.1302C11.668 18.5169 13.6146 20.4635 16.0013 20.4635C18.388 20.4635 20.3346 18.5169 20.3346 16.1302C20.3346 13.7435 18.388 11.7969 16.0013 11.7969ZM17.3346 15.7035C17.3346 16.5169 16.8946 17.2902 16.2013 17.7035L15.1746 18.3169C15.0146 18.4102 14.8413 18.4635 14.6546 18.4635C14.3213 18.4635 13.988 18.2902 13.8013 17.9835C13.5213 17.5035 13.668 16.8902 14.148 16.6102L15.1613 15.9969C15.268 15.9302 15.3213 15.8235 15.3213 15.7169V14.4769C15.3213 13.9302 15.7746 13.4769 16.3213 13.4769C16.868 13.4769 17.3346 13.9169 17.3346 14.4635V15.7035Z" fill="white"/>
<path d="M24.721 6.3551L17.3877 3.60844C16.6277 3.32844 15.3877 3.32844 14.6277 3.60844L7.29437 6.3551C5.88104 6.88844 4.73438 8.54177 4.73438 10.0484V20.8484C4.73438 21.9284 5.44104 23.3551 6.30771 23.9951L13.641 29.4751C14.9344 30.4484 17.0544 30.4484 18.3477 29.4751L25.681 23.9951C26.5477 23.3418 27.2544 21.9284 27.2544 20.8484V10.0484C27.2677 8.54177 26.121 6.88844 24.721 6.3551ZM16.001 22.4618C12.5077 22.4618 9.66771 19.6218 9.66771 16.1284C9.66771 12.6351 12.5077 9.7951 16.001 9.7951C19.4944 9.7951 22.3344 12.6351 22.3344 16.1284C22.3344 19.6218 19.4944 22.4618 16.001 22.4618Z" fill="white"/>
</svg>
