<svg width="56" height="56" viewBox="0 0 56 56" fill="none" xmlns="http://www.w3.org/2000/svg">
<rect x="0.5" y="0.5" width="55" height="55" rx="15.5" fill="#00B144"/>
<rect x="0.5" y="0.5" width="55" height="55" rx="15.5" stroke="#3A3A47"/>
<path d="M32.5193 18.9457L34.3993 22.7057C34.6526 23.2257 35.3326 23.7191 35.9059 23.8257L39.3059 24.3857C41.4793 24.7457 41.9859 26.3191 40.4259 27.8924L37.7726 30.5457C37.3326 30.9857 37.0793 31.8524 37.2259 32.4791L37.9859 35.7591C38.5859 38.3457 37.1993 39.3591 34.9193 37.9991L31.7326 36.1057C31.1593 35.7591 30.1993 35.7591 29.6259 36.1057L26.4393 37.9991C24.1593 39.3457 22.7726 38.3457 23.3726 35.7591L24.1326 32.4791C24.2526 31.8391 23.9993 30.9724 23.5593 30.5324L20.9059 27.8791C19.3459 26.3191 19.8526 24.7457 22.0259 24.3724L25.4259 23.8124C25.9993 23.7191 26.6793 23.2124 26.9326 22.6924L28.8126 18.9324C29.8393 16.9057 31.4926 16.9057 32.5193 18.9457Z" fill="white"/>
<path d="M22.668 19.668H14.668C14.1213 19.668 13.668 19.2146 13.668 18.668C13.668 18.1213 14.1213 17.668 14.668 17.668H22.668C23.2146 17.668 23.668 18.1213 23.668 18.668C23.668 19.2146 23.2146 19.668 22.668 19.668Z" fill="white"/>
<path d="M18.668 38.332H14.668C14.1213 38.332 13.668 37.8787 13.668 37.332C13.668 36.7854 14.1213 36.332 14.668 36.332H18.668C19.2146 36.332 19.668 36.7854 19.668 37.332C19.668 37.8787 19.2146 38.332 18.668 38.332Z" fill="white"/>
<path d="M16.0013 29H14.668C14.1213 29 13.668 28.5467 13.668 28C13.668 27.4533 14.1213 27 14.668 27H16.0013C16.548 27 17.0013 27.4533 17.0013 28C17.0013 28.5467 16.548 29 16.0013 29Z" fill="white"/>
</svg>
