<svg width="82" height="87" viewBox="0 0 82 87" fill="none" xmlns="http://www.w3.org/2000/svg">
<path d="M17.9351 18.1352H43.1677C44.814 18.1352 46.1482 16.8009 46.1482 15.1547V9.20712C46.1482 7.56123 44.814 6.22663 43.1677 6.22663H38.4858C37.5955 2.66072 34.39 0 30.5514 0C26.7146 0 23.5094 2.66072 22.6191 6.22663H17.9351C16.2888 6.22663 14.9546 7.56123 14.9546 9.20712V15.1547C14.9546 16.8006 16.2888 18.1352 17.9351 18.1352ZM30.5514 4.82588C32.4134 4.82588 33.9221 6.33523 33.9221 8.19688C33.9221 10.0585 32.4131 11.5679 30.5514 11.5679C28.6898 11.5679 27.1808 10.0585 27.1808 8.19688C27.1808 6.33523 28.6898 4.82588 30.5514 4.82588Z" fill="#00b144"/>
<path d="M50.596 72.8186C50.3668 70.6485 50.6795 67.6026 53.0374 64.4728C50.826 63.5336 49.5529 61.2804 49.0732 60.2999C47.9045 57.8793 47.6962 55.3548 48.4889 53.1221C49.3654 50.848 51.3268 49.4918 53.2253 48.1774C54.6232 47.2174 56.1881 46.1116 56.7307 45.0059C57.7321 42.9192 59.1509 41.4587 60.6114 40.499V17.6102C60.6114 13.9378 57.6069 10.9336 53.9348 10.9336H50.3254V15.1482C50.3254 19.0916 47.1122 22.3048 43.1688 22.3048H17.9429C13.9992 22.3048 10.7863 19.0919 10.7863 15.1482V10.9336H7.17692C3.48403 10.9336 0.5 13.9381 0.5 17.6102V74.8631C0.5 78.556 3.48367 81.54 7.17692 81.54H46.7157C47.1953 78.8485 48.8437 76.5532 51.0969 75.1553C50.8465 74.4248 50.6795 73.6322 50.596 72.8186ZM13.3975 34.5108C12.5826 33.6958 12.5826 32.3754 13.3975 31.5604C14.2125 30.7454 15.533 30.7454 16.348 31.5604L18.8969 34.1093L21.4459 31.5604C22.2608 30.7454 23.5813 30.7454 24.3963 31.5604C25.2113 32.3754 25.2113 33.6958 24.3963 34.5108L21.8473 37.0598L24.3963 39.6087C25.2113 40.4237 25.2113 41.7441 24.3963 42.5591C23.9888 42.9666 23.455 43.1704 22.9209 43.1704C22.3868 43.1704 21.8534 42.9666 21.4459 42.5591L18.8969 40.0102L16.348 42.5591C15.9405 42.9666 15.4067 43.1704 14.8726 43.1704C14.3384 43.1704 13.805 42.9666 13.3972 42.5591C12.5822 41.7441 12.5822 40.4237 13.3972 39.6087L15.9461 37.0598L13.3975 34.5108ZM40.7724 69.0956C41.5873 69.9095 41.5873 71.2311 40.7724 72.0461C40.3649 72.4535 39.8311 72.6573 39.297 72.6573C38.7628 72.6573 38.2294 72.4535 37.8219 72.0461L35.273 69.4975L32.724 72.0461C32.3165 72.4535 31.7828 72.6573 31.249 72.6573C30.7152 72.6573 30.1815 72.4535 29.7736 72.0461C28.9586 71.2311 28.9586 69.9095 29.7736 69.0956L32.3226 66.547L29.7736 63.9984C28.9586 63.1845 28.9586 61.863 29.7736 61.048C30.5886 60.233 31.9091 60.233 32.724 61.048L35.273 63.5966L37.8219 61.048C38.6369 60.233 39.9574 60.233 40.7724 61.048C41.5873 61.863 41.5873 63.1845 40.7724 63.9984L38.2234 66.547L40.7724 69.0956ZM46.2311 41.296C45.6973 41.296 45.1635 41.0922 44.7557 40.6847L42.1434 38.0725V44.4632C42.1434 49.016 39.0575 52.9629 34.6391 54.0602L21.8056 57.2479C19.2513 57.8815 17.4675 60.1626 17.4675 62.7933V70.5707C17.4675 71.7227 16.5333 72.6573 15.3809 72.6573C14.2288 72.6573 13.2942 71.7231 13.2942 70.5707V62.7933C13.2942 58.2412 16.3802 54.2957 20.7985 53.1974L33.6321 50.0097C36.1863 49.3758 37.9701 47.095 37.9701 44.4632V38.0725L35.3579 40.6847C34.5429 41.4997 33.2224 41.4997 32.4075 40.6847C31.5925 39.8698 31.5925 38.5493 32.4075 37.7343L38.5814 31.5604C39.3964 30.7454 40.7168 30.7454 41.5318 31.5604L47.7057 37.7343C48.5207 38.5493 48.5207 39.8698 47.7057 40.6847C47.2986 41.0922 46.7648 41.296 46.2311 41.296Z" fill="url(#paint0_linear_2395_27772)"/>
<path d="M75.8117 77.8916H73.6203C78.5615 75.7434 77.7883 71.146 75.898 66.4627C74.0508 61.8232 79.2492 60.1501 79.7221 51.7714C80.4525 39.355 68.7665 38.453 65.5865 38.4102C65.1574 38.4102 64.8992 38.7968 64.9855 39.2262L65.9735 42.7925C65.9735 42.7925 62.3648 42.9644 60.4738 46.8309C58.6266 50.6544 53.2991 52.2444 52.3971 54.6073C51.5379 56.9708 53.4711 60.2361 54.76 60.6648C56.6935 61.2668 61.9778 57.6578 63.3959 57.0564C64.8129 56.4544 65.3488 58.3925 57.8534 65.3457C51.5111 71.2288 56.4784 77.0748 57.8534 77.8912H56.1346C53.1272 77.8912 50.7212 80.2973 50.7212 83.2618V86.097C50.7212 86.6123 51.151 86.999 51.6232 86.999H80.2806C80.7967 86.999 81.1826 86.6123 81.1826 86.097V83.2618C81.1823 80.2973 78.7766 77.8916 75.8117 77.8916ZM65.5862 50.0958C64.5122 50.0958 63.6099 49.2366 63.6099 48.1192C63.6099 47.0453 64.5119 46.1433 65.5862 46.1433C66.7036 46.1433 67.6059 47.0453 67.6059 48.1192C67.6059 49.2366 66.7036 50.0958 65.5862 50.0958Z" fill="#00b144"/>
<defs>
<linearGradient id="paint0_linear_2395_27772" x1="34.8236" y1="55.4863" x2="19.1681" y2="18.4778" gradientUnits="userSpaceOnUse">
<stop stop-color="#00b144" stop-opacity="0.098"/>
<stop offset="1" stop-color="#00b144"/>
</linearGradient>
</defs>
</svg>
