<svg width="33" height="32" viewBox="0 0 33 32" fill="none" xmlns="http://www.w3.org/2000/svg">
<g id="vuesax/bold/user-tick">
<g id="user-tick">
<path id="Vector" d="M16.3309 18.668C9.65094 18.668 4.21094 23.148 4.21094 28.668C4.21094 29.0413 4.50427 29.3346 4.8776 29.3346H27.7843C28.1576 29.3346 28.4509 29.0413 28.4509 28.668C28.4509 23.148 23.0109 18.668 16.3309 18.668Z" fill="#F6F7FF"/>
<path id="Vector_2" d="M16.3307 2.66797C14.7574 2.66797 13.3174 3.21464 12.1707 4.13464C10.6374 5.34797 9.66406 7.22797 9.66406 9.33464C9.66406 10.588 10.0107 11.7613 10.6374 12.7613C11.7841 14.6946 13.8907 16.0013 16.3307 16.0013C18.0107 16.0013 19.5441 15.388 20.7174 14.3346C21.2374 13.8946 21.6907 13.3613 22.0374 12.7613C22.6507 11.7613 22.9974 10.588 22.9974 9.33464C22.9974 5.65464 20.0107 2.66797 16.3307 2.66797ZM19.7841 8.61464L16.2241 11.8946C15.9841 12.1213 15.6774 12.228 15.3707 12.228C15.0507 12.228 14.7307 12.108 14.4907 11.868L12.8507 10.2146C12.3574 9.7213 12.3574 8.93463 12.8507 8.4413C13.3441 7.94797 14.1307 7.94797 14.6241 8.4413L15.4107 9.22797L18.0907 6.7613C18.5974 6.29464 19.3841 6.3213 19.8507 6.82797C20.3174 7.34797 20.2907 8.14797 19.7841 8.61464Z" fill="#F6F7FF"/>
</g>
</g>
</svg>
