<svg width="56" height="56" viewBox="0 0 56 56" fill="none" xmlns="http://www.w3.org/2000/svg">
<rect x="0.5" y="0.5" width="55" height="55" rx="15.5" fill="#00B144"/>
<rect x="0.5" y="0.5" width="55" height="55" rx="15.5" stroke="#3A3A47"/>
<path d="M27.9989 30.668C21.3189 30.668 15.8789 35.148 15.8789 40.668C15.8789 41.0413 16.1722 41.3346 16.5456 41.3346H39.4522C39.8256 41.3346 40.1189 41.0413 40.1189 40.668C40.1189 35.148 34.6789 30.668 27.9989 30.668Z" fill="#F6F7FF"/>
<path d="M27.9987 14.668C26.4254 14.668 24.9854 15.2146 23.8387 16.1346C22.3054 17.348 21.332 19.228 21.332 21.3346C21.332 22.588 21.6787 23.7613 22.3054 24.7613C23.452 26.6946 25.5587 28.0013 27.9987 28.0013C29.6787 28.0013 31.212 27.388 32.3854 26.3346C32.9054 25.8946 33.3587 25.3613 33.7054 24.7613C34.3187 23.7613 34.6654 22.588 34.6654 21.3346C34.6654 17.6546 31.6787 14.668 27.9987 14.668ZM31.452 20.6146L27.892 23.8946C27.652 24.1213 27.3454 24.228 27.0387 24.228C26.7187 24.228 26.3987 24.108 26.1587 23.868L24.5187 22.2146C24.0254 21.7213 24.0254 20.9346 24.5187 20.4413C25.012 19.948 25.7987 19.948 26.292 20.4413L27.0787 21.228L29.7587 18.7613C30.2654 18.2946 31.052 18.3213 31.5187 18.828C31.9854 19.348 31.9587 20.148 31.452 20.6146Z" fill="#F6F7FF"/>
</svg>
