<svg width="32" height="33" viewBox="0 0 32 33" fill="none" xmlns="http://www.w3.org/2000/svg">
<path d="M15.9203 3.74071L12.7069 11.2207H9.49359C8.96026 11.2207 8.44026 11.2607 7.93359 11.3674L9.26693 8.16738L9.32026 8.04738L9.40026 7.83405C9.44026 7.74071 9.46693 7.66071 9.50693 7.59405C11.0536 4.00738 12.7869 2.88738 15.9203 3.74071Z" fill="#F6F7FF"/>
<path d="M24.9735 11.5829L24.9468 11.5696C24.1468 11.3429 23.3335 11.2229 22.5068 11.2229H14.1602L17.1602 4.24958L17.2002 4.15625C17.3868 4.22292 17.5868 4.31625 17.7868 4.38292L20.7335 5.62292C22.3735 6.30292 23.5202 7.00958 24.2268 7.86292C24.3468 8.02292 24.4535 8.16958 24.5602 8.34292C24.6802 8.52958 24.7735 8.71625 24.8268 8.91625C24.8802 9.03625 24.9202 9.14292 24.9468 9.26292C25.1468 9.94292 25.1602 10.7162 24.9735 11.5829Z" fill="#F6F7FF"/>
<path d="M24.3883 13.4932C23.7883 13.3199 23.1616 13.2266 22.5083 13.2266H9.49495C8.58828 13.2266 7.73495 13.3999 6.93495 13.7466C4.61495 14.7466 2.98828 17.0532 2.98828 19.7332V22.3332C2.98828 22.6532 3.01495 22.9599 3.05495 23.2799C3.34828 27.5199 5.61495 29.7866 9.85495 30.0666C10.1616 30.1066 10.4683 30.1332 10.8016 30.1332H21.2016C26.1349 30.1332 28.7349 27.7866 28.9883 23.1199C29.0016 22.8666 29.0149 22.5999 29.0149 22.3332V19.7332C29.0149 16.7866 27.055 14.3066 24.3883 13.4932ZM19.3349 23.1332H12.6683C12.1216 23.1332 11.6683 22.6799 11.6683 22.1332C11.6683 21.5866 12.1216 21.1332 12.6683 21.1332H19.3349C19.8816 21.1332 20.3349 21.5866 20.3349 22.1332C20.3349 22.6799 19.8816 23.1332 19.3349 23.1332Z" fill="#F6F7FF"/>
</svg>
