<svg width="77" height="82" viewBox="0 0 77 82" fill="none" xmlns="http://www.w3.org/2000/svg">
<path d="M45.4291 43.9616L54.2741 35.1166L46.5891 27.4316L37.7441 36.2766L45.4291 43.9616ZM49.1628 24.0603L57.6453 32.5428C59.0591 33.8841 59.0591 36.2403 57.6453 37.6541L15.3416 79.9578C13.9278 81.3716 11.5716 81.3716 10.2303 79.9578L1.74781 71.4753C0.334063 70.1341 0.334063 67.7778 1.74781 66.3641L44.0516 24.0603C45.4653 22.6466 47.8216 22.6466 49.1628 24.0603Z" fill="#00b144"/>
<path d="M23.75 13.05L14.6875 18.125L19.7625 9.0625L14.6875 0L23.75 5.075L32.8125 0L27.7375 9.0625L32.8125 18.125L23.75 13.05ZM67.25 48.575L76.3125 43.5L71.2375 52.5625L76.3125 61.625L67.25 56.55L58.1875 61.625L63.2625 52.5625L58.1875 43.5L67.25 48.575ZM76.3125 0L71.2375 9.0625L76.3125 18.125L67.25 13.05L58.1875 18.125L63.2625 9.0625L58.1875 0L67.25 5.075L76.3125 0Z" fill="url(#paint0_linear_2438_33919)"/>
<defs>
<linearGradient id="paint0_linear_2438_33919" x1="87.5" y1="19.5" x2="28.5" y2="5" gradientUnits="userSpaceOnUse">
<stop stop-color="#00b144" stop-opacity="0.098"/>
<stop offset="1" stop-color="#00b144"/>
</linearGradient>
</defs>
</svg>
