<svg width="40" height="40" viewBox="0 0 40 40" fill="none" xmlns="http://www.w3.org/2000/svg">
<g clip-path="url(#clip0_4649_206330)">
<circle cx="20" cy="20" r="20" fill="#511732"/>
<path d="M14.745 24.205V25.5H9.145V24.205H11.196V18.304C11.196 18.0707 11.203 17.8303 11.217 17.583L9.761 18.801C9.677 18.8663 9.593 18.9083 9.509 18.927C9.42967 18.941 9.35267 18.941 9.278 18.927C9.208 18.913 9.145 18.8897 9.089 18.857C9.033 18.8197 8.991 18.78 8.963 18.738L8.417 17.989L11.504 15.364H12.925V24.205H14.745ZM23.3911 20.439C23.3911 21.321 23.2954 22.0887 23.1041 22.742C22.9174 23.3907 22.6561 23.9273 22.3201 24.352C21.9888 24.7767 21.5944 25.094 21.1371 25.304C20.6844 25.5093 20.1944 25.612 19.6671 25.612C19.1398 25.612 18.6498 25.5093 18.1971 25.304C17.7491 25.094 17.3594 24.7767 17.0281 24.352C16.6968 23.9273 16.4378 23.3907 16.2511 22.742C16.0644 22.0887 15.9711 21.321 15.9711 20.439C15.9711 19.5523 16.0644 18.7847 16.2511 18.136C16.4378 17.4873 16.6968 16.9507 17.0281 16.526C17.3594 16.1013 17.7491 15.7863 18.1971 15.581C18.6498 15.371 19.1398 15.266 19.6671 15.266C20.1944 15.266 20.6844 15.371 21.1371 15.581C21.5944 15.7863 21.9888 16.1013 22.3201 16.526C22.6561 16.9507 22.9174 17.4873 23.1041 18.136C23.2954 18.7847 23.3911 19.5523 23.3911 20.439ZM21.6061 20.439C21.6061 19.7063 21.5524 19.0997 21.4451 18.619C21.3378 18.1383 21.1931 17.7557 21.0111 17.471C20.8338 17.1863 20.6284 16.988 20.3951 16.876C20.1618 16.7593 19.9191 16.701 19.6671 16.701C19.4198 16.701 19.1794 16.7593 18.9461 16.876C18.7174 16.988 18.5144 17.1863 18.3371 17.471C18.1598 17.7557 18.0174 18.1383 17.9101 18.619C17.8074 19.0997 17.7561 19.7063 17.7561 20.439C17.7561 21.1717 17.8074 21.7783 17.9101 22.259C18.0174 22.7397 18.1598 23.1223 18.3371 23.407C18.5144 23.6917 18.7174 23.8923 18.9461 24.009C19.1794 24.121 19.4198 24.177 19.6671 24.177C19.9191 24.177 20.1618 24.121 20.3951 24.009C20.6284 23.8923 20.8338 23.6917 21.0111 23.407C21.1931 23.1223 21.3378 22.7397 21.4451 22.259C21.5524 21.7783 21.6061 21.1717 21.6061 20.439ZM31.5122 20.439C31.5122 21.321 31.4165 22.0887 31.2252 22.742C31.0385 23.3907 30.7772 23.9273 30.4412 24.352C30.1099 24.7767 29.7155 25.094 29.2582 25.304C28.8055 25.5093 28.3155 25.612 27.7882 25.612C27.2609 25.612 26.7709 25.5093 26.3182 25.304C25.8702 25.094 25.4805 24.7767 25.1492 24.352C24.8179 23.9273 24.5589 23.3907 24.3722 22.742C24.1855 22.0887 24.0922 21.321 24.0922 20.439C24.0922 19.5523 24.1855 18.7847 24.3722 18.136C24.5589 17.4873 24.8179 16.9507 25.1492 16.526C25.4805 16.1013 25.8702 15.7863 26.3182 15.581C26.7709 15.371 27.2609 15.266 27.7882 15.266C28.3155 15.266 28.8055 15.371 29.2582 15.581C29.7155 15.7863 30.1099 16.1013 30.4412 16.526C30.7772 16.9507 31.0385 17.4873 31.2252 18.136C31.4165 18.7847 31.5122 19.5523 31.5122 20.439ZM29.7272 20.439C29.7272 19.7063 29.6735 19.0997 29.5662 18.619C29.4589 18.1383 29.3142 17.7557 29.1322 17.471C28.9549 17.1863 28.7495 16.988 28.5162 16.876C28.2829 16.7593 28.0402 16.701 27.7882 16.701C27.5409 16.701 27.3005 16.7593 27.0672 16.876C26.8385 16.988 26.6355 17.1863 26.4582 17.471C26.2809 17.7557 26.1385 18.1383 26.0312 18.619C25.9285 19.0997 25.8772 19.7063 25.8772 20.439C25.8772 21.1717 25.9285 21.7783 26.0312 22.259C26.1385 22.7397 26.2809 23.1223 26.4582 23.407C26.6355 23.6917 26.8385 23.8923 27.0672 24.009C27.3005 24.121 27.5409 24.177 27.7882 24.177C28.0402 24.177 28.2829 24.121 28.5162 24.009C28.7495 23.8923 28.9549 23.6917 29.1322 23.407C29.3142 23.1223 29.4589 22.7397 29.5662 22.259C29.6735 21.7783 29.7272 21.1717 29.7272 20.439Z" fill="white"/>
</g>
<defs>
<clipPath id="clip0_4649_206330">
<rect width="40" height="40" fill="white"/>
</clipPath>
</defs>
</svg>
