<svg width="40" height="40" viewBox="0 0 40 40" fill="none" xmlns="http://www.w3.org/2000/svg">
<g clip-path="url(#clip0_4649_206433)">
<circle cx="20" cy="20" r="20" fill="#111317"/>
<path d="M27.4959 26.6188C19.043 30.6416 13.797 27.2758 10.4389 25.2315C10.2311 25.1026 9.87795 25.2616 10.1844 25.6136C11.3031 26.9701 14.9695 30.2397 19.7552 30.2397C24.5442 30.2397 27.3932 27.6266 27.7496 27.1707C28.1036 26.7188 27.8535 26.4694 27.4958 26.6188H27.4959ZM29.8698 25.3077C29.6428 25.0121 28.4895 24.957 27.7637 25.0462C27.0368 25.1328 25.9457 25.577 26.0406 25.8438C26.0892 25.9437 26.1886 25.8989 26.688 25.854C27.1887 25.804 28.5915 25.627 28.8838 26.0091C29.1774 26.3939 28.4364 28.2267 28.301 28.5223C28.1703 28.8179 28.351 28.8941 28.5966 28.6972C28.8389 28.5004 29.2774 27.9908 29.5718 27.2695C29.8641 26.5444 30.0424 25.5328 29.8698 25.3077Z" fill="#FF9900"/>
<path fill-rule="evenodd" clip-rule="evenodd" d="M21.8115 18.4105C21.8115 19.466 21.8382 20.3463 21.3047 21.2837C20.8741 22.0459 20.1919 22.5146 19.4298 22.5146C18.3895 22.5146 17.7836 21.7219 17.7836 20.5521C17.7836 18.2428 19.8527 17.8236 21.8115 17.8236V18.4105ZM24.5437 25.0144C24.3646 25.1744 24.1055 25.1859 23.9035 25.0791C23.0042 24.3323 22.8442 23.9855 22.3488 23.2729C20.8626 24.7896 19.8109 25.243 17.8827 25.243C15.6039 25.243 13.8281 23.8368 13.8281 21.0208C13.8281 18.8221 15.0209 17.3244 16.7166 16.5928C18.1875 15.9449 20.2415 15.8306 21.8115 15.6516V15.301C21.8115 14.657 21.861 13.8948 21.4838 13.3385C21.1522 12.8393 20.5197 12.6335 19.9633 12.6335C18.9306 12.6335 18.0084 13.1632 17.7836 14.2606C17.7378 14.5046 17.5588 14.7447 17.3149 14.7561L14.6855 14.4741C14.4645 14.4245 14.2207 14.2455 14.2816 13.9062C14.8875 10.7206 17.7645 9.76025 20.3405 9.76025C21.659 9.76025 23.3814 10.1109 24.4217 11.1093C25.7402 12.3401 25.6144 13.9825 25.6144 15.7697V19.9919C25.6144 21.2609 26.1403 21.8172 26.6357 22.5031C26.8109 22.747 26.8491 23.0405 26.628 23.2233C26.0755 23.6844 25.0923 24.5418 24.5513 25.022L24.5436 25.0144" fill="white"/>
<path d="M27.4959 26.6188C19.043 30.6416 13.797 27.2758 10.4389 25.2315C10.2311 25.1026 9.87795 25.2616 10.1844 25.6136C11.3031 26.9701 14.9695 30.2397 19.7552 30.2397C24.5442 30.2397 27.3932 27.6266 27.7496 27.1707C28.1036 26.7188 27.8535 26.4694 27.4958 26.6188H27.4959ZM29.8698 25.3077C29.6428 25.0121 28.4895 24.957 27.7637 25.0462C27.0368 25.1328 25.9457 25.577 26.0406 25.8438C26.0892 25.9437 26.1886 25.8989 26.688 25.854C27.1887 25.804 28.5915 25.627 28.8838 26.0091C29.1774 26.3939 28.4364 28.2267 28.301 28.5223C28.1703 28.8179 28.351 28.8941 28.5966 28.6972C28.8389 28.5004 29.2774 27.9908 29.5718 27.2695C29.8641 26.5444 30.0424 25.5328 29.8698 25.3077Z" fill="#FF9900"/>
<path fill-rule="evenodd" clip-rule="evenodd" d="M21.8115 18.4105C21.8115 19.466 21.8382 20.3463 21.3047 21.2837C20.8741 22.0459 20.1919 22.5146 19.4298 22.5146C18.3895 22.5146 17.7836 21.7219 17.7836 20.5521C17.7836 18.2428 19.8527 17.8236 21.8115 17.8236V18.4105ZM24.5437 25.0144C24.3646 25.1744 24.1055 25.1859 23.9035 25.0791C23.0042 24.3323 22.8442 23.9855 22.3488 23.2729C20.8626 24.7896 19.8109 25.243 17.8827 25.243C15.6039 25.243 13.8281 23.8368 13.8281 21.0208C13.8281 18.8221 15.0209 17.3244 16.7166 16.5928C18.1875 15.9449 20.2415 15.8306 21.8115 15.6516V15.301C21.8115 14.657 21.861 13.8948 21.4838 13.3385C21.1522 12.8393 20.5197 12.6335 19.9633 12.6335C18.9306 12.6335 18.0084 13.1632 17.7836 14.2606C17.7378 14.5046 17.5588 14.7447 17.3149 14.7561L14.6855 14.4741C14.4645 14.4245 14.2207 14.2455 14.2816 13.9062C14.8875 10.7206 17.7645 9.76025 20.3405 9.76025C21.659 9.76025 23.3814 10.1109 24.4217 11.1093C25.7402 12.3401 25.6144 13.9825 25.6144 15.7697V19.9919C25.6144 21.2609 26.1403 21.8172 26.6357 22.5031C26.8109 22.747 26.8491 23.0405 26.628 23.2233C26.0755 23.6844 25.0923 24.5418 24.5513 25.022L24.5436 25.0144" fill="white"/>
</g>
<defs>
<clipPath id="clip0_4649_206433">
<rect width="40" height="40" fill="white"/>
</clipPath>
</defs>
</svg>
