<svg width="40" height="40" viewBox="0 0 40 40" fill="none" xmlns="http://www.w3.org/2000/svg">
<g clip-path="url(#clip0_4649_206432)">
<circle cx="20" cy="20" r="20" fill="#111317"/>
<path d="M28.634 25.902C28.3104 26.6402 27.9274 27.3198 27.4836 27.9446C26.8787 28.7963 26.3834 29.3859 26.0017 29.7133C25.4099 30.2506 24.776 30.5259 24.0971 30.5415C23.6097 30.5415 23.022 30.4046 22.3378 30.1267C21.6514 29.8502 21.0206 29.7133 20.4438 29.7133C19.8389 29.7133 19.1901 29.8502 18.4962 30.1267C17.8012 30.4046 17.2413 30.5493 16.8132 30.5637C16.1622 30.5911 15.5133 30.308 14.8656 29.7133C14.4522 29.3572 13.9351 28.7467 13.3156 27.882C12.651 26.9585 12.1046 25.8876 11.6765 24.6668C11.2181 23.3481 10.9883 22.0711 10.9883 20.8349C10.9883 19.4188 11.2981 18.1974 11.9188 17.1739C12.4065 16.3517 13.0554 15.7032 13.8676 15.2271C14.6797 14.7511 15.5573 14.5085 16.5023 14.4929C17.0194 14.4929 17.6975 14.6509 18.5401 14.9613C19.3804 15.2728 19.92 15.4307 20.1565 15.4307C20.3334 15.4307 20.9327 15.2461 21.9488 14.8778C22.9097 14.5364 23.7207 14.395 24.385 14.4507C26.1852 14.5941 27.5377 15.295 28.4372 16.5576C26.8271 17.521 26.0307 18.8703 26.0466 20.6013C26.0611 21.9496 26.5564 23.0716 27.5298 23.9624C27.9709 24.3759 28.4636 24.6955 29.0117 24.9224C28.8929 25.2629 28.7674 25.5889 28.634 25.902ZM24.5052 9.85731C24.5052 10.9141 24.1142 11.9008 23.335 12.8141C22.3946 13.8998 21.2571 14.5272 20.0236 14.4282C20.0079 14.3015 19.9988 14.168 19.9988 14.0278C19.9988 13.0133 20.446 11.9276 21.2402 11.0398C21.6367 10.5903 22.141 10.2166 22.7525 9.91848C23.3627 9.6248 23.9399 9.46238 24.4827 9.43457C24.4986 9.57585 24.5052 9.71714 24.5052 9.85731Z" fill="white"/>
</g>
<defs>
<clipPath id="clip0_4649_206432">
<rect width="40" height="40" fill="white"/>
</clipPath>
</defs>
</svg>
