<svg width="40" height="40" viewBox="0 0 40 40" fill="none" xmlns="http://www.w3.org/2000/svg">
<g clip-path="url(#clip0_4649_206406)">
<circle cx="20" cy="20" r="20" fill="#58BE92"/>
<path d="M25.5854 14.0908C24.7521 11.9509 22.65 11.7615 20.1881 12.2539L19.3169 9.16699L17.4231 9.71619L18.2943 12.6705L16.8171 13.125L15.946 10.1328L14.109 10.6631L14.9802 13.7121L13.7871 14.0908V14.0719L11.2305 14.7915L11.7986 16.78C11.7986 16.78 13.1621 16.3634 13.1432 16.4013C13.9007 16.174 14.2795 16.5528 14.4688 16.9126L15.4536 20.3782L15.643 20.3593L15.4536 20.4161L16.855 25.2831C16.8929 25.5293 16.855 25.9459 16.3248 26.0974L14.9802 26.4762L15.2453 28.8245L17.6504 28.1238L18.995 27.745L19.8851 30.8319L21.741 30.3016L20.8698 27.2716L22.347 26.836L23.2181 29.885L25.093 29.3548L24.2029 26.2679C27.2708 25.1884 29.2404 23.7681 28.6722 20.757C28.2177 18.3329 26.7974 17.5943 24.9036 17.6701C25.8126 16.8179 26.2293 15.6627 25.6043 14.0908H25.5854ZM24.9036 21.4577C25.5475 23.7681 21.5327 24.6392 20.2638 24.999L19.0897 20.9085C20.3585 20.5297 24.2029 19.0526 24.9036 21.4577ZM22.3849 15.9278C22.9719 18.011 19.601 18.7306 18.5405 19.0336L17.48 15.3029C18.5405 15.0188 21.741 13.731 22.3659 15.9278H22.3849Z" fill="white"/>
</g>
<defs>
<clipPath id="clip0_4649_206406">
<rect width="40" height="40" fill="white"/>
</clipPath>
</defs>
</svg>
