<svg width="40" height="40" viewBox="0 0 40 40" fill="none" xmlns="http://www.w3.org/2000/svg">
<g clip-path="url(#clip0_4649_206409)">
<circle cx="20" cy="20" r="20" fill="#F7931A"/>
<path d="M28.7857 17.7079C29.1497 15.2456 27.286 13.9345 24.7185 13.0421L25.5517 9.72474L23.5214 9.22045L22.7123 12.4567L21.0942 12.0686L21.9164 8.81044L19.8883 8.30615L19.0551 11.6345L17.7659 11.3297V11.3187L14.9638 10.6171L14.4244 12.7834C14.4244 12.7834 15.9241 13.1342 15.9022 13.1473C16.7222 13.3578 16.8625 13.8972 16.8384 14.3204L15.9022 18.1201L16.1127 18.1902L15.889 18.142L14.5647 23.4546C14.4705 23.7001 14.2139 24.0751 13.6373 23.9238C13.6614 23.9589 12.1726 23.573 12.1726 23.573L11.1641 25.8818L13.8017 26.5395L15.2444 26.9123L14.4003 30.2778L16.4284 30.7821L17.2484 27.4516L18.8797 27.8748L18.0465 31.1921L20.0746 31.6964L20.9078 28.3308C24.3655 28.9886 26.9703 28.7299 28.06 25.5989C28.9392 23.0775 28.0139 21.6369 26.1963 20.6744C27.5206 20.3828 28.5182 19.5036 28.7747 17.7079H28.7857ZM24.155 24.2044C23.5345 26.7259 19.2897 25.3533 17.9172 25.0245L19.031 20.5582C20.4035 20.909 24.8128 21.5777 24.155 24.1935V24.2044ZM24.7777 17.6728C24.2142 19.9596 20.6732 18.7998 19.5375 18.5169L20.546 14.4738C21.6928 14.7545 25.3741 15.2939 24.7777 17.675V17.6728Z" fill="white"/>
</g>
<defs>
<clipPath id="clip0_4649_206409">
<rect width="40" height="40" fill="white"/>
</clipPath>
</defs>
</svg>
