<svg width="78" height="64" viewBox="0 0 78 64" fill="none" xmlns="http://www.w3.org/2000/svg">
<path d="M47.9213 59.202C64.2695 59.202 77.5223 45.9492 77.5223 29.601C77.5223 13.2528 64.2695 0 47.9213 0C31.5731 0 18.3203 13.2528 18.3203 29.601C18.3203 45.9492 31.5731 59.202 47.9213 59.202Z" fill="url(#paint0_linear_2839_8385)"/>
<path d="M11.0421 63.0255C8.48728 63.0253 6.01156 62.1392 4.03676 60.5183C2.06195 58.8974 0.710298 56.6419 0.212049 54.1361C-0.2862 51.6303 0.0998355 49.0293 1.30433 46.7762C2.50883 44.5231 4.45733 42.7573 6.81776 41.7798C9.17819 40.8022 11.8045 40.6734 14.2493 41.4152C16.6941 42.1569 18.8061 43.7235 20.2254 45.8478C21.6446 47.9722 22.2833 50.523 22.0327 53.0655C21.7822 55.608 20.6579 57.9851 18.8512 59.7915C17.8281 60.8201 16.6111 61.6356 15.2706 62.1907C13.9302 62.7458 12.4929 63.0295 11.0421 63.0255ZM11.0421 43.4385C9.35248 43.4385 7.7008 43.9395 6.29591 44.8782C4.89102 45.817 3.79603 47.1512 3.14943 48.7122C2.50283 50.2732 2.33371 51.991 2.66334 53.6481C2.99298 55.3053 3.8066 56.8275 5.00136 58.0223C6.19612 59.217 7.71832 60.0307 9.3755 60.3604C11.0327 60.69 12.7504 60.5208 14.3114 59.8742C15.8724 59.2276 17.2067 58.1326 18.1454 56.7277C19.0841 55.3228 19.5852 53.6712 19.5852 51.9815C19.5818 49.7171 18.6805 47.5464 17.079 45.9455C15.4775 44.3446 13.3065 43.4441 11.0421 43.4415V43.4385Z" fill="#00b144"/>
<path d="M34.453 63.0285C32.9522 63.0304 31.4917 62.542 30.294 61.6375C28.9898 60.6341 28.1075 59.1797 27.82 57.5594L25.076 43.2835C24.9362 42.5693 24.6159 41.9028 24.1456 41.3475C23.6752 40.7923 23.0704 40.3667 22.389 40.1115L8.76103 35.0545C7.30275 34.5338 6.0724 33.5196 5.283 32.1875C4.58002 30.9628 4.26968 29.5518 4.39397 28.1452C4.51825 26.7386 5.07112 25.4039 5.97795 24.3215C6.98875 23.1483 8.3779 22.3655 9.90495 22.1085L45.427 15.6745C45.8326 15.6009 46.2439 15.5638 46.6561 15.5635C47.7336 15.5677 48.7943 15.8306 49.7489 16.3303C50.7036 16.8299 51.5244 17.5515 52.142 18.4344C52.7686 19.3145 53.1713 20.3341 53.3152 21.4048C53.4592 22.4755 53.3399 23.5652 52.9679 24.5795L40.776 58.5635C40.3264 59.8777 39.4735 61.0165 38.3389 61.8178C37.2043 62.6192 35.8459 63.0421 34.457 63.0265L34.453 63.0285ZM46.653 18.0655C46.3901 18.0657 46.1276 18.0895 45.8689 18.1365L10.347 24.5705C9.43342 24.7365 8.59969 25.198 7.97392 25.884C7.34816 26.5699 6.96502 27.4424 6.88335 28.3673C6.80167 29.2923 7.02603 30.2184 7.5219 31.0034C8.01776 31.7884 8.75767 32.3889 9.62798 32.7125L23.256 37.7695C24.3415 38.1723 25.3049 38.848 26.0531 39.7315C26.8014 40.615 27.3094 41.6765 27.528 42.8135L30.272 57.0895C30.4441 58.0673 30.9603 58.9513 31.7272 59.5818C32.4942 60.2123 33.4614 60.5477 34.454 60.5275C35.3286 60.5469 36.1862 60.2845 36.9002 59.779C37.6142 59.2736 38.1467 58.5518 38.419 57.7205L50.611 23.7365C50.8451 23.0992 50.9203 22.4144 50.8302 21.7415C50.7402 21.0686 50.4875 20.4277 50.094 19.8745C49.7072 19.3191 49.1927 18.8649 48.5937 18.5499C47.9947 18.2349 47.3288 18.0684 46.652 18.0645L46.653 18.0655Z" fill="#00b144"/>
<defs>
<linearGradient id="paint0_linear_2839_8385" x1="47.9213" y1="22.26" x2="92.8556" y2="-50.3217" gradientUnits="userSpaceOnUse">
<stop stop-color="#00b144" stop-opacity="0.098"/>
<stop offset="1" stop-color="#00b144"/>
</linearGradient>
</defs>
</svg>
