<svg width="40" height="40" viewBox="0 0 40 40" fill="none" xmlns="http://www.w3.org/2000/svg">
<g clip-path="url(#clip0_4649_206434)">
<path d="M0 0H40V40H0V0Z" fill="#E82127"/>
<path d="M20.0005 33.3335L23.3339 15.5557C26.2983 15.5557 27.0094 16.1602 27.145 17.4935C27.145 17.4935 29.1316 16.7491 30.1361 15.2357C26.2227 13.4157 22.2227 13.3335 22.2227 13.3335L20.0005 16.1113L17.7783 13.3335C17.7783 13.3335 13.7783 13.4157 9.86719 15.2357C10.8672 16.7468 12.8561 17.4935 12.8561 17.4935C12.9916 16.1602 13.7227 15.5579 16.6672 15.5557L20.0005 33.3335Z" fill="white"/>
<path d="M19.9998 12.4624C23.5837 12.4216 27.1352 13.1451 30.4176 14.5847C30.9109 13.6891 31.1109 13.3336 31.1109 13.3336C27.0598 11.7247 23.2664 11.1247 19.9998 11.1113C16.7331 11.1247 12.9398 11.7247 8.88867 13.3336C8.88867 13.3336 9.14201 13.778 9.58423 14.5847C12.8657 13.1446 16.4164 12.4226 19.9998 12.4624Z" fill="white"/>
</g>
<defs>
<clipPath id="clip0_4649_206434">
<rect width="40" height="40" rx="20" fill="white"/>
</clipPath>
</defs>
</svg>
