<svg width="40" height="40" viewBox="0 0 40 40" fill="none" xmlns="http://www.w3.org/2000/svg">
<g clip-path="url(#clip0_4649_206466)">
<circle cx="20" cy="20" r="20" fill="#F0F3FA"/>
<path d="M20 8.42578V16.9734L27.123 20.2144L20 8.42578Z" fill="#8FFCF3"/>
<path d="M20 8.42578L12.877 20.2144L20 16.9734V8.42578Z" fill="#CABCF8"/>
<path d="M20 25.7541V31.5772L27.123 21.5693L20 25.7541Z" fill="#CBA7F5"/>
<path d="M20 31.5772V25.7541L12.877 21.5693L20 31.5772Z" fill="#74A0F3"/>
<path d="M20 24.4182L27.123 20.2156L20 16.9746V24.4182Z" fill="#CBA7F5"/>
<path d="M12.877 20.2156L20 24.4182V16.9746L12.877 20.2156Z" fill="#74A0F3"/>
<path fill-rule="evenodd" clip-rule="evenodd" d="M20 24.417L12.877 20.2144L20 8.42578L27.123 20.2144L20 24.417ZM13.3578 19.8761L19.8932 9.04905V16.92L13.3578 19.8761ZM13.2509 20.161L19.8932 17.1693V24.0787L13.2331 20.161H13.2509ZM20.1068 17.1693V24.0787L26.7491 20.161L20.1068 17.1693ZM20.1068 16.92L26.6422 19.8761L20.1068 9.04905V16.92Z" fill="#202699"/>
<path fill-rule="evenodd" clip-rule="evenodd" d="M20 25.6619L12.877 21.5661L20 31.574L27.123 21.5483L20 25.6619ZM13.6783 22.2785L19.8932 25.8578V31.022L13.6605 22.2963L13.6783 22.2785ZM20.1068 25.8578V31.022L26.3395 22.2963L20.1068 25.8578Z" fill="#202699"/>
</g>
<defs>
<clipPath id="clip0_4649_206466">
<rect width="40" height="40" fill="white"/>
</clipPath>
</defs>
</svg>
