<svg width="75" height="70" viewBox="0 0 75 70" fill="none" xmlns="http://www.w3.org/2000/svg">
<path d="M44.5311 59.202C60.8792 59.202 74.1321 45.9492 74.1321 29.601C74.1321 13.2528 60.8792 0 44.5311 0C28.1829 0 14.9301 13.2528 14.9301 29.601C14.9301 45.9492 28.1829 59.202 44.5311 59.202Z" fill="url(#paint0_linear_12_7171)"/>
<path d="M25.952 69.8129C25.5657 69.8124 25.1955 69.6587 24.9223 69.3856C24.6492 69.1125 24.4955 68.7422 24.495 68.3559V58.3559C24.495 57.9694 24.6486 57.5987 24.9219 57.3253C25.1952 57.052 25.5659 56.8984 25.9525 56.8984C26.339 56.8984 26.7098 57.052 26.9831 57.3253C27.2564 57.5987 27.41 57.9694 27.41 58.3559V68.3559C27.4092 68.7423 27.2553 69.1126 26.982 69.3857C26.7087 69.6588 26.3383 69.8124 25.952 69.8129Z" fill="#00b144"/>
<path d="M16.14 65.8764C15.754 65.8759 15.384 65.7223 15.111 65.4494C14.8381 65.1764 14.6845 64.8064 14.684 64.4204V60.3574C14.684 59.971 14.8375 59.6004 15.1108 59.3271C15.384 59.0539 15.7546 58.9004 16.141 58.9004C16.5274 58.9004 16.898 59.0539 17.1713 59.3271C17.4445 59.6004 17.598 59.971 17.598 60.3574V64.4204C17.5972 64.8067 17.4433 65.1768 17.17 65.4498C16.8967 65.7227 16.5263 65.8761 16.14 65.8764Z" fill="#00b144"/>
<path d="M35.826 65.8764C35.4398 65.8761 35.0696 65.7227 34.7964 65.4497C34.5233 65.1767 34.3695 64.8066 34.369 64.4204V60.3574C34.369 60.1661 34.4067 59.9766 34.4799 59.7998C34.5531 59.623 34.6605 59.4624 34.7958 59.3271C34.9311 59.1918 35.0917 59.0845 35.2684 59.0113C35.4452 58.9381 35.6347 58.9004 35.826 58.9004C36.0174 58.9004 36.2068 58.9381 36.3836 59.0113C36.5604 59.0845 36.721 59.1918 36.8563 59.3271C36.9916 59.4624 37.0989 59.623 37.1721 59.7998C37.2453 59.9766 37.283 60.1661 37.283 60.3574V64.4204C37.2825 64.8066 37.1288 65.1767 36.8556 65.4497C36.5825 65.7227 36.2122 65.8761 35.826 65.8764Z" fill="#00b144"/>
<path d="M3.76901 53.5042C2.76973 53.5031 1.81169 53.1057 1.10509 52.3991C0.398496 51.6925 0.00106499 50.7344 6.15113e-06 49.7351V45.0481C-0.00324857 44.43 0.146544 43.8207 0.436018 43.2746C0.725493 42.7284 1.14565 42.2624 1.65901 41.9181L10.686 35.9411V34.1121C10.686 23.2001 19.652 14.3381 23.506 11.0331C24.1865 10.467 25.0444 10.158 25.9297 10.1602C26.8149 10.1624 27.6713 10.4756 28.349 11.0451C32.212 14.3051 41.218 23.0931 41.218 34.1121V36.0441L50.185 41.9831C50.7072 42.3183 51.1341 42.7824 51.4245 43.3307C51.715 43.879 51.8591 44.4929 51.843 45.1131V49.7991C51.8533 50.274 51.7676 50.746 51.5912 51.1869C51.4147 51.6278 51.151 52.0286 50.816 52.3652C50.4673 52.7233 50.0509 53.0086 49.591 53.2044C49.1311 53.4003 48.6369 53.5029 48.137 53.5061L3.76901 53.5042ZM41.22 50.5901H48.93V44.6161L41.22 39.4751V50.5901ZM25.273 13.3831C21.749 16.4121 13.538 24.4831 13.538 34.1121V50.5901H38.306V32.9091C37.623 23.5781 29.906 16.1471 26.624 13.3801L25.946 12.8091L25.273 13.3831ZM2.91401 44.6161V50.5901H10.624V39.4751L2.91401 44.6161Z" fill="#00b144"/>
<path d="M26.016 37.5692C24.8132 37.5694 23.6374 37.2129 22.6372 36.5448C21.637 35.8767 20.8575 34.927 20.3971 33.8158C19.9367 32.7046 19.8162 31.4818 20.0508 30.3021C20.2854 29.1224 20.8646 28.0388 21.7151 27.1883C22.5656 26.3378 23.6492 25.7586 24.8289 25.524C26.0086 25.2894 27.2314 25.4099 28.3426 25.8703C29.4538 26.3307 30.4035 27.1103 31.0716 28.1104C31.7397 29.1106 32.0962 30.2864 32.096 31.4892C32.0936 33.101 31.4523 34.6461 30.3126 35.7858C29.1729 36.9255 27.6278 37.5668 26.016 37.5692ZM26.016 28.3212C25.176 28.322 24.3707 28.656 23.7768 29.25C23.1828 29.8439 22.8488 30.6493 22.848 31.4892C22.8482 32.1155 23.0341 32.7277 23.3821 33.2483C23.7302 33.769 24.2248 34.1748 24.8035 34.4143C25.3821 34.6539 26.0188 34.7166 26.6331 34.5943C27.2473 34.4721 27.8115 34.1705 28.2544 33.7276C28.6973 33.2848 28.9989 32.7206 29.1211 32.1063C29.2433 31.4921 29.1807 30.8554 28.9411 30.2767C28.7015 29.6981 28.2958 29.2035 27.7751 28.8554C27.2545 28.5073 26.6423 28.3214 26.016 28.3212Z" fill="#00b144"/>
<defs>
<linearGradient id="paint0_linear_12_7171" x1="44.5311" y1="22.26" x2="89.4654" y2="-50.3217" gradientUnits="userSpaceOnUse">
<stop stop-color="#00b144" stop-opacity="0.098"/>
<stop offset="1" stop-color="#00b144"/>
</linearGradient>
</defs>
</svg>
