<svg width="40" height="40" viewBox="0 0 40 40" fill="none" xmlns="http://www.w3.org/2000/svg">
<g clip-path="url(#clip0_4649_206378)">
<path d="M0 0H40V40H0V0Z" fill="#ADABB8"/>
<path d="M9.23482 19.9999C9.14156 19.9978 9.04919 20.0184 8.9656 20.0598C8.88201 20.1012 8.80969 20.1622 8.75482 20.2376L4.92149 25.9554C4.71038 26.2732 4.97704 26.6688 5.40371 26.6688H19.0393C19.4659 26.6688 19.7348 26.2732 19.5215 25.9554L15.6882 20.2376C15.6333 20.1622 15.561 20.1012 15.4774 20.0598C15.3938 20.0184 15.3014 19.9978 15.2082 19.9999H9.23482ZM24.7904 19.9999C24.6971 19.9978 24.6047 20.0184 24.5212 20.0598C24.4376 20.1012 24.3652 20.1622 24.3104 20.2376L20.477 25.9554C20.2637 26.2732 20.5326 26.6688 20.9593 26.6688H34.5948C35.0215 26.6688 35.2904 26.2732 35.077 25.9554L31.2437 20.2376C31.1888 20.1622 31.1165 20.1012 31.0329 20.0598C30.9493 20.0184 30.857 19.9978 30.7637 19.9999H24.7904ZM17.0126 11.111C16.9193 11.1089 16.827 11.1295 16.7434 11.1709C16.6598 11.2123 16.5875 11.2733 16.5326 11.3488L12.6993 17.0665C12.4882 17.3843 12.7548 17.7799 13.1815 17.7799H26.817C27.2437 17.7799 27.5126 17.3843 27.2993 17.0665L23.4659 11.3488C23.4113 11.2736 23.3393 11.2128 23.2561 11.1714C23.173 11.13 23.081 11.1093 22.9882 11.111H17.0126Z" fill="white"/>
</g>
<defs>
<clipPath id="clip0_4649_206378">
<rect width="40" height="40" rx="20" fill="white"/>
</clipPath>
</defs>
</svg>
