<svg width="40" height="40" viewBox="0 0 40 40" fill="none" xmlns="http://www.w3.org/2000/svg">
<g clip-path="url(#clip0_4649_206381)">
<path d="M0 0H40V40H0V0Z" fill="#D69A00"/>
<path d="M9.23604 19.9999C9.14241 19.9975 9.04959 20.0179 8.96559 20.0593C8.88158 20.1007 8.80891 20.1619 8.75382 20.2377L4.92271 25.9555C4.70937 26.2733 4.97604 26.6666 5.40493 26.6666H19.0383C19.4672 26.6666 19.7338 26.2733 19.5205 25.9555L15.6894 20.2377C15.6343 20.1619 15.5616 20.1007 15.4776 20.0593C15.3936 20.0179 15.3008 19.9975 15.2072 19.9999H9.23604ZM24.7916 19.9999C24.698 19.9975 24.6051 20.0179 24.5211 20.0593C24.4371 20.1007 24.3645 20.1619 24.3094 20.2377L20.4783 25.9555C20.2649 26.2733 20.5316 26.6666 20.9605 26.6666H34.596C35.0227 26.6666 35.2894 26.2733 35.076 25.9555L31.2449 20.2377C31.1898 20.1619 31.1172 20.1007 31.0332 20.0593C30.9492 20.0179 30.8563 19.9975 30.7627 19.9999H24.7916ZM17.0138 11.111C16.9202 11.1086 16.8274 11.129 16.7434 11.1704C16.6594 11.2118 16.5867 11.2731 16.5316 11.3488L12.7005 17.0666C12.4872 17.3844 12.7538 17.7777 13.1827 17.7777H26.8183C27.2449 17.7777 27.5116 17.3844 27.2983 17.0666L23.4672 11.3488C23.4121 11.2731 23.3394 11.2118 23.2554 11.1704C23.1714 11.129 23.0786 11.1086 22.9849 11.111H17.0138Z" fill="white"/>
</g>
<defs>
<clipPath id="clip0_4649_206381">
<rect width="40" height="40" rx="20" fill="white"/>
</clipPath>
</defs>
</svg>
