<svg id="Group_19694" data-name="Group 19694" xmlns="http://www.w3.org/2000/svg" width="16.504" height="14.367" viewBox="0 0 16.504 14.367">
  <path id="Path_47145" data-name="Path 47145" d="M142.162,7.071l-4.354-1.616a1.754,1.754,0,0,1,.3-3.369l4.019-.727L149.456.03a1.753,1.753,0,0,1,1.962,2.317L148.9,9.362l-1.379,3.844a1.753,1.753,0,0,1-3.372-.261l-.877-4.562a1.752,1.752,0,0,0-1.112-1.313" transform="translate(-135.02 0)" fill="#00b144"/>
  <path id="Path_47146" data-name="Path 47146" d="M61.1,66.621a3.129,3.129,0,1,1-3.129-3.129A3.129,3.129,0,0,1,61.1,66.621" transform="translate(-54.841 -55.383)" fill="#00b144"/>
</svg>
