<svg xmlns="http://www.w3.org/2000/svg" width="20.001" height="20.001" viewBox="0 0 20.001 20.001">
  <path id="Subtraction_15" data-name="Subtraction 15" d="M14,20H6a6.007,6.007,0,0,1-6-6V6A6.007,6.007,0,0,1,6,0h8a6.007,6.007,0,0,1,6,6v8A6.007,6.007,0,0,1,14,20ZM6.286,5.577a.843.843,0,0,0-.832.832v7.763A.843.843,0,0,0,6.286,15H8.56v1.109a.832.832,0,1,0,1.663,0V15h1.608a2.925,2.925,0,0,0,3.05-2.773,2.7,2.7,0,0,0-1.442-2.34A2.7,2.7,0,0,0,13.9,8.349a2.845,2.845,0,0,0-2.772-2.772h-.91V4.469a.832.832,0,1,0-1.663,0V5.577Zm5.545,7.763H7.118V11.122h4.713a1.272,1.272,0,0,1,1.386,1.109A1.273,1.273,0,0,1,11.831,13.341Zm-.7-3.882H7.118V7.24h4.015a1.185,1.185,0,0,1,1.109,1.109A1.111,1.111,0,0,1,11.133,9.459Z" fill="#3cf"/>
</svg>
