<svg xmlns="http://www.w3.org/2000/svg" width="22.175" height="22.175" viewBox="0 0 22.175 22.175">
  <g id="ctrader_round-01" transform="translate(-142.79 -1.83)">
    <path id="Path_58063" data-name="Path 58063" d="M153.877,1.83a11.088,11.088,0,1,0,11.088,11.088A11.088,11.088,0,0,0,153.877,1.83Zm-.028,1.248a9.814,9.814,0,0,1,9.106,6.153,7.018,7.018,0,0,1,.5,4.382A9.043,9.043,0,0,1,160,18.475c-4.205,2.662-7.058.777-7.058.777-3.971-2.587-.82-6.355-.82-6.355a6.906,6.906,0,0,1,7.207-2.182l.54-2.72c-6.252-1.588-10.028.768-10.859,1.37-.121.087-.242.172-.365.257a8.495,8.495,0,0,0-3.695,7.413,9.815,9.815,0,0,1,8.895-13.956Z" transform="translate(0 0)" fill="#32c9fa"/>
  </g>
</svg>
