<svg xmlns="http://www.w3.org/2000/svg" width="20.088" height="20.088" viewBox="0 0 20.088 20.088">
  <g id="vuesax_bold_dollar-square" data-name="vuesax/bold/dollar-square" transform="translate(-1.03 -1.03)">
    <g id="dollar-square" transform="translate(1.03 1.03)">
      <path id="Vector" d="M2.248,0V3.513l-1.241-.43C.381,2.862,0,2.653,0,1.585A1.525,1.525,0,0,1,1.449,0Z" transform="translate(7.247 5.815)" fill="#00b144"/>
      <path id="Vector-2" data-name="Vector" d="M2.248,1.929A1.525,1.525,0,0,1,.8,3.513H0V0L1.241.43C1.867.651,2.248.86,2.248,1.929Z" transform="translate(10.593 10.759)" fill="#00b144"/>
      <path id="Vector-3" data-name="Vector" d="M14.252,0H5.836C2.18,0,0,2.18,0,5.836v8.417c0,3.656,2.18,5.836,5.836,5.836h8.417c3.656,0,5.836-2.18,5.836-5.836V5.836C20.088,2.18,17.908,0,14.252,0ZM12.314,10.044a2.5,2.5,0,0,1,1.828,2.642,2.749,2.749,0,0,1-2.692,2.8H10.8v.583a.753.753,0,0,1-1.507,0v-.583H8.929a3.049,3.049,0,0,1-2.983-3.1.753.753,0,1,1,1.507,0,1.54,1.54,0,0,0,1.476,1.6h.362v-3.4l-1.517-.532A2.5,2.5,0,0,1,5.946,7.4,2.749,2.749,0,0,1,8.638,4.6h.653V4.018a.753.753,0,1,1,1.507,0V4.6h.362a3.049,3.049,0,0,1,2.983,3.1.753.753,0,0,1-1.507,0,1.54,1.54,0,0,0-1.476-1.6H10.8v3.4Z" fill="#00b144"/>
    </g>
  </g>
</svg>
