<svg xmlns="http://www.w3.org/2000/svg" xmlns:xlink="http://www.w3.org/1999/xlink" width="22" height="27.838" viewBox="0 0 22 27.838">
  <defs>
    <filter id="_5" x="0" y="1.838" width="22" height="26" filterUnits="userSpaceOnUse">
      <feOffset dy="3" input="SourceAlpha"/>
      <feGaussianBlur stdDeviation="3" result="blur"/>
      <feFlood floodColor="#1d5837" floodOpacity="0.278"/>
      <feComposite operator="in" in2="blur"/>
      <feComposite in="SourceGraphic"/>
    </filter>
  </defs>
  <g id="Group_18827" data-name="Group 18827" transform="translate(0.565)">
    <g id="Group_13159" data-name="Group 13159" transform="translate(0 0)">
      <g id="Group_65" data-name="Group 65" transform="translate(0 0)">
        <path id="Path_282" data-name="Path 282" d="M4.076,2.549A2.337,2.337,0,0,1,2.038,5.1,2.337,2.337,0,0,1,0,2.549,2.337,2.337,0,0,1,2.038,0,2.337,2.337,0,0,1,4.076,2.549" transform="translate(8.404)" fill="#32c9fc"/>
        <path id="Path_283" data-name="Path 283" d="M.015,0A7.086,7.086,0,0,1,2.442.622h0a6.176,6.176,0,0,1-.67,2.416c-.156-.091-.3-.165-.4-.216-.018-.062-.037-.123-.057-.184l-.01-.03A5.707,5.707,0,0,0,0,.436C.008.324.016.171.015,0" transform="translate(14.556 7.39)" fill="#32c9fc"/>
        <path id="Path_284" data-name="Path 284" d="M13.134,6.118c0,.039,0,.078,0,.115a7.238,7.238,0,0,0-2.449-.6c-.03-.541-.163-1.144-.59-1.255L9.778,5.582a5.663,5.663,0,0,0-6.428,0L3.034,4.377c-.5.129-.6.926-.6,1.515,0,.181.006.341.015.458-.044.047-.089.094-.13.142-.018.019-.035.039-.051.058s-.046.052-.067.078-.025.03-.036.044l-.036.045A5.653,5.653,0,0,0,.938,9.41a.006.006,0,0,0,0,0C.895,9.345.853,9.276.814,9.206c-.051-.089-.1-.177-.143-.267C.647,8.893.625,8.846.6,8.8A6.624,6.624,0,0,1,.022,6.512,7.527,7.527,0,0,1,0,5.714.106.106,0,0,1,0,5.7c.007-.143.018-.286.031-.426A5.7,5.7,0,0,1,4.4,0a3.535,3.535,0,0,0-.153,1.036,2.661,2.661,0,0,0,2.321,2.9,2.661,2.661,0,0,0,2.32-2.9A3.535,3.535,0,0,0,8.732,0c2.993.779,4.4,3.223,4.4,6.118" transform="translate(3.878 1.477)" fill="#32c9fc"/>
        <path id="Path_285" data-name="Path 285" d="M1.413,3.942A2.337,2.337,0,0,1,.224.9,2.337,2.337,0,0,1,3.451.412,2.337,2.337,0,0,1,4.64,3.452a2.337,2.337,0,0,1-3.227.49" transform="translate(16.005 14.237)" fill="#32c9fc"/>
        <path id="Path_286" data-name="Path 286" d="M1.917,1.922c-.05.037-.1.074-.154.11l0,0A6.178,6.178,0,0,1,0,.242C.158.152.293.066.39,0Q.5.026.6.047L.75.076l.1.017A5.7,5.7,0,0,0,3.142.008c.094.064.225.148.377.234l0,0A6.168,6.168,0,0,1,1.917,1.922" transform="translate(8.669 17.33)" fill="#32c9fc"/>
        <path id="Path_287" data-name="Path 287" d="M9.762,7.706a3.519,3.519,0,0,0-.821-.652,2.662,2.662,0,0,0-3.674.558A2.662,2.662,0,0,0,6.62,11.075a3.509,3.509,0,0,0,.975.385c-2.172,2.2-4.992,2.2-7.5.754-.032-.018-.064-.037-.1-.057a7.245,7.245,0,0,0,1.747-1.818c.483.242,1.068.425,1.376.114l-.886-.877A5.671,5.671,0,0,0,4.711,7.292a5.667,5.667,0,0,0,.74-3.283l1.2.329c.137-.494-.5-.978-1.012-1.276-.156-.091-.3-.165-.4-.216-.018-.062-.037-.123-.057-.184l-.01-.03c-.011-.034-.023-.067-.035-.1-.018-.051-.038-.1-.057-.151A5.672,5.672,0,0,0,3.34,0C3.521,0,3.7,0,3.884.01A6.2,6.2,0,0,1,6.311.645c.119.059.237.122.354.189,2.508,1.448,3.92,3.89,3.1,6.872" transform="translate(10.687 7.368)" fill="#32c9fc"/>
        <path id="Path_288" data-name="Path 288" d="M1.413.412A2.337,2.337,0,0,1,4.64.9a2.337,2.337,0,0,1-1.189,3.04,2.337,2.337,0,0,1-3.227-.49A2.337,2.337,0,0,1,1.413.412" transform="translate(0 14.228)" fill="#32c9fc"/>
        <path id="Path_289" data-name="Path 289" d="M12.284,8.977c-.042.08-.087.159-.134.237l-.016.026c-.041.069-.084.138-.128.2A6.169,6.169,0,0,1,10.4,11.121q-.078.055-.158.108c-.111.075-.224.145-.341.212-.246.142-.495.27-.745.383l-.023.01A5.7,5.7,0,0,1,2.4,10.688a3.524,3.524,0,0,0,.974-.386A2.661,2.661,0,0,0,4.73,6.841a2.662,2.662,0,0,0-3.674-.558,3.545,3.545,0,0,0-.821.651C-.587,3.952.825,1.509,3.332.062,3.369.041,3.405.019,3.443,0a6.715,6.715,0,0,0,.683,2.432c-.449.3-.9.712-.783,1.133l1.2-.329A5.665,5.665,0,0,0,7.76,8.8l-.886.876c.359.365,1.1.053,1.61-.238.158-.09.293-.176.39-.242q.107.026.213.047l.147.029.1.017c.046.008.092.013.138.02a5.659,5.659,0,0,0,2.813-.334" transform="translate(0.185 8.131)" fill="#32c9fc"/>
        <path id="Path_290" data-name="Path 290" d="M.125.2a.006.006,0,0,0,0,0C.081.139.04.07,0,0,.04.068.081.137.125.2" transform="translate(4.692 10.682)" fill="#32c9fc"/>
      </g>
    </g>
    <path id="Path_16513" data-name="Path 16513" d="M10.989,5.495A5.495,5.495,0,1,1,5.495,0a5.495,5.495,0,0,1,5.495,5.495" transform="translate(4.94 6.344)" fill="#3cf" stroke="#f2f3f5" strokeWidth="1"/>
    <g transform="matrix(1, 0, 0, 1, -0.57, 0)" filter="url(#_5)">
      <text id="_5-2" data-name="5" transform="translate(9 13.84)" fill="#f2f3f5" fontSize="6" fontFamily="Montserrat-SemiBold, Montserrat" fontWeight="600" letter-spacing="0.01em"><tspan x="0" y="0">5</tspan></text>
    </g>
  </g>
</svg>
