<svg xmlns="http://www.w3.org/2000/svg" width="24" height="24" viewBox="0 0 24 24">
  <g id="vuesax_bold_tag" data-name="vuesax/bold/tag" transform="translate(-556 -444)">
    <g id="tag">
      <path id="Vector" d="M17.065,5.926,12.535,1.4a4.751,4.751,0,0,0-3.6-1.39l-5,.24a3.864,3.864,0,0,0-3.69,3.67l-.24,5a4.788,4.788,0,0,0,1.39,3.6l4.53,4.53a4.78,4.78,0,0,0,6.75,0l4.39-4.39A4.738,4.738,0,0,0,17.065,5.926ZM6.735,9.606a2.88,2.88,0,1,1,2.88-2.88A2.881,2.881,0,0,1,6.735,9.606Z" transform="translate(558.765 446.774)" fill="#00b144"/>
      <path id="Vector-2" data-name="Vector" d="M0,0H24V24H0Z" transform="translate(556 444)" fill="none" opacity="0"/>
    </g>
  </g>
</svg>
