<svg xmlns="http://www.w3.org/2000/svg" width="24" height="24" viewBox="0 0 24 24">
  <g id="vuesax_bold_ticket-star" data-name="vuesax/bold/ticket-star" transform="translate(-556 -572)">
    <g id="ticket-star">
      <path id="Vector" d="M14.641,0H7.9V3.02a.7.7,0,0,1-1.4,0V0H5.341C1.391,0,.091,1.18,0,4.87a.679.679,0,0,0,.2.5.657.657,0,0,0,.5.21,2.56,2.56,0,0,1,0,5.12.672.672,0,0,0-.5.21.679.679,0,0,0-.2.5c.09,3.69,1.39,4.87,5.34,4.87H6.5V13.26a.7.7,0,1,1,1.4,0v3.02h6.74c4.1,0,5.35-1.25,5.35-5.35V5.35C19.991,1.25,18.741,0,14.641,0Zm1.82,8.04-.93.9a.142.142,0,0,0-.04.14l.22,1.27a.625.625,0,0,1-.9.66l-1.15-.6a.171.171,0,0,0-.14,0l-1.15.6a.592.592,0,0,1-.29.07.6.6,0,0,1-.36-.12.625.625,0,0,1-.25-.61l.22-1.27a.179.179,0,0,0-.04-.14l-.93-.9a.616.616,0,0,1-.16-.63.591.591,0,0,1,.5-.42l1.28-.19a.2.2,0,0,0,.12-.08l.57-1.16a.626.626,0,0,1,.56-.34.6.6,0,0,1,.55.34l.57,1.16a.117.117,0,0,0,.11.08l1.28.19a.606.606,0,0,1,.5.42A.574.574,0,0,1,16.461,8.04Z" transform="translate(558.009 575.86)" fill="#3cf"/>
      <path id="Vector-2" data-name="Vector" d="M0,0H24V24H0Z" transform="translate(556 572)" fill="none" opacity="0"/>
    </g>
  </g>
</svg>
