<svg xmlns="http://www.w3.org/2000/svg" width="24" height="24" viewBox="0 0 24 24">
  <g id="vuesax_bold_monitor-recorder" data-name="vuesax/bold/monitor-recorder" transform="translate(-488 -190)">
    <g id="monitor-recorder">
      <path id="Vector" d="M18.97,7.37v3.19a4.2,4.2,0,0,1-4.2,4.2H11.21a1,1,0,0,0-1,1v.82a1,1,0,0,0,1,1h2.26a.71.71,0,1,1,0,1.42H5.53a.71.71,0,1,1,0-1.42H7.79a1,1,0,0,0,1-1v-.82a1,1,0,0,0-1-1H4.19A4.2,4.2,0,0,1,0,10.56V4.19A4.2,4.2,0,0,1,4.19,0H8.5a1,1,0,0,1,1,1V3.15a3.042,3.042,0,0,0,3.21,3.22h5.26A1,1,0,0,1,18.97,7.37Z" transform="translate(490 193)" fill="#00b144"/>
      <path id="Vector-2" data-name="Vector" d="M8.99,1.34l-1.13.79V1.71A1.709,1.709,0,0,0,6.15,0H1.87A1.859,1.859,0,0,0,0,1.86V5.14A1.565,1.565,0,0,0,1.71,6.85H6.14A1.709,1.709,0,0,0,7.85,5.14V4.71l1.13.79c.57.39,1.02.15,1.02-.53V1.87C10,1.19,9.55.96,8.99,1.34Z" transform="translate(501 191.02)" fill="#00b144"/>
      <path id="Vector-3" data-name="Vector" d="M0,0H24V24H0Z" transform="translate(512 214) rotate(180)" fill="none" opacity="0"/>
    </g>
  </g>
</svg>
