<svg width="15" height="15" viewBox="0 0 15 15" fill="none" xmlns="http://www.w3.org/2000/svg">
<path d="M7.38107 9.16674L7.38127 9.16686L9.31012 10.3179C9.47806 10.426 9.65539 10.4625 9.8125 10.4625C10.1402 10.4625 10.465 10.2977 10.648 9.98762C10.9288 9.52292 10.7721 8.92807 10.3107 8.65708L8.37498 7.50189L8.375 7.50186L8.37365 7.50108C8.3718 7.49956 8.36383 7.49301 8.35103 7.47862C8.33191 7.45713 8.31024 7.4273 8.29009 7.39187C8.26996 7.35647 8.25513 7.32214 8.24608 7.29384C8.23915 7.27215 8.23774 7.26075 8.2375 7.25934V4.7C8.2375 4.16761 7.80114 3.73125 7.26875 3.73125C6.73636 3.73125 6.3 4.16761 6.3 4.7V7.2625C6.3 7.99432 6.74841 8.78878 7.38107 9.16674ZM1.75 7.5C1.75 4.33239 4.33239 1.75 7.5 1.75C10.6676 1.75 13.25 4.33239 13.25 7.5C13.25 10.6676 10.6676 13.25 7.5 13.25C4.33239 13.25 1.75 10.6676 1.75 7.5Z" fill="#00b144" stroke="#00b144"/>
</svg>
