<svg width="24" height="21" viewBox="0 0 24 21" fill="none" xmlns="http://www.w3.org/2000/svg">
<g clip-path="url(#clip0_6_1959)">
<path d="M24 4.61874C23.8769 4.93594 23.6312 5.08859 23.3156 5.1937C19.6794 6.40117 16.0456 7.61615 12.4131 8.83426C12.1338 8.9281 11.8756 8.92873 11.595 8.83426C7.945 7.61052 4.29375 6.39178 0.64 5.17868C0.3375 5.07858 0.11625 4.91654 0 4.61811V4.28966C0.114375 4.00312 0.31875 3.83232 0.61625 3.73409C4.28687 2.51661 7.95562 1.29287 11.6219 0.0628801C11.8981 -0.0297136 12.1488 -0.0165753 12.4181 0.0741415C16.05 1.291 19.6825 2.50535 23.3175 3.71282C23.6331 3.81793 23.88 3.97058 24 4.29028V4.61874Z" fill="#33CCFF"/>
<path d="M24 20.4807C23.8069 20.8793 23.4875 21.0106 23.0525 21C22.1706 20.9781 21.2881 20.9944 20.4063 20.9931C19.8563 20.9931 19.5863 20.7241 19.5856 20.1748C19.5844 18.9711 19.5806 17.768 19.5869 16.5643C19.5919 15.5814 20.0556 14.8857 20.945 14.4822C21.0888 14.4171 21.0913 14.3314 21.0913 14.2106C21.09 12.0378 21.0944 9.86561 21.0844 7.69278C21.0831 7.47256 21.1469 7.38184 21.3556 7.32429C21.7294 7.22106 22.0931 7.08404 22.4969 6.94891C22.4969 7.06778 22.4969 7.15724 22.4969 7.24733C22.4969 9.55279 22.4988 11.8582 22.4938 14.1637C22.4938 14.337 22.5256 14.4352 22.7044 14.5147C23.3669 14.81 23.77 15.333 23.9481 16.0337C23.9631 16.0932 23.9831 16.152 24.0006 16.2108V20.4813L24 20.4807Z" fill="#33CCFF"/>
<path d="M4.54123 7.96118C5.00935 8.11696 5.46623 8.26837 5.92248 8.4204C7.6681 9.00223 9.41685 9.57532 11.1575 10.1709C11.7306 10.3667 12.2775 10.3636 12.8494 10.1703C14.9756 9.45081 17.1069 8.7476 19.2369 8.03813C19.3081 8.01436 19.3812 7.99559 19.4844 7.96494C19.4844 8.06754 19.4844 8.14324 19.4844 8.21894C19.4844 9.66541 19.4794 11.1112 19.4881 12.5577C19.49 12.8937 19.3819 13.1508 19.135 13.3848C17.4475 14.9889 15.4544 15.9599 13.1425 16.1933C9.91185 16.5198 7.10685 15.5432 4.7706 13.2728C4.63435 13.1408 4.52998 12.9056 4.5281 12.7166C4.50873 11.1688 4.51685 9.62099 4.51748 8.07317C4.51748 8.04439 4.52935 8.01561 4.54185 7.96118H4.54123Z" fill="#33CCFF"/>
</g>
<defs>
<clipPath id="clip0_6_1959">
<rect width="24" height="21" fill="white"/>
</clipPath>
</defs>
</svg>
