<svg width="20" height="20" viewBox="0 0 20 20" fill="none" xmlns="http://www.w3.org/2000/svg">
<path d="M14.19 0H5.81C2.17 0 0 2.17 0 5.81V14.18C0 17.83 2.17 20 5.81 20H14.18C17.82 20 19.99 17.83 19.99 14.19V5.81C20 2.17 17.83 0 14.19 0ZM11.33 15H8.66C8.46109 15 8.27032 14.921 8.12967 14.7803C7.98902 14.6397 7.91 14.4489 7.91 14.25C7.91 14.0511 7.98902 13.8603 8.12967 13.7197C8.27032 13.579 8.46109 13.5 8.66 13.5H11.33C11.5289 13.5 11.7197 13.579 11.8603 13.7197C12.001 13.8603 12.08 14.0511 12.08 14.25C12.08 14.4489 12.001 14.6397 11.8603 14.7803C11.7197 14.921 11.5289 15 11.33 15ZM14 10.75H6C5.80109 10.75 5.61032 10.671 5.46967 10.5303C5.32902 10.3897 5.25 10.1989 5.25 10C5.25 9.80109 5.32902 9.61032 5.46967 9.46967C5.61032 9.32902 5.80109 9.25 6 9.25H14C14.1989 9.25 14.3897 9.32902 14.5303 9.46967C14.671 9.61032 14.75 9.80109 14.75 10C14.75 10.1989 14.671 10.3897 14.5303 10.5303C14.3897 10.671 14.1989 10.75 14 10.75ZM16 6.5H4C3.80109 6.5 3.61032 6.42098 3.46967 6.28033C3.32902 6.13968 3.25 5.94891 3.25 5.75C3.25 5.55109 3.32902 5.36032 3.46967 5.21967C3.61032 5.07902 3.80109 5 4 5H16C16.1989 5 16.3897 5.07902 16.5303 5.21967C16.671 5.36032 16.75 5.55109 16.75 5.75C16.75 5.94891 16.671 6.13968 16.5303 6.28033C16.3897 6.42098 16.1989 6.5 16 6.5Z" fill="#33CCFF"/>
</svg>
