<svg width="24" height="24" viewBox="0 0 24 24" fill="none" xmlns="http://www.w3.org/2000/svg">
<path d="M14.3704 3.20433C14.4451 3.51906 14.4442 3.84571 14.3678 4.16007C14.2914 4.47443 14.1414 4.76846 13.929 5.02039C13.7166 5.27232 13.4472 5.47569 13.1408 5.61545C12.8343 5.75521 12.4986 5.82778 12.1586 5.82778C11.8186 5.82778 11.4829 5.75521 11.1765 5.61545C10.87 5.47569 10.6006 5.27232 10.3882 5.02039C10.1758 4.76846 10.0259 4.47443 9.94945 4.16007C9.87305 3.84571 9.87215 3.51906 9.94683 3.20433C9.87215 2.88959 9.87305 2.56295 9.94945 2.24858C10.0259 1.93422 10.1758 1.64019 10.3882 1.38826C10.6006 1.13633 10.87 0.932958 11.1765 0.793198C11.4829 0.653438 11.8186 0.580872 12.1586 0.580872C12.4986 0.580872 12.8343 0.653438 13.1408 0.793198C13.4472 0.932958 13.7166 1.13633 13.929 1.38826C14.1414 1.64019 14.2914 1.93422 14.3678 2.24858C14.4442 2.56295 14.4451 2.88959 14.3704 3.20433Z" fill="#33CCFF"/>
<path d="M16.6398 8.18913C17.5509 8.25249 18.4428 8.46937 19.2737 8.82961C19.2132 9.69731 18.9657 10.544 18.5466 11.3174C18.3773 11.2237 18.221 11.1475 18.1125 11.095C18.0929 11.0311 18.0723 10.9683 18.0506 10.9055L18.0398 10.8746C17.7522 10.0376 17.27 9.27252 16.6289 8.63602C16.6376 8.52069 16.6463 8.36315 16.6452 8.18707" fill="#33CCFF"/>
<path d="M19.2889 8.40019C19.2889 8.44035 19.2889 8.4805 19.2889 8.5186C18.4479 8.16671 17.5483 7.95759 16.6311 7.90078C16.5985 7.34371 16.4542 6.7228 15.9908 6.6085L15.6522 7.84827C14.6264 7.17739 13.41 6.81814 12.1641 6.81814C10.9182 6.81814 9.70181 7.17739 8.67604 7.84827L8.3331 6.60747C7.79046 6.74031 7.68194 7.56098 7.68194 8.16747C7.68194 8.35385 7.68845 8.5186 7.69821 8.63908C7.65046 8.68747 7.60162 8.73587 7.55713 8.7853C7.53759 8.80486 7.51914 8.82545 7.50178 8.84502C7.48442 8.86458 7.45186 8.89856 7.42907 8.92534C7.40627 8.95211 7.40193 8.95623 7.39 8.97064L7.35093 9.01698C6.66924 9.81634 6.22288 10.7728 6.05728 11.7889C6.0117 11.7189 5.96612 11.6468 5.92271 11.5748C5.86736 11.4831 5.81418 11.3925 5.76752 11.2998C5.74147 11.2525 5.71759 11.2041 5.69372 11.1567C5.33668 10.4139 5.12311 9.61623 5.06317 8.80177C5.04127 8.52771 5.03475 8.25273 5.04364 7.97801C5.04309 7.97184 5.04309 7.96564 5.04364 7.95947C5.05124 7.81223 5.06317 7.66498 5.07728 7.52082C5.14235 6.25373 5.63836 5.04074 6.49101 4.06357C7.34365 3.0864 8.50704 2.39764 9.8069 2.10046C9.69603 2.44626 9.64007 2.8058 9.64085 3.16724C9.5675 3.87832 9.78978 4.58846 10.2603 5.14629C10.7309 5.70411 11.4124 6.06548 12.1598 6.15338C12.9069 6.06524 13.5882 5.70376 14.0585 5.14596C14.5288 4.58817 14.751 3.87816 14.6776 3.16724C14.6784 2.8058 14.6224 2.44626 14.5115 2.10046C17.7598 2.9026 19.2867 5.4192 19.2867 8.40019" fill="#33CCFF"/>
<path d="M19.7295 19.3037C19.4159 19.0288 19.1905 18.6754 19.0793 18.2844C18.968 17.8933 18.9755 17.4803 19.1007 17.0931C19.2259 16.7058 19.4638 16.3599 19.787 16.0953C20.1102 15.8307 20.5057 15.658 20.9278 15.5972C21.3499 15.5364 21.7815 15.5899 22.173 15.7516C22.5644 15.9132 22.8998 16.1765 23.1405 16.511C23.3812 16.8456 23.5175 17.2378 23.5336 17.6426C23.5498 18.0474 23.4451 18.4483 23.2317 18.7991C22.8327 19.3002 22.2431 19.6333 21.5888 19.7276C20.9345 19.8219 20.2672 19.6698 19.7295 19.3037Z" fill="#33CCFF"/>
<path d="M12.315 20.4035C12.2608 20.4416 12.2065 20.4797 12.1479 20.5167C11.3856 20.0333 10.7358 19.4067 10.2389 18.6756C10.4104 18.583 10.5569 18.4944 10.6621 18.4265C10.7396 18.4443 10.8166 18.4604 10.8933 18.4748L11.0528 18.5047L11.1614 18.5222C11.9885 18.6537 12.8351 18.6243 13.6499 18.4357C13.7519 18.5016 13.8941 18.5881 14.059 18.6767C13.5984 19.3514 13.007 19.937 12.3161 20.4024" fill="#33CCFF"/>
<path d="M23.019 16.1013C22.759 15.8366 22.4587 15.6103 22.128 15.4299C21.8434 15.1809 21.5033 14.9958 21.1331 14.8883C20.7628 14.7808 20.3718 14.7537 19.989 14.809C19.6062 14.8643 19.2414 15.0006 18.9217 15.2078C18.6019 15.415 18.3354 15.6877 18.1417 16.0059C17.9481 16.324 17.8324 16.6795 17.8032 17.0458C17.774 17.4121 17.832 17.78 17.9729 18.1222C18.1138 18.4644 18.334 18.7721 18.6172 19.0226C18.9005 19.2731 19.2395 19.46 19.6091 19.5693C19.9389 19.751 20.2956 19.8847 20.6673 19.9658C18.31 22.2311 15.2496 22.2311 12.5277 20.7422C12.493 20.7236 12.4583 20.7041 12.4192 20.6835C13.1616 20.1694 13.8033 19.5358 14.3152 18.8115C14.8393 19.0607 15.4742 19.2491 15.8085 18.9289L14.8469 18.0258C15.9721 17.5186 16.9082 16.6988 17.5312 15.6753C18.1541 14.6517 18.4344 13.4727 18.335 12.2945L19.6373 12.6333C19.786 12.1246 19.0947 11.6262 18.539 11.3194C18.3697 11.2257 18.2135 11.1495 18.1049 11.0969C18.0854 11.0331 18.0648 10.9703 18.0431 10.9075L18.0322 10.8766C18.0203 10.8416 18.0073 10.8076 17.9942 10.7736C17.9747 10.7211 17.953 10.6707 17.9324 10.6181C17.5418 9.65944 16.8916 8.8155 16.0473 8.17157C16.2437 8.16539 16.4412 8.17156 16.6376 8.17774C17.5534 8.22312 18.4497 8.44563 19.2716 8.8316C19.4007 8.89236 19.5288 8.95723 19.6558 9.02622C22.3776 10.5172 23.91 13.0318 23.0201 16.1023" fill="#33CCFF"/>
<path d="M2.3598 15.6545C2.89754 15.2884 3.56478 15.1363 4.21911 15.2305C4.87343 15.3248 5.463 15.658 5.86197 16.159C6.11992 16.7374 6.12935 17.3885 5.88825 17.9733C5.64716 18.5582 5.17464 19.0305 4.57159 19.2893C4.03385 19.6554 3.36661 19.8075 2.71228 19.7132C2.05796 19.619 1.46838 19.2858 1.06942 18.7848C0.811472 18.2064 0.802041 17.5553 1.04314 16.9704C1.28423 16.3856 1.75675 15.9133 2.3598 15.6545Z" fill="#33CCFF"/>
<path d="M14.3595 18.1958C14.314 18.2781 14.2651 18.3595 14.2141 18.4398L14.1968 18.4666C14.1523 18.5376 14.1056 18.6087 14.0578 18.6725C13.5972 19.3472 13.0057 19.9329 12.3149 20.3983C12.2585 20.4361 12.2013 20.4731 12.1434 20.5095C12.023 20.5867 11.9003 20.6588 11.7733 20.7278C11.5064 20.874 11.2361 21.0058 10.9648 21.1222L10.9399 21.1325C9.75104 21.7106 8.39691 21.9081 7.07997 21.6954C5.76302 21.4827 4.55404 20.8712 3.63381 19.9524C4.00506 19.8707 4.36135 19.7367 4.69086 19.555C5.37743 19.2603 5.9154 18.7226 6.18995 18.0568C6.46449 17.3909 6.45386 16.6497 6.16032 15.9912C5.70589 15.421 5.03469 15.0418 4.28983 14.9345C3.54497 14.8272 2.78539 15.0002 2.17303 15.4166C1.84267 15.5969 1.54239 15.8228 1.28202 16.0869C0.391017 13.0174 1.92342 10.5018 4.64637 9.01184C4.68652 8.99021 4.72668 8.96859 4.76792 8.948C4.8458 9.81972 5.09733 10.6695 5.50916 11.4522C5.02187 11.7611 4.53241 12.1854 4.65939 12.6189L5.96171 12.2801C5.8622 13.4585 6.14235 14.6377 6.76506 15.6615C7.38776 16.6854 8.32364 17.5056 9.44869 18.0135L8.48714 18.9155C8.87675 19.2914 9.68094 18.9701 10.2344 18.6705C10.4059 18.5778 10.5524 18.4892 10.6577 18.4213C10.7351 18.4391 10.8122 18.4552 10.8888 18.4697L11.0484 18.4995L11.1569 18.517C11.2068 18.5253 11.2568 18.5304 11.3067 18.5376C12.3386 18.6704 13.3891 18.552 14.3595 18.1937" fill="#33CCFF"/>
<path d="M6.05413 11.7889C6.00855 11.7189 5.96297 11.6468 5.91956 11.5748C5.96297 11.6448 6.00746 11.7158 6.05521 11.7807" fill="#33CCFF"/>
<path d="M18.1135 12.7703C18.1135 13.8894 17.7638 14.9833 17.1085 15.9138C16.4532 16.8443 15.5218 17.5695 14.4321 17.9978C13.3424 18.426 12.1434 18.5381 10.9865 18.3198C9.82972 18.1015 8.76711 17.5626 7.93309 16.7712C7.09907 15.9799 6.5311 14.9717 6.30099 13.8741C6.07089 12.7766 6.18899 11.6389 6.64035 10.605C7.09172 9.57106 7.85609 8.68737 8.83679 8.06564C9.8175 7.44391 10.9705 7.11206 12.15 7.11206C13.7316 7.11206 15.2485 7.7082 16.3668 8.76932C17.4852 9.83044 18.1135 11.2696 18.1135 12.7703Z" fill="#33CCFF"/>
<path d="M12.151 18.9423C10.8642 18.9423 9.60627 18.5803 8.53633 17.902C7.46639 17.2237 6.63247 16.2596 6.14003 15.1316C5.64759 14.0036 5.51875 12.7624 5.76979 11.565C6.02084 10.3675 6.64049 9.26757 7.5504 8.40425C8.46031 7.54093 9.6196 6.953 10.8817 6.71481C12.1438 6.47662 13.4519 6.59887 14.6408 7.0661C15.8297 7.53332 16.8458 8.32453 17.5607 9.33969C18.2756 10.3548 18.6572 11.5484 18.6572 12.7693C18.6557 14.406 17.9698 15.9754 16.75 17.1328C15.5301 18.2902 13.8761 18.941 12.151 18.9423ZM12.151 7.62693C11.0788 7.62693 10.0307 7.92858 9.13927 8.49374C8.2478 9.05891 7.55299 9.86219 7.14269 10.802C6.7324 11.7418 6.62504 12.776 6.83421 13.7737C7.04338 14.7714 7.55967 15.6879 8.3178 16.4072C9.07593 17.1265 10.0419 17.6164 11.0934 17.8148C12.145 18.0133 13.2349 17.9114 14.2255 17.5221C15.216 17.1329 16.0627 16.4736 16.6583 15.6278C17.254 14.782 17.5719 13.7876 17.5719 12.7703C17.5705 11.4066 16.9989 10.0992 15.9826 9.13489C14.9663 8.17062 13.5883 7.62829 12.151 7.62693Z" fill="#1C1F26"/>
<g filter="url(#filter0_d_5_1813)">
<path d="M10.172 13.7602V13.1062L12.152 10.4422H13.172L11.234 13.1062L10.76 12.9682H14.066V13.7602H10.172ZM12.434 14.6422V13.7602L12.464 12.9682V12.1822H13.382V14.6422H12.434Z" fill="#1C1F26"/>
</g>
<defs>
<filter id="filter0_d_5_1813" x="4.172" y="7.4422" width="15.8939" height="16.2" filterUnits="userSpaceOnUse" color-interpolation-filters="sRGB">
<feFlood flood-opacity="0" result="BackgroundImageFix"/>
<feColorMatrix in="SourceAlpha" type="matrix" values="0 0 0 0 0 0 0 0 0 0 0 0 0 0 0 0 0 0 127 0" result="hardAlpha"/>
<feOffset dy="3"/>
<feGaussianBlur stdDeviation="3"/>
<feColorMatrix type="matrix" values="0 0 0 0 0.113725 0 0 0 0 0.345098 0 0 0 0 0.215686 0 0 0 0.278 0"/>
<feBlend mode="normal" in2="BackgroundImageFix" result="effect1_dropShadow_5_1813"/>
<feBlend mode="normal" in="SourceGraphic" in2="effect1_dropShadow_5_1813" result="shape"/>
</filter>
</defs>
</svg>
