<svg width="22" height="24" viewBox="0 0 22 24" fill="none" xmlns="http://www.w3.org/2000/svg">
<path d="M12.6127 3.53508C12.6815 3.84074 12.6806 4.15796 12.6102 4.46325C12.5398 4.76855 12.4017 5.0541 12.206 5.29876C12.0103 5.54342 11.762 5.74093 11.4796 5.87666C11.1973 6.01239 10.888 6.08286 10.5747 6.08286C10.2614 6.08286 9.95206 6.01239 9.66968 5.87666C9.38729 5.74093 9.13906 5.54342 8.94335 5.29876C8.74764 5.0541 8.60948 4.76855 8.53908 4.46325C8.46868 4.15796 8.46785 3.84074 8.53666 3.53508C8.46785 3.22942 8.46868 2.9122 8.53908 2.60691C8.60948 2.30161 8.74764 2.01607 8.94335 1.7714C9.13906 1.52674 9.38729 1.32923 9.66968 1.19351C9.95206 1.05778 10.2614 0.987305 10.5747 0.987305C10.888 0.987305 11.1973 1.05778 11.4796 1.19351C11.762 1.32923 12.0103 1.52674 12.206 1.7714C12.4017 2.01607 12.5398 2.30161 12.6102 2.60691C12.6806 2.9122 12.6815 3.22942 12.6127 3.53508Z" fill="#32C9FC"/>
<path d="M14.7036 8.37608C15.5431 8.43761 16.365 8.64824 17.1306 8.99809C17.0748 9.84076 16.8468 10.663 16.4606 11.4141C16.3046 11.3231 16.1606 11.2491 16.0606 11.1981C16.0426 11.1361 16.0236 11.0751 16.0036 11.0141L15.9936 10.9841C15.7286 10.1712 15.2843 9.42822 14.6936 8.81008C14.7016 8.69808 14.7096 8.54508 14.7086 8.37408" fill="#32C9FC"/>
<path d="M17.1446 8.58107C17.1446 8.62007 17.1446 8.65907 17.1446 8.69607C16.3697 8.35433 15.5408 8.15125 14.6956 8.09607C14.6656 7.55507 14.5326 6.95207 14.1056 6.84107L13.7936 8.04507C12.8484 7.39355 11.7276 7.04467 10.5796 7.04467C9.43165 7.04467 8.31079 7.39355 7.36562 8.04507L7.04962 6.84007C6.54962 6.96907 6.44962 7.76607 6.44962 8.35507C6.44962 8.53607 6.45562 8.69607 6.46462 8.81307C6.42062 8.86007 6.37562 8.90707 6.33462 8.95507C6.31662 8.97407 6.29962 8.99407 6.28362 9.01307C6.26762 9.03207 6.23762 9.06507 6.21662 9.09107C6.19562 9.11707 6.19162 9.12107 6.18062 9.13507L6.14462 9.18007C5.51649 9.95637 5.10521 10.8852 4.95262 11.8721C4.91062 11.8041 4.86862 11.7341 4.82862 11.6641C4.77762 11.5751 4.72862 11.4871 4.68562 11.3971C4.66162 11.3511 4.63962 11.3041 4.61762 11.2581C4.28864 10.5367 4.09185 9.76204 4.03662 8.97107C4.01644 8.70491 4.01043 8.43787 4.01862 8.17107C4.01811 8.16508 4.01811 8.15906 4.01862 8.15307C4.02562 8.01007 4.03662 7.86707 4.04962 7.72707C4.10958 6.49653 4.56661 5.31854 5.35226 4.36955C6.13792 3.42057 7.2099 2.75167 8.40762 2.46307C8.30547 2.7989 8.2539 3.14806 8.25462 3.49907C8.18703 4.18964 8.39185 4.8793 8.82542 5.42104C9.25899 5.96277 9.88702 6.31372 10.5756 6.39907C11.264 6.31348 11.8918 5.96243 12.3252 5.42072C12.7585 4.87902 12.9632 4.18949 12.8956 3.49907C12.8963 3.14806 12.8448 2.7989 12.7426 2.46307C15.7356 3.24207 17.1426 5.68607 17.1426 8.58107" fill="#32C9FC"/>
<path d="M17.5507 19.1701C17.2617 18.9031 17.0541 18.5599 16.9516 18.1801C16.849 17.8003 16.8559 17.3993 16.9712 17.0232C17.0866 16.6471 17.3058 16.3112 17.6037 16.0542C17.9015 15.7972 18.2659 15.6295 18.6548 15.5705C19.0437 15.5114 19.4414 15.5634 19.8021 15.7204C20.1628 15.8774 20.4719 16.1331 20.6937 16.458C20.9155 16.7829 21.0411 17.1638 21.0559 17.5569C21.0708 17.95 20.9743 18.3394 20.7777 18.6801C20.41 19.1666 19.8668 19.4902 19.2639 19.5818C18.661 19.6733 18.0461 19.5256 17.5507 19.1701Z" fill="#32C9FC"/>
<path d="M10.7187 20.2381C10.6687 20.2751 10.6187 20.3121 10.5647 20.3481C9.86224 19.8787 9.26357 19.2701 8.80566 18.5601C8.96366 18.4701 9.09866 18.3841 9.19566 18.3181C9.267 18.3354 9.33799 18.3511 9.40866 18.3651L9.55566 18.3941L9.65566 18.4111C10.4178 18.5388 11.1979 18.5103 11.9487 18.3271C12.0427 18.3911 12.1737 18.4751 12.3257 18.5611C11.9012 19.2164 11.3562 19.7851 10.7197 20.2371" fill="#32C9FC"/>
<path d="M20.5816 16.06C20.3421 15.8029 20.0653 15.5832 19.7606 15.408C19.4984 15.1662 19.185 14.9864 18.8439 14.882C18.5027 14.7776 18.1424 14.7513 17.7897 14.805C17.437 14.8587 17.1008 14.9911 16.8062 15.1923C16.5116 15.3935 16.266 15.6584 16.0876 15.9674C15.9092 16.2764 15.8026 16.6215 15.7756 16.9773C15.7487 17.3331 15.8021 17.6903 15.9319 18.0226C16.0618 18.355 16.2647 18.6538 16.5257 18.8971C16.7867 19.1404 17.099 19.3218 17.4396 19.4281C17.7435 19.6045 18.0722 19.7343 18.4146 19.8131C16.2426 22.0131 13.4226 22.0131 10.9146 20.5671C10.8826 20.5491 10.8506 20.5301 10.8146 20.5101C11.4988 20.0108 12.09 19.3955 12.5616 18.6921C13.0446 18.9341 13.6296 19.1171 13.9376 18.8061L13.0516 17.9291C14.0884 17.4364 14.951 16.6403 15.525 15.6463C16.0989 14.6523 16.3573 13.5072 16.2656 12.3631L17.4656 12.6921C17.6026 12.1981 16.9656 11.7141 16.4536 11.4161C16.2976 11.3251 16.1536 11.251 16.0536 11.2C16.0356 11.138 16.0166 11.0771 15.9966 11.0161L15.9866 10.9861C15.9756 10.9521 15.9636 10.9191 15.9516 10.8861C15.9336 10.8351 15.9136 10.7861 15.8946 10.7351C15.5348 9.80401 14.9356 8.98442 14.1576 8.35905C14.3386 8.35305 14.5206 8.35905 14.7016 8.36505C15.5455 8.40912 16.3714 8.62521 17.1286 9.00005C17.2476 9.05905 17.3656 9.12206 17.4826 9.18906C19.9906 10.6371 21.4026 13.079 20.5826 16.061" fill="#32C9FC"/>
<path d="M1.54564 15.6261C2.04112 15.2706 2.65594 15.1228 3.25886 15.2144C3.86177 15.3059 4.40502 15.6295 4.77264 16.1161C5.01032 16.6777 5.01901 17.3101 4.79685 17.8781C4.5747 18.446 4.13931 18.9047 3.58364 19.1561C3.08816 19.5116 2.47334 19.6593 1.87042 19.5678C1.26751 19.4762 0.72426 19.1526 0.356639 18.6661C0.118962 18.1044 0.110272 17.4721 0.332423 16.9041C0.554575 16.3361 0.989965 15.8774 1.54564 15.6261Z" fill="#32C9FC"/>
<path d="M12.6027 18.0941C12.5607 18.1741 12.5157 18.2531 12.4687 18.3311L12.4527 18.3571C12.4117 18.4261 12.3687 18.4951 12.3247 18.5571C11.9002 19.2124 11.3552 19.7811 10.7187 20.2331C10.6667 20.2698 10.614 20.3058 10.5607 20.3411C10.4497 20.4161 10.3367 20.4861 10.2197 20.5531C9.97366 20.6951 9.72466 20.8231 9.47466 20.9361L9.45166 20.9461C8.35625 21.5076 7.10852 21.6994 5.89505 21.4928C4.68158 21.2862 3.56758 20.6924 2.71966 19.8001C3.06175 19.7207 3.39004 19.5906 3.69366 19.4141C4.32629 19.1279 4.82199 18.6058 5.07496 17.9591C5.32793 17.3125 5.31814 16.5926 5.04766 15.9531C4.62893 15.3994 4.01047 15.0312 3.32414 14.9269C2.63781 14.8227 1.9379 14.9907 1.37366 15.3951C1.06926 15.5702 0.79257 15.7896 0.55266 16.0461C-0.26834 13.0651 1.14366 10.6221 3.65266 9.17509C3.68966 9.15409 3.72666 9.1331 3.76466 9.1131C3.83642 9.95967 4.06819 10.7849 4.44766 11.5451C3.99866 11.8451 3.54766 12.2571 3.66466 12.6781L4.86466 12.3491C4.77296 13.4934 5.0311 14.6386 5.60488 15.633C6.17866 16.6273 7.041 17.4239 8.07766 17.9171L7.19166 18.7931C7.55066 19.1581 8.29166 18.8461 8.80166 18.5551C8.95966 18.4651 9.09466 18.3791 9.19166 18.3131C9.26299 18.3304 9.33399 18.3461 9.40466 18.3601L9.55166 18.3891L9.65166 18.4061C9.69766 18.4141 9.74366 18.4191 9.78966 18.4261C10.7405 18.555 11.7085 18.4401 12.6027 18.0921" fill="#32C9FC"/>
<path d="M4.94962 11.8721C4.90762 11.8041 4.86562 11.7341 4.82562 11.6641C4.86562 11.7321 4.90662 11.8011 4.95062 11.8641" fill="#32C9FC"/>
<path d="M16.0617 12.8251C16.0617 13.9119 15.7394 14.9743 15.1356 15.8779C14.5318 16.7816 13.6736 17.4859 12.6695 17.9018C11.6654 18.3177 10.5606 18.4265 9.49464 18.2145C8.42871 18.0025 7.4496 17.4791 6.68111 16.7106C5.91262 15.9421 5.38927 14.963 5.17724 13.8971C4.96522 12.8312 5.07404 11.7263 5.48994 10.7222C5.90584 9.71815 6.61015 8.85995 7.5138 8.25615C8.41745 7.65235 9.47985 7.33008 10.5667 7.33008C12.024 7.33008 13.4217 7.90902 14.4522 8.93953C15.4827 9.97004 16.0617 11.3677 16.0617 12.8251Z" fill="#33CCFF" stroke="#1C1F26"/>
<g filter="url(#filter0_d_5_1761)">
<path d="M10.2346 14.8881C9.94263 14.8881 9.65263 14.8501 9.36463 14.7741C9.08063 14.6941 8.83663 14.5821 8.63263 14.4381L9.01663 13.6941C9.17663 13.8101 9.36063 13.9021 9.56863 13.9701C9.78063 14.0381 9.99463 14.0721 10.2106 14.0721C10.4546 14.0721 10.6466 14.0241 10.7866 13.9281C10.9266 13.8321 10.9966 13.6981 10.9966 13.5261C10.9966 13.4181 10.9686 13.3221 10.9126 13.2381C10.8566 13.1541 10.7566 13.0901 10.6126 13.0461C10.4726 13.0021 10.2746 12.9801 10.0186 12.9801H8.94463L9.16063 10.6161H11.7226V11.3961H9.50863L10.0126 10.9521L9.86263 12.6381L9.35863 12.1941H10.2466C10.6626 12.1941 10.9966 12.2521 11.2486 12.3681C11.5046 12.4801 11.6906 12.6341 11.8066 12.8301C11.9226 13.0261 11.9806 13.2481 11.9806 13.4961C11.9806 13.7441 11.9186 13.9741 11.7946 14.1861C11.6706 14.3941 11.4786 14.5641 11.2186 14.6961C10.9626 14.8241 10.6346 14.8881 10.2346 14.8881Z" fill="#1C1F26"/>
</g>
<defs>
<filter id="filter0_d_5_1761" x="2.63263" y="7.61609" width="15.348" height="16.272" filterUnits="userSpaceOnUse" color-interpolation-filters="sRGB">
<feFlood flood-opacity="0" result="BackgroundImageFix"/>
<feColorMatrix in="SourceAlpha" type="matrix" values="0 0 0 0 0 0 0 0 0 0 0 0 0 0 0 0 0 0 127 0" result="hardAlpha"/>
<feOffset dy="3"/>
<feGaussianBlur stdDeviation="3"/>
<feColorMatrix type="matrix" values="0 0 0 0 0.113725 0 0 0 0 0.345098 0 0 0 0 0.215686 0 0 0 0.278 0"/>
<feBlend mode="normal" in2="BackgroundImageFix" result="effect1_dropShadow_5_1761"/>
<feBlend mode="normal" in="SourceGraphic" in2="effect1_dropShadow_5_1761" result="shape"/>
</filter>
</defs>
</svg>
