<svg width="18" height="20" viewBox="0 0 18 20" fill="none" xmlns="http://www.w3.org/2000/svg">
<path d="M12.3 19.9542C12.5921 19.9542 12.8813 19.8967 13.1511 19.7849C13.4209 19.6731 13.6661 19.5093 13.8726 19.3028C14.0791 19.0963 14.2429 18.8511 14.3547 18.5813C14.4665 18.3114 14.524 18.0222 14.524 17.7302V3.88418C14.555 1.75718 15.703 0.0341836 17.841 0.0131836H4.151C1.038 0.0131836 0 1.87018 0 4.16418V17.7302C0 18.0222 0.0575254 18.3114 0.169292 18.5813C0.281058 18.8511 0.444877 19.0963 0.651395 19.3028C0.857912 19.5093 1.10308 19.6731 1.37291 19.7849C1.64274 19.8967 1.93194 19.9542 2.224 19.9542H12.3ZM4.12 12.4762C3.9147 12.4762 3.71402 12.4153 3.54332 12.3012C3.37262 12.1872 3.23958 12.0251 3.16101 11.8354C3.08245 11.6457 3.06189 11.437 3.10194 11.2357C3.142 11.0343 3.24086 10.8494 3.38602 10.7042C3.53119 10.559 3.71614 10.4602 3.9175 10.4201C4.11885 10.3801 4.32756 10.4006 4.51723 10.4792C4.70689 10.5578 4.86901 10.6908 4.98307 10.8615C5.09712 11.0322 5.158 11.2329 5.158 11.4382C5.15853 11.5746 5.13204 11.7099 5.08006 11.836C5.02809 11.9622 4.95165 12.0768 4.85516 12.1733C4.75866 12.2698 4.64403 12.3463 4.51785 12.3982C4.39168 12.4502 4.25646 12.4767 4.12 12.4762ZM4.12 8.32518C3.91466 8.32538 3.71388 8.26467 3.54305 8.15074C3.37222 8.0368 3.23902 7.87475 3.1603 7.6851C3.08158 7.49545 3.06088 7.28671 3.10082 7.08529C3.14076 6.88388 3.23954 6.69883 3.38467 6.55356C3.5298 6.40829 3.71475 6.30933 3.91613 6.2692C4.11751 6.22907 4.32627 6.24957 4.51599 6.3281C4.70572 6.40664 4.86789 6.53968 4.982 6.7104C5.0961 6.88112 5.157 7.08184 5.157 7.28718C5.15753 7.42356 5.13107 7.55869 5.07916 7.6848C5.02724 7.81091 4.95089 7.9255 4.85451 8.02198C4.75812 8.11846 4.6436 8.19492 4.51754 8.24696C4.39148 8.299 4.25638 8.32558 4.12 8.32518ZM10.377 12.2162H7.264C7.05753 12.2162 6.85951 12.1342 6.71352 11.9882C6.56752 11.8422 6.4855 11.6442 6.4855 11.4377C6.4855 11.2312 6.56752 11.0332 6.71352 10.8872C6.85951 10.7412 7.05753 10.6592 7.264 10.6592H10.377C10.5835 10.6592 10.7815 10.7412 10.9275 10.8872C11.0735 11.0332 11.1555 11.2312 11.1555 11.4377C11.1555 11.6442 11.0735 11.8422 10.9275 11.9882C10.7815 12.1342 10.5835 12.2162 10.377 12.2162ZM10.377 8.06518H7.264C7.05753 8.06518 6.85951 7.98316 6.71352 7.83717C6.56752 7.69117 6.4855 7.49315 6.4855 7.28668C6.4855 7.08021 6.56752 6.8822 6.71352 6.7362C6.85951 6.5902 7.05753 6.50818 7.264 6.50818H10.377C10.5835 6.50818 10.7815 6.5902 10.9275 6.7362C11.0735 6.8822 11.1555 7.08021 11.1555 7.28668C11.1555 7.49315 11.0735 7.69117 10.9275 7.83717C10.7815 7.98316 10.5835 8.06518 10.377 8.06518Z" fill="#33CCFF"/>
</svg>
