<svg width="19" height="23" viewBox="0 0 19 23" fill="none" xmlns="http://www.w3.org/2000/svg">
<path d="M10.9512 12.8171L13.5493 11.3171L17.7993 18.6784C17.9982 19.0229 18.0521 19.4323 17.9492 19.8166C17.8462 20.2009 17.5948 20.5285 17.2503 20.7274C16.9057 20.9263 16.4963 20.9802 16.112 20.8772C15.7278 20.7743 15.4001 20.5229 15.2012 20.1784L10.9512 12.8171Z" fill="#33CCFF"/>
<path d="M11.2814 3.38895L5.21918 6.88895L8.71918 12.9511L14.7814 9.45112L11.2814 3.38895Z" fill="#33CCFF"/>
<path d="M14.9955 1.82196C14.5813 1.10452 13.6639 0.858705 12.9464 1.27292C12.229 1.68713 11.9832 2.60452 12.3974 3.32196L15.3974 8.51811C15.8116 9.23555 16.729 9.48136 17.4464 9.06715C18.1639 8.65293 18.4097 7.73555 17.9955 7.01811L14.9955 1.82196Z" fill="#33CCFF"/>
<path d="M4.60314 7.82196C4.18893 7.10452 3.27154 6.85871 2.5541 7.27292C1.83667 7.68713 1.59085 8.60452 2.00507 9.32196L5.00507 14.5181C5.41928 15.2355 6.33667 15.4814 7.0541 15.0671C7.77154 14.6529 8.01736 13.7355 7.60314 13.0181L4.60314 7.82196Z" fill="#33CCFF"/>
<path d="M2.80396 18.67C1.97553 18.67 1.30396 19.3416 1.30396 20.17C1.30396 20.9984 1.97553 21.67 2.80396 21.67H9.80396C10.6324 21.67 11.304 20.9984 11.304 20.17C11.304 19.3416 10.6324 18.67 9.80396 18.67H2.80396Z" fill="#33CCFF"/>
</svg>
