<svg xmlns="http://www.w3.org/2000/svg" xmlns:xlink="http://www.w3.org/1999/xlink" width="177" height="83" viewBox="0 0 177 83">
  <defs>
    <clipPath id="clipPath">
      <rect id="Rectangle_23782" data-name="Rectangle 23782" width="36.549" height="29.891" fill="#0c2038"/>
    </clipPath>
  </defs>
  <g id="Group_30791" data-name="Group 30791" transform="translate(-52.352 -436.109)">
    <rect id="Rectangle_21220" data-name="Rectangle 21220" width="177" height="83" rx="16" transform="translate(52.352 436.109)" fill="#f5f6fa"/>
    <text id="Bank_Transfer" data-name="Bank
Transfer" transform="translate(132.462 475.884)" fill="#0c2038" fontSize="15" fontFamily="Merriweather-Bold, Merriweather" fontWeight="700" letter-spacing="0.016em"><tspan x="0" y="0">Bank</tspan><tspan x="0" y="17">Transfer</tspan></text>
    <g id="Group_30796" data-name="Group 30796" transform="translate(84.593 463.033)">
      <g id="Group_30795" data-name="Group 30795" transform="translate(0 0)" clipPath="url(#clipPath)">
        <path id="Path_60264" data-name="Path 60264" d="M26.914,14.2a1.459,1.459,0,0,0-1.46,1.46v1.15h1.3v7.708a1.46,1.46,0,0,1-1.46,1.46H22.345a1.46,1.46,0,0,1-1.46-1.46V16.807h1.3v-1.15a1.459,1.459,0,0,0-1.46-1.46H15.819a1.459,1.459,0,0,0-1.46,1.46v1.15h1.3v7.708a1.46,1.46,0,0,1-1.46,1.46H11.25a1.46,1.46,0,0,1-1.46-1.46V16.807h1.3v-1.15a1.459,1.459,0,0,0-1.46-1.46H4.723a1.459,1.459,0,0,0-1.46,1.46v1.15h1.3v7.708a1.46,1.46,0,0,1-1.46,1.46h-.34a1.459,1.459,0,0,0-1.46,1.46v1a1.46,1.46,0,0,0,1.46,1.46H33.783a1.46,1.46,0,0,0,1.46-1.46v-1a1.459,1.459,0,0,0-1.46-1.46H33.44a1.46,1.46,0,0,1-1.46-1.46V16.807h1.3v-1.15a1.459,1.459,0,0,0-1.46-1.46ZM0,9.905v.252a1.46,1.46,0,0,0,1.46,1.46h33.63a1.46,1.46,0,0,0,1.46-1.46v-.25a1.46,1.46,0,0,0-.8-1.3L18.93.156a1.457,1.457,0,0,0-1.31,0L.8,8.6a1.459,1.459,0,0,0-.8,1.3" transform="translate(0 0)" fill="#0c2038"/>
      </g>
    </g>
  </g>
</svg>
