<svg xmlns="http://www.w3.org/2000/svg" width="177" height="83" viewBox="0 0 177 83">
  <g id="Group_30786" data-name="Group 30786" transform="translate(-259.352 -436.109)">
    <rect id="Rectangle_21223" data-name="Rectangle 21223" width="177" height="83" rx="16" transform="translate(259.352 436.109)" fill="#f5f6fa"/>
    <g id="logo" transform="translate(287.621 465.401)">
      <path id="Path_60249" data-name="Path 60249" d="M26.623,10.26l4.742-4.741,4.744,4.744L38.868,7.5,31.365,0l-7.5,7.5Z" transform="translate(-19.703)" fill="#010000"/>
      <rect id="Rectangle_23780" data-name="Rectangle 23780" width="3.902" height="3.902" transform="translate(2.212 9.448) rotate(45)" fill="#010000"/>
      <path id="Path_60250" data-name="Path 60250" d="M26.606,73.4l4.742,4.741L36.091,73.4l2.761,2.757v0l-7.5,7.5-7.5-7.5,0,0Z" transform="translate(-19.686 -59.242)" fill="#010000"/>
      <rect id="Rectangle_23781" data-name="Rectangle 23781" width="3.902" height="3.902" transform="translate(23.869 12.209) rotate(135)" fill="#010000"/>
      <path id="Path_60251" data-name="Path 60251" d="M53.833,51.58h0l-2.8-2.8-2.069,2.069h0l-.238.238-.49.49h0l0,0,0,0,2.8,2.8,2.8-2.8v0Z" transform="translate(-39.374 -39.373)" fill="#010000"/>
      <path id="Path_60252" data-name="Path 60252" d="M148.37,30.679h6a4.578,4.578,0,0,1,3.379,1.147,2.993,2.993,0,0,1,.886,2.2v.037a3.176,3.176,0,0,1-.138.98,3.047,3.047,0,0,1-.368.767,2.924,2.924,0,0,1-.533.6,3.572,3.572,0,0,1-.652.444,4.366,4.366,0,0,1,1.768,1.156,2.959,2.959,0,0,1,.644,2.025v.037a3.36,3.36,0,0,1-.342,1.554,3.019,3.019,0,0,1-.979,1.11,4.586,4.586,0,0,1-1.533.666,8.257,8.257,0,0,1-1.985.222H148.37Zm5.4,5.234a2.966,2.966,0,0,0,1.5-.324,1.118,1.118,0,0,0,.555-1.045v-.037a1.14,1.14,0,0,0-.481-.989,2.376,2.376,0,0,0-1.387-.342h-2.811v2.737h2.626Zm.758,5.216a2.736,2.736,0,0,0,1.48-.342,1.172,1.172,0,0,0,.536-1.064v-.037a1.222,1.222,0,0,0-.5-1.027,2.691,2.691,0,0,0-1.609-.379h-3.292V41.13h3.385Z" transform="translate(-120.2 -24.763)" fill="#010000"/>
      <path id="Path_60253" data-name="Path 60253" d="M223.875,30.679h2.849V43.626h-2.849Z" transform="translate(-181.144 -24.763)" fill="#010000"/>
      <path id="Path_60254" data-name="Path 60254" d="M261.02,30.679h2.626l6.067,7.972V30.679h2.811V43.626H270.1l-6.27-8.231v8.231H261.02Z" transform="translate(-211.126 -24.763)" fill="#010000"/>
      <path id="Path_60255" data-name="Path 60255" d="M342.17,30.2H344.8l5.549,13.04h-2.978l-1.184-2.9h-5.475l-1.184,2.9h-2.9Zm3,7.62-1.72-4.2-1.72,4.2Z" transform="translate(-272.148 -24.376)" fill="#010000"/>
      <path id="Path_60256" data-name="Path 60256" d="M423.738,30.679h2.627l6.067,7.972V30.679h2.811V43.626H432.82l-6.27-8.231v8.231h-2.811Z" transform="translate(-342.466 -24.763)" fill="#010000"/>
      <path id="Path_60257" data-name="Path 60257" d="M508.763,42.919a6.707,6.707,0,0,1-2.645-.518,6.384,6.384,0,0,1-3.5-3.533,6.82,6.82,0,0,1-.5-2.608v-.037a6.75,6.75,0,0,1,.5-2.6A6.675,6.675,0,0,1,504.01,31.5a6.429,6.429,0,0,1,2.127-1.443,6.926,6.926,0,0,1,2.738-.527,8.585,8.585,0,0,1,1.655.148,6.934,6.934,0,0,1,1.36.407,5.927,5.927,0,0,1,1.128.629,7.693,7.693,0,0,1,.961.814l-1.812,2.09a6.868,6.868,0,0,0-1.545-1.073,3.937,3.937,0,0,0-1.766-.388,3.585,3.585,0,0,0-2.7,1.184,4.066,4.066,0,0,0-.777,1.285,4.377,4.377,0,0,0-.277,1.563v.037a4.449,4.449,0,0,0,.277,1.572,4.115,4.115,0,0,0,.768,1.295,3.557,3.557,0,0,0,2.71,1.2,3.965,3.965,0,0,0,1.877-.407,7.262,7.262,0,0,0,1.526-1.11l1.813,1.831a9.421,9.421,0,0,1-1.036.962,6.157,6.157,0,0,1-1.175.731,6.088,6.088,0,0,1-1.4.462A8.426,8.426,0,0,1,508.763,42.919Z" transform="translate(-405.735 -23.834)" fill="#010000"/>
      <path id="Path_60258" data-name="Path 60258" d="M581.467,30.679h9.747v2.534h-6.936V35.84h6.1v2.534h-6.1v2.719h7.029v2.534h-9.84Z" transform="translate(-469.778 -24.763)" fill="#010000"/>
    </g>
  </g>
</svg>
