<svg xmlns="http://www.w3.org/2000/svg" width="177" height="83" viewBox="0 0 177 83">
  <g id="Group_21920" data-name="Group 21920" transform="translate(-52.352 -61.109)">
    <rect id="Rectangle_21217" data-name="Rectangle 21217" width="177" height="83" rx="16" transform="translate(52.352 61.109)" fill="#f5f6fa"/>
    <g id="Group_21917" data-name="Group 21917" transform="translate(-479.227 -1387.769)">
      <path id="Path_47250" data-name="Path 47250" d="M748.251,165.47H729.71V132.15h18.541Z" transform="translate(-118.947 1341.272)" fill="#ff5f00"/>
      <path id="Path_47251" data-name="Path 47251" d="M26.19,21.19A21.156,21.156,0,0,1,34.283,4.53a21.191,21.191,0,1,0,0,33.32A21.156,21.156,0,0,1,26.19,21.19" transform="translate(585.749 1468.892)" fill="#eb001b"/>
      <path id="Path_47252" data-name="Path 47252" d="M1034.395,21.19a21.19,21.19,0,0,1-34.285,16.66,21.193,21.193,0,0,0,0-33.32,21.189,21.189,0,0,1,34.284,16.66" transform="translate(-380.077 1468.892)" fill="#f79e1b"/>
    </g>
  </g>
</svg>
