<svg xmlns="http://www.w3.org/2000/svg" xmlns:xlink="http://www.w3.org/1999/xlink" width="177" height="83" viewBox="0 0 177 83">
  <defs>
    <clipPath id="clipPath">
      <rect id="Rectangle_23782" data-name="Rectangle 23782" width="13.859" height="11.335" fill="#0c2038"/>
    </clipPath>
  </defs>
  <g id="Group_30792" data-name="Group 30792" transform="translate(-259.352 -436.109)">
    <rect id="Rectangle_21223" data-name="Rectangle 21223" width="177" height="83" rx="16" transform="translate(259.352 436.109)" fill="#f5f6fa"/>
    <g id="Group_30794" data-name="Group 30794" transform="translate(-3.449 -1)">
      <text id="NetBanking" transform="translate(322 482.992)" fill="#0c2038" fontSize="16" fontFamily="Merriweather-Bold, Merriweather" fontWeight="700" letter-spacing="0.016em"><tspan x="0" y="0">NetBanking</tspan></text>
      <path id="Path_60262" data-name="Path 60262" d="M131.621,27.751H119.006a1.26,1.26,0,0,0-1.261,1.261v1.261h15.137V29.013a1.26,1.26,0,0,0-1.261-1.261M139.189,0H111.438a2.53,2.53,0,0,0-2.523,2.523V22.706a2.53,2.53,0,0,0,2.523,2.523h27.751a2.53,2.53,0,0,0,2.523-2.523V2.523A2.531,2.531,0,0,0,139.189,0m0,20.6H111.438V2.523h27.751Z" transform="translate(171.687 463.473)" fill="#0c2038"/>
      <g id="Group_30795" data-name="Group 30795" transform="translate(289.936 469.503)">
        <g id="Group_30795-2" data-name="Group 30795" transform="translate(0 0)" clipPath="url(#clipPath)">
          <path id="Path_60264" data-name="Path 60264" d="M10.206,5.384a.553.553,0,0,0-.554.554v.436h.495V9.3a.553.553,0,0,1-.554.554H8.473A.553.553,0,0,1,7.92,9.3V6.373h.495V5.937a.553.553,0,0,0-.554-.554H6a.553.553,0,0,0-.554.554v.436H5.94V9.3a.553.553,0,0,1-.554.554H4.266A.553.553,0,0,1,3.712,9.3V6.373h.495V5.937a.553.553,0,0,0-.554-.554H1.791a.553.553,0,0,0-.554.554v.436h.493V9.3a.553.553,0,0,1-.554.554H1.048a.553.553,0,0,0-.554.554v.378a.553.553,0,0,0,.554.554H12.81a.553.553,0,0,0,.554-.554V10.4a.553.553,0,0,0-.554-.554h-.13a.553.553,0,0,1-.554-.554V6.373h.495V5.937a.553.553,0,0,0-.554-.554ZM0,3.756v.1a.553.553,0,0,0,.554.554H13.306a.553.553,0,0,0,.554-.554V3.757a.553.553,0,0,0-.3-.494L7.178.059a.552.552,0,0,0-.5,0L.305,3.262A.553.553,0,0,0,0,3.756" transform="translate(0 0)" fill="#0c2038"/>
        </g>
      </g>
    </g>
  </g>
</svg>
