<svg xmlns="http://www.w3.org/2000/svg" width="177" height="83" viewBox="0 0 177 83">
  <g id="Group_21919" data-name="Group 21919" transform="translate(-259.352 -61.109)">
    <rect id="Rectangle_21216" data-name="Rectangle 21216" width="177" height="83" rx="16" transform="translate(259.352 61.109)" fill="#f5f6fa"/>
    <g id="Group_21918" data-name="Group 21918" transform="translate(-505.74 -1390.171)">
      <path id="Path_47262" data-name="Path 47262" d="M45.683,76.876H39.2l4.054-24.912h6.486ZM33.741,51.964,27.558,69.1l-.732-3.69h0l-2.182-11.2s-.264-2.243-3.077-2.243H11.346l-.12.422a24.263,24.263,0,0,1,6.784,2.847l5.635,21.643H30.4L40.722,51.964ZM84.756,76.876h5.955L85.519,51.963H80.3a2.98,2.98,0,0,0-2.994,1.857L67.638,76.876H74.4l1.352-3.7H84Zm-7.137-8.812,3.408-9.323,1.917,9.323ZM68.145,57.955l.926-5.35a18.721,18.721,0,0,0-5.833-1.086c-3.219,0-10.862,1.407-10.862,8.247,0,6.436,8.971,6.516,8.971,9.9s-8.046,2.775-10.7.643L49.68,75.9A18.176,18.176,0,0,0,57,77.306c4.426,0,11.1-2.292,11.1-8.529,0-6.477-9.051-7.08-9.051-9.9s6.317-2.455,9.093-.926Z" transform="translate(802.522 1428.257)" fill="#2566af"/>
      <path id="Path_47263" data-name="Path 47263" d="M26.827,65.632l-2.182-11.2s-.264-2.243-3.077-2.243H11.346l-.12.422a25.129,25.129,0,0,1,9.626,4.833A19.426,19.426,0,0,1,26.827,65.632Z" transform="translate(802.522 1428.035)" fill="#e6a540"/>
    </g>
  </g>
</svg>
