<svg xmlns="http://www.w3.org/2000/svg" xmlns:xlink="http://www.w3.org/1999/xlink" width="50.273" height="33.766" viewBox="0 0 50.273 33.766">
  <defs>
    <clipPath id="clipPath">
      <rect id="Rectangle_22910" data-name="Rectangle 22910" width="50.273" height="33.765" fill="none"/>
    </clipPath>
    <linearGradient id="linear-gradient" x1="0.5" x2="0.5" y2="1" gradientUnits="objectBoundingBox">
      <stop offset="0" stop-color="#c08b23"/>
      <stop offset="1" stop-color="#ffb72d"/>
    </linearGradient>
  </defs>
  <g id="Group_29284" data-name="Group 29284" transform="translate(-95.041 -87.894)">
    <g id="Group_29275" data-name="Group 29275" transform="translate(95.042 87.894)">
      <g id="Group_29274" data-name="Group 29274" clipPath="url(#clipPath)">
        <path id="Path_58064" data-name="Path 58064" d="M99.406,1.384l4.1,8.309,9.169,1.332a2.482,2.482,0,0,1,1.376,4.234l-6.635,6.468,1.566,9.132a2.482,2.482,0,0,1-3.6,2.617l-8.2-4.312-8.2,4.312a2.482,2.482,0,0,1-3.6-2.617l1.566-9.132-6.635-6.468a2.482,2.482,0,0,1,1.376-4.234l9.169-1.332,4.1-8.309a2.482,2.482,0,0,1,4.452,0" transform="translate(-72.044 -0.001)" fill="url(#linear-gradient)"/>
      </g>
    </g>
    <text id="_3" data-name="3" transform="translate(115 112)" fill="#fff" fontSize="18" fontFamily="Lato-Semibold, Lato" fontWeight="600"><tspan x="0" y="0">3</tspan></text>
  </g>
</svg>
